<svg xmlns="http://www.w3.org/2000/svg" viewBox="0 0 270.75 325.92"><defs><style>.cls-1{fill:#72675f;}.cls-2{fill:#908275;}.cls-3{fill:#fff;}.cls-4{fill:#d2b39c;}.cls-5,.cls-9{fill:#b39a88;}.cls-6{fill:#ebedee;}.cls-7{fill:#c3b69a;}.cls-8{fill:#0e0d0d;opacity:0.1;}.cls-9{opacity:0.63;}.cls-10{fill:#84716c;}.cls-11{fill:#dcc4b0;}.cls-12{fill:#c4ae9d;}.cls-13{fill:#f1e2d6;}.cls-14{fill:#dec4b1;}.cls-15{fill:#d2b49c;}.cls-16{fill:#6e7172;}.cls-17{fill:#b69e8c;opacity:0.23;}.cls-18{fill:#6e7273;}.cls-19{fill:#b4e2ed;}.cls-20{fill:#fffeff;}.cls-21{fill:#f1a7af;}</style></defs><g id="Layer_2" data-name="Layer 2"><g id="BG"><path class="cls-1" d="M86.22,297.3a10.7,10.7,0,0,0-.72-2.95,73.62,73.62,0,0,0-19.25,23.77,5.86,5.86,0,0,0-3.36-4.33c-.68,2.89-3.49,4.67-6.06,6.13-7.47,4.25-14.44,6.62-23.08,5.86C24.14,325,14,321.19,7.07,314.28a24.25,24.25,0,0,1-2.7-31,9.53,9.53,0,0,1,3.85-3.42,9.14,9.14,0,0,1,4.58-.47c7.71.84,14.15,6.39,18.57,12.81l.18-5.74a13.7,13.7,0,0,0,16.05,6.1c3.18-1.12,5.83-3.38,8.4-5.6,2.26-2,4.66-4.12,5.27-7.05l-5.54.74c3.2-.86,5.5-3.67,7.33-6.48s3.52-5.86,6.27-7.73c4.47-3,10.48-2.1,15.43-.07,3.17,1.3,6.28,3.09,8.31,5.88a6,6,0,0,1,1.29,3.09,7.88,7.88,0,0,1-.59,3c-1.11,3.22-2.32,6.34-3.28,9.59C89.71,290.56,86,294.7,86.22,297.3Z"/><path class="cls-2" d="M2.66,296.37A6.29,6.29,0,0,0,6.23,303a7.5,7.5,0,0,1,2-3.74A83.69,83.69,0,0,0,38,308.54a4.78,4.78,0,0,1-1.7-4.11A15.06,15.06,0,0,0,53,307a8.17,8.17,0,0,1-4.94-1.9c.31-1.13,1.66-1.53,2.79-1.8A33,33,0,0,0,67.8,293.08a5.79,5.79,0,0,0-5.46.58A23.17,23.17,0,0,1,66.9,288c3.25-2.8,8.43-3.73,11.1-7.07,2.42-3,4.55-8.08,4-11.95A9.23,9.23,0,0,0,80.54,265c-3.88-.89-8-.79-11.21,1.42-2.75,1.87-4.44,4.93-6.27,7.73s-4.13,5.62-7.33,6.48l5.54-.74c-.61,2.93-3,5.1-5.27,7.05-2.57,2.22-5.22,4.48-8.4,5.6a13.7,13.7,0,0,1-16-6.1l-.18,5.74c-4.42-6.42-10.86-12-18.57-12.81a9.14,9.14,0,0,0-4.58.47,9.53,9.53,0,0,0-3.85,3.42A23.7,23.7,0,0,0,0,297.5c.35,1.05.76,2.08,1.19,3.08C1.69,299.18,2.18,297.77,2.66,296.37Z"/><path class="cls-3" d="M199.62,151.93a1.11,1.11,0,1,1-1.11-1.19A1.15,1.15,0,0,1,199.62,151.93Z"/><path class="cls-4" d="M94.78,284.15a76.07,76.07,0,0,0,21.52,3.72c24,.84,48.1-7.55,67.26-23.38s33.21-39,39.15-64.51c3.47-15,3.95-31.88-3.66-44.87-10.16-17.33-30.9-22.26-49.53-24.59-17.11-2.14-34.62-3.33-51.71-.29C107.6,132,76.93,139,93.67,156c4.3,4.37,10.15,8,11.15,14.36s-3.49,12-7.91,16.26C83,199.86,65.05,211.2,60.75,230.86c-3.4,15.53,3.56,32.33,14.86,42.38A54.87,54.87,0,0,0,94.78,284.15Z"/><path class="cls-3" d="M80,227.57a28.88,28.88,0,0,0-3.9,21c11,55.85,95.15-12.54,55.08-37-8.74-5.32-20.51-4.74-29.72-1.29C93.14,213.46,84.87,219.52,80,227.57Z"/><path class="cls-5" d="M222.71,200c2.63-11.33,3.54-23.77.53-34.77-5,2.36-9,7.5-11.26,13.09-3.06,7.55-3.72,16-5.24,24.06-7.17,38.27-36.4,70.79-71.39,77.65-3,0-6.22,1-9.29,1.19a55.91,55.91,0,0,1-9.33-.2c-6.13-.68-12.17-2-18.25-3.27-9.3-1.87-17.2-7.11-25.18-12.65-2-1.38-8-4.31-4.53.53a46.59,46.59,0,0,0,6.84,7.63,54.87,54.87,0,0,0,19.17,10.91,76.07,76.07,0,0,0,21.52,3.72c24,.84,48.1-7.55,67.26-23.38S216.77,225.51,222.71,200Z"/><path class="cls-3" d="M142.46,225.47c.19-2-2.91-3-2.64-5a18.23,18.23,0,0,1,3.22.66,4.82,4.82,0,0,0,4-1.3c-2.63-2.64-4.72-5.77-7.16-8.59s-5.09-5.16-8.44-6.32a5.78,5.78,0,0,0-1-.57,20.55,20.55,0,0,0-9.64-4c-3.66-.68-7.42-.91-11-1.84a4.8,4.8,0,0,0,.88,4.08,19.56,19.56,0,0,1,2.2,2.45c-1.55,1.22-4.05-.91-5.65.24a3.34,3.34,0,0,0-.84,1.06c-2.57,4.3-5.15,9.12-4.3,14,.38,2.16,1.1,4.34,3.32,4.9a42.24,42.24,0,0,0,8.15,1.08,8.78,8.78,0,0,0,4.29-.54,6.32,6.32,0,0,0,1.68-1.23l.1,0a6.19,6.19,0,0,0-.22,2.09,8.75,8.75,0,0,0,1.69,4,42.42,42.42,0,0,0,5.06,6.48c1.61,1.64,3.85,1.16,5.91.39,4.65-1.73,7.5-6.4,9.91-10.78A3.36,3.36,0,0,0,142.46,225.47Z"/><path class="cls-6" d="M73.33,262.28a37.27,37.27,0,0,0-3.41-23,52.71,52.71,0,0,0-6.51-9.72c-4.08-5.11-8.24-8.86-15-8.86a12.83,12.83,0,0,0-5,.82A6.38,6.38,0,0,0,39.82,225a14.62,14.62,0,0,0-8,0,8.62,8.62,0,0,0-5.67,5.42,10.3,10.3,0,0,0,0,5.23,2,2,0,0,1,.05,1,1.85,1.85,0,0,1-1,.87c-3.2,1.66-5,4.13-4.52,7.93.72,6.24,5.24,9.69,9.48,13.61,4.39,4.06,6.44,10.34,11.54,13.66a17.47,17.47,0,0,0,9.52,2.48c8.25,0,16.17-3.2,20.61-10.53a10.12,10.12,0,0,0,1.93-5.06"/><path class="cls-3" d="M27.31,246.57c-.22-1.49-.31-3.18.66-4.32.44-.52,1.06-.86,1.48-1.4,1-1.35.45-3.27.46-5a6.76,6.76,0,0,1,4.79-6.33c1.66-.45,3.43-.22,5.12-.52a8.48,8.48,0,0,0,5.49-3.61,9.29,9.29,0,0,1,2-2.7,9.71,9.71,0,0,1,3.08-1,4.14,4.14,0,0,0,1.4-.68c4.84,1,8.24,4.32,11.58,8.5a52.71,52.71,0,0,1,6.51,9.72c.44.9.85,1.82,1.22,2.75a56.17,56.17,0,0,1-.29,8,19.24,19.24,0,0,1-6.26,11.55,23.71,23.71,0,0,1-11.87,5.57,19.07,19.07,0,0,1-9-.39,12.33,12.33,0,0,1-7.06-5.46c-1.47-2.57-2-5.91-4.38-7.6-.73-.51-1.58-.82-2.3-1.35C28.25,251.08,27.63,248.74,27.31,246.57Z"/><path class="cls-7" d="M50.45,243.32a8.49,8.49,0,0,0-3.81.88,8.4,8.4,0,0,0-2.54,2.29,16.79,16.79,0,0,0-3.19,12.78,8.91,8.91,0,0,0,1.67,4.27,7.52,7.52,0,0,0,5.52,2.53,17.42,17.42,0,0,0,6.12-1.1c3.45-1.14,7-2.76,9.11-5.74C69.61,250.55,58.05,243.09,50.45,243.32Z"/><path class="cls-7" d="M38.64,233.5a3.4,3.4,0,0,1,2.29,4.19A6,6,0,0,1,38,241c-1.38.82-3.17,1.31-4.52.46a3.59,3.59,0,0,1-1.39-1.83A5.14,5.14,0,0,1,33.54,234,5.2,5.2,0,0,1,38.64,233.5Z"/><path class="cls-7" d="M52.06,227.7a3.41,3.41,0,0,1,1.76,4.45,6,6,0,0,1-3.29,2.95c-1.47.63-3.3.9-4.54-.12a3.7,3.7,0,0,1-1.16-2,5.16,5.16,0,0,1,2.11-5.43A5.23,5.23,0,0,1,52.06,227.7Z"/><path class="cls-7" d="M31.11,244.77a3.35,3.35,0,0,1,3.73,2.93,6.13,6.13,0,0,1-1.38,4.24c-1,1.3-2.41,2.47-4,2.23a3.55,3.55,0,0,1-2-1.13,5.19,5.19,0,0,1-.87-5.77A5.29,5.29,0,0,1,31.11,244.77Z"/><path class="cls-6" d="M85.54,266.12c21.75,16.48,68.12-23.44,53.58-46.89a1.89,1.89,0,0,0-.36.16c-1,.6-1,2-1,3.15a28.76,28.76,0,0,1-7.73,19.6c-4,4.31-9.33,7.25-13.67,11.25-3.62,3.34-6.63,7.44-10.86,10C99.6,266.86,92.44,266.75,85.54,266.12Z"/><path class="cls-6" d="M88.72,289.5a37.18,37.18,0,0,1,12-19.93,52.88,52.88,0,0,1,9.74-6.48c5.72-3.15,11-5,17.27-2.41a12.85,12.85,0,0,1,4.3,2.67A6.36,6.36,0,0,1,134,268a14.68,14.68,0,0,1,7.37,3.07,8.63,8.63,0,0,1,3.15,7.18,10.26,10.26,0,0,1-2,4.84,1.84,1.84,0,0,0-.43.9,1.8,1.8,0,0,0,.56,1.17c2.32,2.76,3,5.72,1.13,9.06-3.06,5.48-8.56,6.94-14,8.93-5.61,2.07-9.91,7.08-15.89,8.19a17.63,17.63,0,0,1-9.75-1.37c-7.63-3.13-13.7-9.15-15-17.63a10.12,10.12,0,0,1,.16-5.41"/><path class="cls-3" d="M137.24,292.64c.78-1.28,1.51-2.81,1-4.24-.21-.65-.65-1.2-.83-1.86-.44-1.64.84-3.19,1.49-4.77a6.77,6.77,0,0,0-2-7.68c-1.36-1.06-3.08-1.53-4.53-2.46a8.42,8.42,0,0,1-3.68-5.43,9.18,9.18,0,0,0-.85-3.28,9.8,9.8,0,0,0-2.48-2.07,3.92,3.92,0,0,1-1-1.16c-4.88-.89-9.27.82-14,3.4a52.88,52.88,0,0,0-9.74,6.48c-.76.66-1.48,1.36-2.18,2.07a55.24,55.24,0,0,0-2.82,7.52A19.25,19.25,0,0,0,97,292.22a23.82,23.82,0,0,0,8.82,9.71,19.18,19.18,0,0,0,8.45,3.08,12.34,12.34,0,0,0,8.62-2.33c2.34-1.81,4.08-4.71,6.95-5.34.87-.19,1.78-.15,2.65-.37C134.64,296.45,136.11,294.53,137.24,292.64Z"/><path class="cls-7" d="M117.11,280.76a7.29,7.29,0,0,1,4.66,5.37,16.84,16.84,0,0,1-2,13,8.89,8.89,0,0,1-3.18,3.29,7.46,7.46,0,0,1-6.07.22,17.26,17.26,0,0,1-5.23-3.36c-2.75-2.37-5.37-5.22-6.21-8.79C96.65,280.09,110.19,277.64,117.11,280.76Z"/><path class="cls-7" d="M131.79,276.23a3.4,3.4,0,0,0-3.72,3,6,6,0,0,0,1.4,4.2c1,1.28,2.43,2.43,4,2.16a3.66,3.66,0,0,0,2-1.16,5.17,5.17,0,0,0,.85-5.77A5.23,5.23,0,0,0,131.79,276.23Z"/><path class="cls-7" d="M121.62,265.72a3.41,3.41,0,0,0-3.33,3.43,6,6,0,0,0,1.91,4c1.11,1.15,2.7,2.1,4.24,1.63a3.64,3.64,0,0,0,1.83-1.39,5.17,5.17,0,0,0,.14-5.83A5.26,5.26,0,0,0,121.62,265.72Z"/><path class="cls-7" d="M134.42,289.52a3.35,3.35,0,0,0-4.57,1.28,6.1,6.1,0,0,0-.35,4.45c.38,1.56,1.28,3.2,2.82,3.58a3.57,3.57,0,0,0,2.27-.28,5.18,5.18,0,0,0,3-5A5.3,5.3,0,0,0,134.42,289.52Z"/><path class="cls-8" d="M85.41,175.23a13.77,13.77,0,0,0-4.62,1.42c1.06.3,3-.09,3.75,0A18,18,0,0,1,92,178.93C90.3,176.51,88.11,174.93,85.41,175.23Z"/><path class="cls-9" d="M169.52,130.52c-17.11-2.14-34.62-3.33-51.71-.29C107.6,132,76.93,139,93.67,156c4.3,4.37,10.15,8,11.15,14.36s-3.49,12-7.91,16.26c-5.19,4.94-10.94,9.62-16.34,14.56h0c16.67,7.4,35.3,9,53.54,9.35a448.11,448.11,0,0,0,55.31-2.31c11.12-1.15,22.35-2.77,32.83-6.51.15-.58.29-1.16.43-1.74,3.47-15,3.95-31.88-3.66-44.87C208.89,137.78,188.15,132.85,169.52,130.52Z"/><path class="cls-10" d="M251.86,83.21c2.32-2.52,3.19-4.92,4.86-9.59,8.52-23.7-1.58-49.21-13.91-69.41A9.76,9.76,0,0,0,239.5.47c-4.27-2.31-7.74,4.47-9.94,7.06C225.68,12.1,222,17,217.41,20.85c-4.38,3.74-9.15,7-13.31,11-8.51,8.06-21.8,21.15-18.18,34.31,2.23,8.12,11.1,12.2,23.45,17.9,5.06,2.33,7.59,3.49,11.25,4.39C223.35,89.09,242.23,93.7,251.86,83.21Z"/><path class="cls-11" d="M248.48,78.81a4.46,4.46,0,0,0,.79-.49,9.12,9.12,0,0,0,2.41-3.17,42.4,42.4,0,0,0,4.26-16.29,77.67,77.67,0,0,0-4.22-31.32,75.08,75.08,0,0,0-5.07-11.19c-1.54-2.77-3-7.06-5.44-9.09-1.07-.88-2.93-2-4.29-1.23a3.76,3.76,0,0,0-1.35,2.37c-1.34,4.46-4.45,8-5.88,12.41-1.23,3.79-1.85,7.77-3.58,11.38a40.38,40.38,0,0,1-9.5,12.63c-3.36,3-7.31,4.55-8.9,9.11-.28.8-2.24,6.44.42,10s7.28,1.67,14.35,2.91c5.76,1,10.7,3.86,15.32,7.37C240.49,76.23,244.81,80.58,248.48,78.81Z"/><path class="cls-12" d="M251.72,27.54a75.08,75.08,0,0,0-5.07-11.19c-1.54-2.77-3-7.06-5.44-9.09-1.07-.88-2.93-2-4.29-1.23a3.76,3.76,0,0,0-1.35,2.37c-1.34,4.46-4.45,8-5.88,12.41-1.23,3.79-1.85,7.77-3.58,11.38a40.38,40.38,0,0,1-9.5,12.63c-3.36,3-7.31,4.55-8.9,9.11a17.84,17.84,0,0,0-.88,3.9c7.18-2.63,14-9.36,18.23-15.13a44.85,44.85,0,0,0,6.9-14c1.16-4,1.88-8.46,4.72-11.53,1-1.12,2.62-2.05,4-1.48a4.86,4.86,0,0,1,2.06,2.12,133.82,133.82,0,0,0,7.88,11,7.53,7.53,0,0,0,2.15,2C252.47,29.75,252.11,28.64,251.72,27.54Z"/><path class="cls-10" d="M57.92,99.1c-2.7-2.11-4-4.34-6.36-8.67C39.3,68.43,45.11,41.62,54,19.68a9.59,9.59,0,0,1,2.66-4.22c3.83-3,8.36,3.14,11,5.34,4.57,3.88,9,8.07,14.15,11.17,4.92,3,10.16,5.41,14.92,8.66,9.71,6.57,24.95,17.32,23.52,30.9-.88,8.37-9,13.84-20.22,21.47-4.61,3.13-6.92,4.69-10.39,6.17C87,100.26,69.13,107.88,57.92,99.1Z"/><path class="cls-11" d="M60.54,94.21a5.18,5.18,0,0,1-.86-.35,9.35,9.35,0,0,1-2.9-2.74,42.42,42.42,0,0,1-6.85-15.38A77.68,77.68,0,0,1,49,44.15a74.61,74.61,0,0,1,3.17-11.86c1.07-3,1.81-7.46,3.9-9.86.9-1,2.56-2.47,4-1.91a3.78,3.78,0,0,1,1.73,2.11c2,4.2,5.69,7.19,7.81,11.3,1.84,3.53,3.1,7.36,5.39,10.64A40.44,40.44,0,0,0,86.45,55.49c3.81,2.43,8,3.29,10.26,7.54.41.74,3.26,6,1.22,9.91S91,75.77,84.24,78.15c-5.52,1.94-9.93,5.54-13.92,9.76C68,90.37,64.45,95.36,60.54,94.21Z"/><path class="cls-12" d="M49,44.15a74.61,74.61,0,0,1,3.17-11.86c1.07-3,1.81-7.46,3.9-9.86.9-1,2.56-2.47,4-1.91a3.78,3.78,0,0,1,1.73,2.11c2,4.2,5.69,7.19,7.81,11.3,1.84,3.53,3.1,7.36,5.39,10.64A40.44,40.44,0,0,0,86.45,55.49c3.81,2.43,8,3.29,10.26,7.54a17.83,17.83,0,0,1,1.51,3.7c-7.52-1.43-15.36-7-20.45-12a45,45,0,0,1-9.09-12.69c-1.8-3.8-3.24-8-6.54-10.61-1.21-.94-2.91-1.59-4.22-.8a4.86,4.86,0,0,0-1.69,2.42,130.61,130.61,0,0,1-6,12.17,7.64,7.64,0,0,1-1.79,2.36C48.62,46.45,48.79,45.3,49,44.15Z"/><path class="cls-13" d="M270,122a98.44,98.44,0,0,0-8.2-30.7,70.45,70.45,0,0,0-8.06-13.94,64,64,0,0,0-15.54-14.68c5.55.39,6.82-.07,6.93-.57.21-1.07-4.6-3.74-9.7-4.73-3.84-.75-7.17-.41-7.25-1s3.57-1.33,3.51-2.13-4.58-1.34-7.87-1.41c-4.53-.09-7.44.51-7.56,0-.17-.69,5.14-2.26,5-2.86s-6.67,0-13.61,1.93c-4.77,1.34-4.89,1.94-9.25,3a57.85,57.85,0,0,1-11.31,1.54c-5.66.21-8.43-.54-13.07-1a102.69,102.69,0,0,0-34.47,2.83c-4.5,1.19-7.11,2.37-12.73,3.09a58.09,58.09,0,0,1-11.41.32c-4.48-.34-4.69-.92-9.62-1.46-7.16-.8-13.69-.37-13.74.3s5.45,1.31,5.4,2c0,.51-3,.39-7.46,1.22-3.23.61-7.6,1.78-7.53,2.66s3.78.85,3.81,1.53-3.32.85-7,2.21c-4.87,1.81-9.19,5.23-8.8,6.25.19.48,1.52.72,6.93-.57a63.75,63.75,0,0,0-12.94,17,69.47,69.47,0,0,0-5.68,15.06,98.05,98.05,0,0,0-3.1,31.63c.45,7.37.86,14.2,4.18,22.58a59.3,59.3,0,0,0,11,17.64,69,69,0,0,0,22,16.75,87,87,0,0,0,24.45,8.09c3.08.62,9.65,1.17,22.66,2.24,11,.89,22,1.34,33,.17,10.3-1.1,20.29-3.78,30.32-6.3,5.46-1.38,11.13-2.49,16.42-4.5a87.27,87.27,0,0,0,22.8-12,69.15,69.15,0,0,0,19-20.11,59.7,59.7,0,0,0,8-19.21C271.43,136.16,270.73,129.36,270,122Z"/><path class="cls-14" d="M269.52,145c1.91-8.8,1.21-15.6.45-23a104.43,104.43,0,0,0-1.77-11.15c-1.26-2.5-2.78-5.45-4.69-8.58-3.41-5.58-6.57-10.65-12.48-14.5a30.86,30.86,0,0,0-9-4c3.77-.58,4.61-1.11,4.62-1.5,0-.86-4.09-1.83-7.73-2a46.29,46.29,0,0,0-7.93.55c0-.21,6.88-1.12,6.87-2.3,0-.91-4.1-1.94-7.9-1.71a17.81,17.81,0,0,0-4.47.88l2.34-2.23L218.52,75A37.91,37.91,0,0,0,205,77.45c-5.54,2.14-8.32,3.21-10.09,4.91-.77.74-2,2.09-3.73,2.08-1.44,0-2.56-1-3.79-2-2-1.7-1.92-2.56-3.84-4.18a8.43,8.43,0,0,0-3.67-2.15c-3.27-.69-6.09,1.89-6.48,1.35s2.73-3.13,2.39-3.6-3.89.92-7.09,3.71c-3,2.6-2.65,3.84-5.2,5.47A13.05,13.05,0,0,1,156.4,85c-2.27,0-3.06-.58-8.67-2.42a64.92,64.92,0,0,0-8-2.34c-5.22-.95-10.4-.5-10.47.18,0,.37,2.67.66,2.65,1.14,0,.85-8.25,1-8.31,2,0,.48,1.56.69,1.59,1.37s-2.19,1.23-4.51,2.41c-1.52.79-3.19,2.38-6.53,5.58-3.56,3.41-3.54,3.76-5,4.63a16.14,16.14,0,0,1-6.69,2c-3.69.44-5.29-.32-9.74-.7-4.88-.42-4.41.39-9.14.07-3.22-.22-6.64-.73-6.85,0-.14.48,1.16,1,1.09,1.82,0,.33-.26.85-2.93,2-1.65.72-2.69,1-4.55,1.87-1.52.7-2.34,1.2-2.29,1.69s.86.56.89,1-1.31,1.08-2.16,1.53c-1.39.74-2.16,1.87-3.69,4.12A92.8,92.8,0,0,0,55.74,126a101.88,101.88,0,0,0-.08,13.61c.45,7.37.86,14.2,4.18,22.58a59.3,59.3,0,0,0,11,17.64,69,69,0,0,0,22,16.75,87,87,0,0,0,24.45,8.09c2.14.43,6,.83,12.54,1.39-2.29-.76-4.77-1.18-6.37-1.65-10.75-3.14-22-6.63-31.76-12.63-2.9-1.78-5.72-3-7.58-6.11-.64-1.06-1.77-2.94-1.18-4.6.8-2.29,4.65-3.59,9.65-2.83-1.42-1.5-2-2.54-1.67-3.14.45-.88,3.14.41,7.91.58a34,34,0,0,0,3.83-.11c7.7-.34,17.15,6.21,19.61,8,4.84,3.51,6.57,6,11,6.65a14.54,14.54,0,0,0,5-.2,15,15,0,0,1-3.94-3.77A16,16,0,0,1,131.59,176a16.45,16.45,0,0,1,4-9.74c2.81-3,4.46-2.13,8.79-6a17.46,17.46,0,0,0,4.94-6.12c1.48-3.4.13-4.15,1.51-8.71a23.35,23.35,0,0,1,4.37-8.12,22.48,22.48,0,0,1,3.75-3.58q-.59-14.35-1.15-28.71c.79,1.36,1.57,2.73,2.35,4.09.69-1.89,1.38-3.79,2.06-5.68l1.59,8.35q.79-3.94,1.57-7.9l2.52,27a29.49,29.49,0,0,0,1.83,2.71c2.43,3.22,3.66,3.58,4.8,5.64,1.28,2.32.42,3.11,1.39,5.91,1,3,3,4.79,4.88,6.55,9.39,8.62,11.18,9.39,13.06,11.7,2.59,3.2,5,8.88,3.23,19.76,1.87-1.32,4.55-3.18,7.83-5.34a136.19,136.19,0,0,1,13.44-8.25,75.39,75.39,0,0,1,15.06-5.73l-1.33,3.37c2.42-.55,4.5-1,6.14-1.32,3.65-.73,4.94-.9,6.6-.74,1.84.18,3.7.37,4.57,1.67,1.32,2-.44,5.21-1.09,6.42-2.61,4.87-7,7.31-9.18,8.52,0,0-18.93,10.32-18.92,10.33l26.34-10.91a66,66,0,0,0,15-17A59.7,59.7,0,0,0,269.52,145Z"/><path class="cls-15" d="M158.05,110.13c-1.11-3.36-2.5-7.1-4.16-11.53-2-5.31-3.83-9.56-5-12.26,5.14,20.42,6.63,36,5.16,40.85a17,17,0,0,1-3.89,6.66c-1.54,1.49-3.52,2.68-3.84,2.35s.42-1.57,1.19-2.75c-.84,3.13,2-6.19,2.45-9.4.72-4.81-.43-8.65-2.75-16.32-1.52-5.06-3.66-10.65-4.28-10.48s1.74,6.82.49,15.9c-.53,3.84-1.07,7.47-3.78,10.52-.84,1-2.85,2.94-10.68,5-5.66,1.46-8.19,1.36-19.35,2.6-8.22.92-12.33,1.38-13.19,1.49-9.32,1.22-13,2-15.76-.34-1.83-1.56-2.47-3.77-3.12-6.08-1.71-6,.12-10.41-.89-10.76s-2.84,3.17-4.71,6.52c-2,3.67-3.06,5.51-3.55,8.26s-.28,5.1-.79,5.17-1.15-3-1.85-2.91-1.08,3.27-1.16,5.61c-.14,4.3.63,7.43.22,7.54s-1.18-3-1.85-2.91c-.86.11-1.33,5.38-.56,10.47A26.29,26.29,0,0,0,66.75,165c2.24,3.2,6.49,7.59,8,6.7,2-1.15-3-9.85.19-19.83.68-2.16,1.34-3.11,2.15-3.25,2.28-.38,3.55,5.92,8.78,11.14,2.65,2.63,6.13,4.12,13.09,7.1,8.61,3.68,14.2,4.4,16.11,4.6s3.23.25,4.26.27a35.87,35.87,0,0,0,3.38,12.1c4.53,3.36,6.3,5.76,10.64,6.36a14.54,14.54,0,0,0,5-.2,15,15,0,0,1-3.94-3.77A16,16,0,0,1,131.59,176a16.45,16.45,0,0,1,4-9.74c2.81-3,4.46-2.13,8.79-6a17.46,17.46,0,0,0,4.94-6.12c1.48-3.4.13-4.15,1.51-8.71a23.35,23.35,0,0,1,4.37-8.12,22.48,22.48,0,0,1,3.75-3.58Q158.51,121.94,158.05,110.13Z"/><path class="cls-15" d="M265.14,140.22a31.17,31.17,0,0,0-.14-8.3c-.13-1.13-.5-4.23-1.16-4.26s-1,2.49-1.41,2.43,0-3.12-.7-6.89c-.56-3-1.76-6-2.5-5.92-.57.07-.49,1.9-1.05,2-.9.15-1.77-4.4-4.07-8.66-3.1-5.72-7.89-9.25-8.39-8.84-.31.24,1.17,1.73,1.87,4.75a15.75,15.75,0,0,1-.54,8.21c-.57,1.92-1.53,5.1-4,7.14-2.95,2.44-6.46,1.89-10.87,1.85-11.49-.13-11,3.36-23.26,3.4a50.32,50.32,0,0,1-15.64-2.26c-5.53-1.74-8-3.64-8.68-4.19a24.13,24.13,0,0,1-6.81-9.25,33.54,33.54,0,0,1-3.16-13.91,59.34,59.34,0,0,0-1.36,11.28c-.12,5.07-.19,8,.95,11.64,1.86,5.89,5.6,9.44,4.51,10.66-.41.46-1.28.35-2.41.2a8.77,8.77,0,0,1-3.9-1.72c-2.82-2.28-3-8.33-3.52-16.61-.69-10.61-1-9.39-.92-12.86.21-9.08,2.26-15.43,1.82-15.54s-1.77,3.6-3,8A78.34,78.34,0,0,0,164.39,109l1-5.12,2.52,27a29.49,29.49,0,0,0,1.83,2.71c2.43,3.22,3.66,3.58,4.8,5.64,1.28,2.32.42,3.11,1.39,5.91,1,3,3,4.79,4.88,6.55,9.39,8.62,11.18,9.39,13.06,11.7,2.59,3.2,5,8.88,3.23,19.76,1.53-1.08,3.62-2.53,6.12-4.21a19.24,19.24,0,0,0,.37-5.18c-.21-3-.21-5.49.35-5.61s1.28,1.74,1.48,1.65c.36-.16-2.84-5.87-1.29-7.52,1-1.12,3.36.55,7.87.85a24.69,24.69,0,0,0,7.59-.89,42.84,42.84,0,0,0,17.69-9,33,33,0,0,0,5.84-5.79,28.84,28.84,0,0,0,3.89-6.72c1.85-4.54,1.6-7.41,2.74-7.58.89-.13,1.8,1.52,3,3.71a28.47,28.47,0,0,1,3.36,8.17c1.63,7.09,0,11.56,1.11,11.89,1.28.39,4-5.46,4.8-7.06A30.69,30.69,0,0,0,265.14,140.22Z"/><path class="cls-16" d="M148.85,86.34c1.59,6.32,2.83,12.16,3.74,17.37a152.61,152.61,0,0,1,4,20.85c.43,3.57.69,7.4-1,10.52-.57,1-1.33,1.91-1.9,2.93a5.09,5.09,0,0,0-.71,2.55,23.2,23.2,0,0,1,2.26-3.25,22.48,22.48,0,0,1,3.75-3.58q-.48-11.79-.94-23.6c-1.11-3.36-2.5-7.1-4.16-11.53C151.9,93.29,150.06,89,148.85,86.34Z"/><path class="cls-16" d="M170.71,132.07c-1-1.81-.51-4-.33-6-.91-3.08-1.11-7.58-1.47-13.08-.69-10.61-1-9.39-.92-12.86.21-9.08,2.26-15.43,1.82-15.54s-1.77,3.6-3,8A78.34,78.34,0,0,0,164.39,109l1-5.12,2.52,27a29.49,29.49,0,0,0,1.83,2.71c2.32,3.07,3.54,3.54,4.64,5.36a12.83,12.83,0,0,0-2-4.67A15.12,15.12,0,0,1,170.71,132.07Z"/><path class="cls-17" d="M269,138.06a59.67,59.67,0,0,1-8,19.21,69,69,0,0,1-19,20.11,87.12,87.12,0,0,1-22.8,12c-5.28,2-11,3.12-16.41,4.5-10,2.52-20,5.2-30.33,6.3-11,1.16-22,.72-33-.17-13-1.07-19.59-1.62-22.67-2.24a87.09,87.09,0,0,1-24.44-8.09,69,69,0,0,1-22-16.75,59.45,59.45,0,0,1-11-17.65,55,55,0,0,1-3.53-14.42c.43,6.9,1,13.43,4.1,21.33a59.3,59.3,0,0,0,11,17.64,69,69,0,0,0,22,16.75,87,87,0,0,0,24.45,8.09c3.08.62,9.65,1.17,22.66,2.24,11,.89,22,1.34,33,.17,10.3-1.1,20.29-3.78,30.32-6.3,5.46-1.38,11.13-2.49,16.42-4.5a87.27,87.27,0,0,0,22.8-12,69.15,69.15,0,0,0,19-20.11,59.7,59.7,0,0,0,8-19.21c1.8-8.3,1.28-14.82.58-21.7A55.2,55.2,0,0,1,269,138.06Z"/><path class="cls-18" d="M178.25,133.31a11.7,11.7,0,0,0-2,4c-.33,1-.89,2.6-.44,2.89.65.43,2.57-2.58,4.13-2.11.73.23,1.14,1.14,1.38,2.07.64,2.46,3.74,5.62,5.39,7.49a31.08,31.08,0,0,0,16,9.55,38.75,38.75,0,0,0,14.71.57,37.2,37.2,0,0,0,25.23-15.27A22.72,22.72,0,0,0,246,136c.43-1.52.43-4.38,2.15-5.09a8,8,0,0,1,2.28-.05c2.87.09,3.47.35,3.64.11.35-.49-1.22-2.66-9.13-9.74q-11.46,1-23.86,2.63c-8.47,1.16-14.71,2.72-28.51,4.79-3.75.56-6.85,1-8.94,1.28A10.24,10.24,0,0,0,178.25,133.31Z"/><path class="cls-19" d="M182.73,133.9l10.08-1.78a16.71,16.71,0,0,0,2.9,4.26,17.2,17.2,0,0,0,8.19,4.77,19.91,19.91,0,0,0,11.13-.36,18.1,18.1,0,0,0,7.49-3.75A17.54,17.54,0,0,0,228,126.92l11.55-1.9,3.12,3.69a24.06,24.06,0,0,1-2.27,6.73,25.31,25.31,0,0,1-6.86,8.19,32.89,32.89,0,0,1-9.77,5.43,35.28,35.28,0,0,1-14.55,3C197.15,151.7,187.82,144.81,182.73,133.9Z"/><path class="cls-20" d="M228,142.11c1.63.68,3.57-1.65,4.4-2.78a3.09,3.09,0,0,0,.54-1c.34-1.37-1.51-2.85-2.36-3.71-2.86-2.89-7.57-6.39-11.86-4.88a9.64,9.64,0,0,0,2.12,1.8,24.92,24.92,0,0,1,2.27,2,16.31,16.31,0,0,1,3.45,4.93C226.91,139.3,227,141.69,228,142.11Z"/><path class="cls-18" d="M148.38,135.76a11.9,11.9,0,0,1,2.59,3.6c.47.89,1.29,2.42.9,2.79-.58.53-3-2.14-4.42-1.41-.69.34-.94,1.31-1,2.26-.23,2.54-2.77,6.16-4.1,8.27a31.07,31.07,0,0,1-14.27,12,38.93,38.93,0,0,1-14.41,2.95,37.19,37.19,0,0,1-27.39-11A22.89,22.89,0,0,1,82,149.39c-.68-1.43-1.14-4.26-3-4.68a8.36,8.36,0,0,0-2.26.32c-2.81.56-3.36.91-3.57.7-.43-.42.77-2.82,7.43-11.1,7.64-.6,15.63-1,24-1.28,8.55-.24,15,.29,28.92.08,3.78-.05,6.91-.13,9-.19A10.25,10.25,0,0,1,148.38,135.76Z"/><path class="cls-19" d="M144.05,137.07,133.83,137a16.69,16.69,0,0,1-2.18,4.67,17.1,17.1,0,0,1-7.3,6,19.87,19.87,0,0,1-11,1.45,17.89,17.89,0,0,1-8-2.48,17.61,17.61,0,0,1-7.07-9.09H86.54l-2.48,4.15A24.15,24.15,0,0,0,87.4,148a25.12,25.12,0,0,0,8.1,7A33.09,33.09,0,0,0,106,158.71a35.16,35.16,0,0,0,14.83.55C132.72,157,140.81,148.66,144.05,137.07Z"/><path class="cls-20" d="M100.75,152.54c-1.5.93-3.8-1-4.8-2a2.89,2.89,0,0,1-.69-.91c-.56-1.3,1-3,1.72-4,2.35-3.32,6.43-7.54,10.91-6.75a9.6,9.6,0,0,1-1.81,2.12,26.17,26.17,0,0,0-1.91,2.3,16.37,16.37,0,0,0-2.6,5.44C101.34,149.59,101.66,152,100.75,152.54Z"/><path class="cls-18" d="M138.19,185.19c1,.36,7.38-11.19,8.07-12.12a37.74,37.74,0,0,1,12.15-10.83c4-2.11,8.49-3.56,13-3.08A13.88,13.88,0,0,1,178.3,162c.74.56,5,5.26,5.5,5,.19-.11.19-.37.17-.59-1.34-11.77-17-10.26-24.71-7.22l-.69.28A32.07,32.07,0,0,0,145,171.23C144.17,172.37,136.87,184.43,138.19,185.19Z"/><path class="cls-18" d="M166.46,158.27c-.1-1.23-.21-2.46-.32-3.69a24.11,24.11,0,0,0,3.32-2.5,18.25,18.25,0,0,0,1.72-1.81l.23-.29a3.25,3.25,0,0,1-.23.29.47.47,0,0,1,.23-.29c.31-.1.57.74,1.08.83s1.07-.7,1.59-1.46a6,6,0,0,0,1.11-2.44c.13-.7.32-1.72-.17-2.13s-1.22,0-2.2.28c-1.41.47-2.91.6-4.36,1a29,29,0,0,1-7,.88,19.45,19.45,0,0,1-6.1-.52c-1.41-.4-2.54-.95-3-.47s.17,1.82.5,2.33a10.29,10.29,0,0,0,1.85,1.88c.53.47,1.17,1.79,2,1.77.51,0,.65-.61,1.15-.71.76-.16,1.4,1,2.17,1.76a6.55,6.55,0,0,0,4.13,1.77c.13,1.29.26,2.57.4,3.85l.8.28Z"/><path class="cls-21" d="M172.82,145.06c-1.41.47-2.91.6-4.36,1a29,29,0,0,1-7,.88,19.45,19.45,0,0,1-6.1-.52c-1.25-.36-2.28-.83-2.79-.59.19.28.43.6.71,1a14.47,14.47,0,0,0,4.92,3.82c1.63.88,3.29,2.13,5.18,2.34a6.72,6.72,0,0,0,4.78-1.63c1.63-1.19,3.2-2.47,4.74-3.78.38-.33.8-.62,1.2-.92s1.67-1.16.9-1.81C174.45,144.31,173.4,144.87,172.82,145.06Z"/><path class="cls-3" d="M155.83,151A165.07,165.07,0,0,0,99.15,180a144.92,144.92,0,0,0-13.06,11.71,1.25,1.25,0,0,0,1.77,1.77,154.61,154.61,0,0,1,51.57-34.09,167.76,167.76,0,0,1,17.06-5.92,1.25,1.25,0,0,0-.66-2.41Z"/><path class="cls-3" d="M155.89,152.37a166.83,166.83,0,0,0-45.25,45,148.25,148.25,0,0,0-8.92,15.21c-.73,1.43,1.43,2.7,2.16,1.26a157.11,157.11,0,0,1,38.72-48.34,168.56,168.56,0,0,1,14.55-11c1.33-.9.08-3.06-1.26-2.16Z"/><path class="cls-3" d="M155.72,151.8a178.1,178.1,0,0,0-59.86,41.68,168.44,168.44,0,0,0-13,15.68c-1,1.3,1.22,2.55,2.16,1.26a172.21,172.21,0,0,1,53.55-47.33A181.58,181.58,0,0,1,157,154c1.48-.62.21-2.78-1.26-2.15Z"/><path class="cls-3" d="M171.87,152.19a161.65,161.65,0,0,1,59.72,19.1,146.76,146.76,0,0,1,14.48,9.25c1.3,1,2.55-1.22,1.26-2.15a157.11,157.11,0,0,0-57.5-25.64,173.13,173.13,0,0,0-18-3.06c-1.59-.19-1.58,2.31,0,2.5Z"/><path class="cls-3" d="M171.08,153.28a164.09,164.09,0,0,1,51.27,36.56,143.59,143.59,0,0,1,11,13.23c.94,1.29,3.11,0,2.16-1.26a159.43,159.43,0,0,0-46.84-42.1,168.41,168.41,0,0,0-16.35-8.58c-1.45-.67-2.72,1.48-1.26,2.15Z"/><path class="cls-3" d="M171.45,152.82a176.7,176.7,0,0,1,64.92,30.82,164,164,0,0,1,15.27,13.22c1.16,1.12,2.92-.64,1.77-1.77a175.15,175.15,0,0,0-61.18-38.51,178.79,178.79,0,0,0-20.11-6.17c-1.56-.39-2.23,2-.67,2.41Z"/><path class="cls-5" d="M72.11,194.65a14.34,14.34,0,0,1-.88-5.38,12.62,12.62,0,0,1,2.17-5.74c2.81-4.38,7.16-7.75,12-8.3,7-.79,10.65,11.27,10.28,17.44-.09,1.53-.47,3.24-1.66,4-1.69,1.11-3.82-.24-5.79-.26-2.58,0-4.66,2.22-6.42,4.3-2.5,3-3.91,5.48-6.6,1.39A30.84,30.84,0,0,1,72.11,194.65Z"/><path class="cls-3" d="M85.41,175.23a15.4,15.4,0,0,0-8.49,4.12,14.84,14.84,0,0,0,4.52,2.59c1.14.4,2.42.15,3.52.54s1.46,1.62,2.2,1.86c.35.12.67-.2.94-.46a3.68,3.68,0,0,1,5.52,1c.28.53.48,1.2,1,1.44a1.07,1.07,0,0,0,.39.07C93.7,180.63,90.43,174.67,85.41,175.23Z"/><path class="cls-4" d="M187.34,180.72c-5.21-1.72-8.87,2-12.37,5.57-5.3,5.35-6.31,14.16-6.37,21.64a72.9,72.9,0,0,0,4.55,27.28,39.52,39.52,0,0,0,8,13.26c3.53,3.66,8.15,6.21,13,6.42,5.51.23,10.9-2.62,14.76-6.95s6.26-10,7.59-15.9a25.67,25.67,0,0,0,.66-9.19,12,12,0,0,0-4.09-7.83c-2.93-2.27-6.9-2.28-10-4.33s-4.87-6-5.86-9.82-1.41-7.9-2.7-11.65S190.84,181.88,187.34,180.72Z"/><path class="cls-3" d="M196.43,198.09l.17,0a70.13,70.13,0,0,0-2.07-8.9c-1.28-3.75-3.69-7.34-7.19-8.5-5.21-1.72-8.87,2-12.37,5.57-5.3,5.35-6.31,14.16-6.37,21.64,0,.9,0,1.79,0,2.68a5.76,5.76,0,0,1,4.8.35,5.08,5.08,0,0,1,7.31-3.33,5.47,5.47,0,0,1,7.58-4.22,4.06,4.06,0,0,1,5.79-3.19C193.51,199.06,195.14,197.91,196.43,198.09Z"/><path class="cls-8" d="M217.15,222.85l-.06-.37c-.81,3.18-2.94,5.9-5,8.48-2.58,3.2-5.23,6.43-8.63,8.74s-7.71,3.61-11.68,2.54c-4.78-1.29-8-5.63-10.45-10a66.36,66.36,0,0,1-7.82-24.15c-.77-6.39-.51-13.22,2.79-18.74a16,16,0,0,1,8.49-6.88,39.68,39.68,0,0,1,4.49-.85,8.14,8.14,0,0,0-1.92-.94c-5.21-1.72-8.87,2-12.37,5.57-5.3,5.35-6.31,14.16-6.37,21.64a72.9,72.9,0,0,0,4.55,27.28,39.52,39.52,0,0,0,8,13.26c3.53,3.66,8.15,6.21,13,6.42,5.51.23,10.9-2.62,14.76-6.95s6.26-10,7.59-15.9A25.67,25.67,0,0,0,217.15,222.85Z"/></g></g></svg>