<svg xmlns="http://www.w3.org/2000/svg" viewBox="0 0 1124.57 1175.7"><defs><style>.cls-1{fill:#72372b;}.cls-2{fill:#ad917f;}.cls-3{fill:#d2b49c;}.cls-4{fill:#f9f5c3;}.cls-5{fill:#535353;opacity:0.2;}.cls-6{fill:#897165;}.cls-7{fill:#84716c;}.cls-8{fill:#dcc4b0;}.cls-9{fill:#c4ae9d;}.cls-10{fill:#f1e2d6;}.cls-11{fill:#dec4b1;}.cls-12{fill:#6e7172;}.cls-13{fill:#b69e8c;opacity:0.23;}.cls-14{fill:#6e7273;}.cls-15{fill:#b4e2ed;}.cls-16{fill:#fffeff;}.cls-17{fill:#f1a7af;}.cls-18{fill:#fff;}</style></defs><g id="Layer_2" data-name="Layer 2"><g id="Layer_1-2" data-name="Layer 1"><path class="cls-1" d="M342.29,605.34C331.65,604,322,611.19,313.8,618.06c-9.51,8-19,16.21-25.85,26.57s-10.72,23.24-7.87,35.31c2.63,11.16,10.78,20.45,20.5,26.53s20.95,9.32,32.16,11.73c41.63,8.95,84.68,7.56,127.27,8.2,74.71,1.13,151.81,8.29,222.15-16.93,22.57-8.09,46.4-22.5,50.86-46.05,4.51-23.83-12.91-46.21-31.8-61.43C656.54,566,599,549.7,542,542.73c-28.78-3.51-58-4.86-86.73-.63a227.8,227.8,0,0,0-137.51,75.36"/><path class="cls-2" d="M864.9,891.94c18.75-6.8,35.84-16.62,46.67-30.81,11.4-14.94,13.68-38.25.58-51.71-9-9.28-22.78-11.9-35.64-13.39-40.39-4.68-82.24-2.76-120.23,11.73-17,6.5-34.84,17.62-38.61,35.48C714.34,859,722.91,874,733.5,884.92c7.58,7.81,15.42,18.15,26.46,20.89,12.64,3.13,29.33.72,42.14-.57C820.79,903.36,843.89,899.56,864.9,891.94Z"/><path class="cls-2" d="M499.48,950.63A121,121,0,0,0,490,981.72c-3.47,20.52-3,41.84-1.75,62.54,1,16.21,2.91,35.15,13.19,48.45,9.17,11.86,22.24,16.58,30.56,19.59,16.08,5.81,33.42,6.37,50.33,5.88,7-.2,14.29-1,21.28-.22,5.42.6,11.08,3,13.58,7.84,4.13,8,.56,18.51-2,26.46-2.81,8.94-2.83,22.77,9.71,23.42,4.31.23,8.48-1.4,12.38-3.23,18.79-8.83,34.42-22.82,49-37.34,9.38-9.35,45-34.75,30.16-50.44-5.68-6-14.77-10.52-21.92-14.41-6.56-3.56-13.43-6.89-18.62-12.25-11.44-11.79-5-28.34-1.06-42.07,4.75-16.73,10.47-33.45,9.5-51.1-4.69-85.19-118.4-87-167.35-39.39A85.28,85.28,0,0,0,499.48,950.63Z"/><path class="cls-3" d="M329.09,841.22c-3.13,48.45,54.54,91.26,81.48,111.25,85.34,63.35,214.83,70.31,305.75,14.24,62.06-38.27,99.52-128.52,60.91-196C740.78,707,653.52,704,589,708.22a471,471,0,0,0-155.1,37.41C393.65,763,332.4,790,329.09,841.22Z"/><path class="cls-4" d="M35,683c-11.52,13.11-9.4,23-9.4,23,1.51,7,7,7.64,13.58,18.81,2.78,4.68,7.36,12.63,7.31,23,0,2.46-.07,13.33-7.31,21.94C29,781.85,12,780.37,12.05,784.29c.06,3.33,12.33,6.19,20.89,7.31,19,2.51,28.1-2.43,31.34,2.09,3.74,5.21-3.79,18.08-11.49,26.12-11.45,12-19.93,9.74-33.43,20.89C11.67,847.06-3,862.22.56,871c3.13,7.6,19,7.8,70,5.23,35.17-1.78,58.86-3.45,71-4.18,59.58-3.61,53.15,2.39,102.38-1a849.62,849.62,0,0,1,102.37-1c10.22.54,28.1,1.7,30.29,9.4,2.05,7.2-10.61,16.6-13.58,18.8-25.43,18.88-55.49,13.24-85.66,13.58-66.61.76-121,30.53-120.13,34.48.51,2.32,21.17-.28,35.52-2.09,43.49-5.49,49.57-12.15,82.52-15.67,26.55-2.84,26.87,1,62.68-2.09,19-1.65,26.28-3.38,52.23-7.31,74.44-11.29,79.57-6.93,122.22-16.72,26.13-6,55.37-14.62,55.37-14.62,29.48-8.7,35.05-11.84,50.14-14.63,25-4.6,41.91-1.93,64.76,0,23.09,2,48.82,1.66,100.29,1,50.23-.6,46.91-4,143.11-9.4,57.07-3.18,85.61-4.77,90.88-4.18,17.09,1.89,53.16,7.48,87.75-3.14,5.74-1.76,19.92-6.57,19.84-12.53,0-3.32-4.47-4.56-11.49-10.45-5-4.19-13.93-11.71-16.71-21.93-3.39-12.49,3.5-25.06,5.22-28.21,5.67-10.34,12.79-13.74,11.49-19.85-1-4.68-6.16-7.26-8.35-8.35-8.33-4.15-14.35-.69-32.39-1.05-12-.23-13.82-1.85-14.62-3.13-3.38-5.43,4.91-16.07,6.27-17.76,6.25-7.81,10.84-7.61,25.07-17.76,5.71-4.07,2.53-2.36,16.71-13.58,10.69-8.45,14.44-11,16.72-16.71.4-1,3.94-10,0-14.63-4.4-5.19-15.54-2-24,0-17.43,4.2-35.82,3.25-53.28,7.31C974.71,695.2,806,681.92,806,681.92,599.84,665.7,591,697.58,388.11,677.74,388.11,677.74,67.19,646.37,35,683Z"/><path class="cls-5" d="M1041,679.69c-56.71,11.7-167.92,6.51-214.13,3.65a48.12,48.12,0,0,0,2.06-11.87c.73-16.63-7.73-28.45-23-49.09-12.84-17.39-25.64-34.72-49.1-49.1-14.87-9.12-28.54-13.68-47-19.85-15.21-5.08-24.23-8.09-34.47-9.4-30.72-3.93-56.12,9.52-73.12,18.8-7.7,4.2-76.77,42.61-69,72.08,6,22.54,54.73,31.37,60.59,32.38,24.8,4.27,39.29-1,42.83,6.27a6.48,6.48,0,0,1,.13,5.13c-70.83,3.63-121.81,11.46-248.75-1,0,0-21.7-2.12-54.36-4.62-.77-6.63-1.48-14.81-2-25.19-.83-17-.5-27.16-7.73-37.79-6.76-9.94-16.06-14.3-19.88-16-20.41-9.26-40.56-2.68-75.11,9.16-20.82,7.13-40.42,13-51,33.51-2.23,4.31-4.49,8.72-5.18,13.51s.49,10.15,4.17,13.3a12.15,12.15,0,0,0,3,1.83q-11.55-.18-22.8-.18A30.49,30.49,0,0,0,169.42,679c16.07,9.64,22.77,7.58,25.81,29.39,2.63,18.82,7.2,37.87,17.76,53.67s28.07,28,47.08,28c24.8,0,43.91-18.69,64.33-30.05,26.23-14.59,52.8-14.11,80.32-1.68,2.61,1.18,5.33,2.49,8.19,2.29s5.63-2,8-3.84a243.56,243.56,0,0,0,40.85-38.85A190.26,190.26,0,0,0,513.37,757c8.67,4.49,19.18,8.42,29.12,7.62,8.82-.72,15.09-9.33,22.86-9.09-4.74,20.74-11.86,49.55,7.82,65.18,8.28,6.57,19.35,8.3,29.91,8.76,62.39,2.74,120.29-30.32,172.39-64.75,19-12.56,38.5-26.25,49.13-46.4,4.91-9.3,9.7-21.26,20.15-22.42,8.67-1,15.67,6.39,22.31,12.05,32.51,27.65,82,21.81,121.41,5.38C1007.77,705.3,1026.65,694.61,1041,679.69Z"/><path class="cls-2" d="M604.35,724.75c-16.22,24.5-19.63,35.25-20.89,39.69-3.41,11.91-10,35,2.08,48.06,9.84,10.56,27,9.08,35.52,8.35,10.41-.89,18-4,42.83-16.71,18.37-9.4,27.55-14.11,37.61-19.85,15.68-9,20.93-12.43,80.43-51.19,16.56-10.78,27.53-17.92,36.56-32.38,3.78-6.05,9.87-16.05,10.45-29.25.73-16.63-7.73-28.45-23-49.09-12.84-17.39-25.64-34.72-49.1-49.1-14.87-9.12-28.54-13.68-47-19.85-15.21-5.08-24.23-8.09-34.47-9.4-30.72-3.93-56.12,9.52-73.12,18.8-7.7,4.2-76.77,42.61-69,72.08,6,22.54,54.73,31.37,60.59,32.38,24.8,4.27,39.29-1,42.83,6.27C640.4,681.07,626.85,690.76,604.35,724.75Z"/><path class="cls-2" d="M181.52,666c3.48,1.09,7.45,1.06,11.17,1.09,10.29.1,15.62,3.42,16.77,13.54s1,20.26,4.12,30.28c1.22,3.91,11.15,34.05,39.76,45.81,3.13,1.29,29.11,11.45,54.12-3.43,20.8-12.38,27.22-33.92,28.72-38.94,5.07-17-2-16.86-4.42-66.43-.83-17-.5-27.16-7.73-37.79-6.76-9.94-16.06-14.3-19.88-16-20.41-9.26-40.56-2.68-75.11,9.16-20.82,7.13-40.42,13-51,33.51-2.23,4.31-4.49,8.72-5.18,13.51s.49,10.15,4.17,13.3A12.89,12.89,0,0,0,181.52,666Z"/><path class="cls-2" d="M863.35,639.06c-6.35,15.56-8.14,33.29,2,47.63s28.62,22.68,46,23.75a150,150,0,0,0,46.39-4.81c33.34-8.77,60.82-45.46,52.07-80.72C1004.12,602.22,984.18,583,961,579c-38.46-6.61-76.56,19.07-94,52.21C865.69,633.74,864.45,636.37,863.35,639.06Z"/><path class="cls-6" d="M932.39,697.15c10.33-.74,20.64-3.3,28.18-10.75,6.39-6.32,9.1-15.8,6-24.38-2.83-7.95-10.08-13.66-18-16.13-8.4-2.63-15.62.72-23.94-.07-5.77-.55-10.06-4.27-15.37-6A28.7,28.7,0,0,0,895.8,639a24.22,24.22,0,0,0-19.28,16.21c-3.48,10.72-1.14,24.75,8.08,32,10.44,8.19,24.91,10.12,37.77,10.25C925.65,697.45,929,697.4,932.39,697.15Z"/><path class="cls-6" d="M914,617.59a18.3,18.3,0,0,0,8.28-8.76,7.79,7.79,0,0,0,.83-4.11c-.35-2.8-3.07-4.82-5.85-5.25s-5.59.4-8.23,1.35c-5.23,1.87-10.68,4.63-13,9.65a16.67,16.67,0,0,0-1.39,6.95c0,3.76,1.36,12.71,6.65,10.63,2.43-1,3.54-4.83,5.37-6.51C908.69,619.61,911.49,618.87,914,617.59Z"/><path class="cls-6" d="M928.62,630.15a9.54,9.54,0,0,0,5.27,1.63,24.12,24.12,0,0,0,14.6-3.8,10.21,10.21,0,0,0,3.48-3.4c1.39-2.51,1-5.79,2.68-8.11,1-1.31,2.44-2.11,3.62-3.23,3.3-3.13,3.69-8.64,1.4-12.57s-6.82-6.24-11.36-6.52c-4-.24-8.66,1.36-10.95,4.81-2.6,3.92-.18,8.56-2.18,12.54C932.67,616.51,920,623.5,928.62,630.15Z"/><path class="cls-6" d="M963.24,626.54A7.49,7.49,0,0,1,964,626c1.42-.92,3.15-1.87,3.8-3.55.71-1.84-.22-3.74,1.29-5.43a5.91,5.91,0,0,1,2.16-1.41c4.36-1.84,11.46-3,15.53.11a10.87,10.87,0,0,1,3.12,4.23c2.3,4.94,4.47,12.65-1,16.37-1.48,1-2.63,1.66-2.74,3.66-.17,3-.85,5.13-3.67,6.66a13.35,13.35,0,0,1-6.87,1.31c-3.48-.12-7.13-1.06-9.52-3.59s-3.5-6.66-4.53-9.92C960.56,631.41,960.87,628.51,963.24,626.54Z"/><path class="cls-7" d="M769.83,282.9c7.82-8.68,10.67-16.88,16.22-32.84,28.15-81-7.16-167.56-49.88-235.91-3-4.87-6.35-9.94-11.4-12.6C710.14-6.17,698.56,17,691.16,25.94c-13,15.71-25.52,32.39-40.9,45.8-14.76,12.88-30.9,24.16-45,37.87-28.67,27.76-73.48,72.81-60.67,117.51,7.89,27.56,38.22,41.16,80.51,60.11,17.3,7.76,26,11.64,38.48,14.56C672.93,304,737.39,319,769.83,282.9Z"/><path class="cls-8" d="M758.16,268a15.71,15.71,0,0,0,2.66-1.68c3.6-2.78,6-6.82,8.11-10.9,8.61-17,12.74-36.63,13.93-55.62A264.56,264.56,0,0,0,767.35,93.3,254.7,254.7,0,0,0,749.7,55.37c-5.35-9.37-10.46-23.95-18.87-30.75-3.65-3-10.05-6.8-14.63-4.06-2.72,1.62-3.66,5.05-4.54,8.12-4.39,15.26-14.84,27.46-19.56,42.5-4.06,12.93-6,26.51-11.79,38.87a138,138,0,0,1-31.9,43.37c-11.35,10.41-24.74,15.74-30,31.34-.92,2.74-7.4,22,1.77,34s24.85,5.41,49,9.4c19.64,3.24,36.57,12.74,52.43,24.54C730.85,259.54,745.72,274.18,758.16,268Z"/><path class="cls-9" d="M767.35,93.3A254.7,254.7,0,0,0,749.7,55.37c-5.35-9.37-10.46-23.95-18.87-30.75-3.65-3-10.05-6.8-14.63-4.06-2.72,1.62-3.66,5.05-4.54,8.12-4.39,15.26-14.84,27.46-19.56,42.5-4.06,12.93-6,26.51-11.79,38.87a138,138,0,0,1-31.9,43.37c-11.35,10.41-24.74,15.74-30,31.34a59.77,59.77,0,0,0-2.88,13.31c24.39-9.24,47.43-32.4,61.56-52.19a153,153,0,0,0,23-47.93c3.81-13.8,6.1-28.89,15.66-39.43,3.51-3.87,8.85-7.08,13.7-5.2,3.17,1.23,5.22,4.29,7.09,7.15a448.26,448.26,0,0,0,27.23,37.28c2.13,2.62,4.5,5.34,7.4,6.86C770,100.79,768.72,97,767.35,93.3Z"/><path class="cls-7" d="M109.86,344c-9.28-7.1-13.58-14.64-22-29.31-42.54-74.49-23.7-166,5.75-241.06,2.1-5.35,4.43-10.93,8.9-14.47,13-10.28,28.61,10.4,37.52,17.81,15.71,13,31,27.15,48.61,37.52,16.87,9.94,34.8,18.07,51.13,29,33.28,22,85.59,58.08,81.2,104.37-2.7,28.55-30,47.48-68.11,73.87C237.3,332.48,229.5,337.88,217.73,343,209,346.87,148.37,373.45,109.86,344Z"/><path class="cls-8" d="M118.6,327.19a16.73,16.73,0,0,1-2.92-1.16c-4.05-2.08-7.18-5.6-10-9.23-11.59-15.13-19.25-33.67-23.91-52.12a264.51,264.51,0,0,1-4.29-107.57A254.52,254.52,0,0,1,87.91,116.6c3.54-10.2,5.89-25.47,12.91-33.7,3.05-3.57,8.63-8.52,13.64-6.67,3,1.09,4.52,4.3,6,7.15,7.12,14.2,19.63,24.27,27,38.19,6.37,12,10.8,25,18.72,36.05a138.08,138.08,0,0,0,39.31,36.78c13.07,8.15,27.22,10.93,35.24,25.31,1.41,2.52,11.32,20.27,4.5,33.71-6.73,13.27-23.44,9.88-46.45,18.23-18.72,6.8-33.62,19.24-47,33.74C143.89,313.84,132,331,118.6,327.19Z"/><path class="cls-9" d="M77.52,157.11A254.52,254.52,0,0,1,87.91,116.6c3.54-10.2,5.89-25.47,12.91-33.7,3.05-3.57,8.63-8.52,13.64-6.67,3,1.09,4.52,4.3,6,7.15,7.12,14.2,19.63,24.27,27,38.19,6.37,12,10.8,25,18.72,36.05a138.08,138.08,0,0,0,39.31,36.78c13.07,8.15,27.22,10.93,35.24,25.31A59.64,59.64,0,0,1,246,232.26c-25.67-4.6-52.56-23.14-70.09-40a153,153,0,0,1-31.41-42.9c-6.27-12.86-11.3-27.27-22.63-35.88-4.16-3.16-10-5.34-14.42-2.6-2.89,1.79-4.34,5.17-5.66,8.33a445.28,445.28,0,0,1-19.93,41.64c-1.61,3-3.44,6.07-6,8.1C76.29,165,76.85,161,77.52,157.11Z"/><path class="cls-10" d="M832.89,414.39c-6-52.95-22.53-90.51-29-104.27-5.86-12.42-13.63-28.62-27.93-47.18a217.48,217.48,0,0,0-53.48-49.46c18.93,1.13,23.26-.46,23.59-2.18.7-3.66-15.8-12.58-33.18-15.76-13.13-2.41-24.45-1.12-24.75-3.29s12.13-4.64,11.87-7.38c-.28-3-15.64-4.37-26.85-4.49-15.41-.17-25.31,2-25.75.29-.58-2.34,17.43-7.9,16.93-9.94-.54-2.22-22.72.18-46.27,7.07-16.19,4.74-16.58,6.79-31.4,10.58A196.19,196.19,0,0,1,548.18,194c-19.29.92-28.72-1.52-44.54-2.86A350,350,0,0,0,386.34,202c-15.31,4.21-24.14,8.34-43.26,11a196.44,196.44,0,0,1-38.85,1.51c-15.26-1-16-2.95-32.81-4.64-24.41-2.46-46.65-.74-46.78,1.54-.11,2.1,18.61,4.26,18.46,6.66-.11,1.76-10.24,1.45-25.36,4.44-11,2.17-25.84,6.34-25.57,9.34.25,2.74,12.92,2.76,13,5.07s-11.27,3-23.74,7.78c-16.5,6.32-31.08,18.12-29.72,21.58.64,1.63,5.19,2.4,23.59-2.18a217.5,217.5,0,0,0-43.5,58.43C121.18,343.4,116.52,360.75,113,374c-3.87,14.72-13.2,54.67-9.41,107.83,1.79,25.1,3.45,48.33,15,76.74,12.32,30.2,29,49.34,38.13,59.72,28.14,31.95,57.56,47.12,75.69,56.24,33.72,17,62.19,22.62,83.53,26.68,10.51,2,32.91,3.64,77.28,6.81,37.39,2.65,75,3.77,112.28-.6,35-4.11,69-13.58,103.05-22.54C627.15,680,646.43,676,664.37,669c20.23-7.91,47.18-18.68,77.22-41.55,16.14-12.29,42.28-32.6,64.08-69.18,7.09-11.88,20-33.74,26.53-65.7C838.37,462.53,835.74,439.4,832.89,414.39Z"/><path class="cls-11" d="M832.2,492.58c6.17-30.05,3.54-53.18.69-78.19a350.26,350.26,0,0,0-6.44-37.9C822.1,368,816.8,358,810.19,347.44c-11.8-18.9-22.76-36-43-49a104.79,104.79,0,0,0-30.79-13.18c12.83-2.13,15.67-4,15.67-5.28,0-2.93-14-6.11-26.39-6.61-14.88-.6-26.86,2.65-27,2.15-.14-.7,23.39-4.06,23.32-8.08,0-3.09-14-6.45-27-5.52a59.11,59.11,0,0,0-15.18,3.15l7.88-7.7L656,256.17c-21,.37-36.2,4.89-46,8.78-18.8,7.5-28.2,11.24-34.17,17.09-2.6,2.55-6.76,7.17-12.63,7.21-4.91,0-8.75-3.17-13-6.69-6.88-5.73-6.62-8.66-13.22-14.1-3.84-3.18-7.48-6.17-12.58-7.2-11.16-2.24-20.69,6.65-22,4.82s9.17-10.75,8-12.35-13.23,3.27-24,12.9c-10,9-8.91,13.16-17.52,18.81-10.08,6.62-20.76,6.84-24.12,6.87-7.74.07-10.46-1.88-29.61-7.94-13.89-4.39-20.84-6.59-27.3-7.69-17.8-3-35.46-1.32-35.67,1-.11,1.27,9.12,2.15,9.07,3.8-.09,2.88-28.05,3.56-28.21,7.26-.07,1.63,5.33,2.27,5.47,4.6.16,2.78-7.43,4.25-15.27,8.38-5.16,2.71-10.8,8.22-22.06,19.22-12,11.74-11.91,12.94-16.86,16-8.71,5.31-17.05,6.47-22.71,7.21-12.57,1.63-18-.9-33.2-2-16.65-1.26-15,1.48-31.12.56-11-.63-22.63-2.25-23.35.3-.45,1.62,4,3.2,3.78,6.15-.08,1.11-.85,2.89-9.9,6.95-5.59,2.51-9.14,3.55-15.44,6.54-5.14,2.44-7.9,4.17-7.71,5.82s2.93,1.88,3.06,3.43c.18,2.05-4.43,3.76-7.3,5.32-4.71,2.57-7.29,6.43-12.44,14.16a316.4,316.4,0,0,0-24.61,44.23,349.74,349.74,0,0,0,.23,46.35c1.79,25.1,3.45,48.33,15,76.74,12.32,30.2,29,49.34,38.13,59.72,28.14,31.95,57.56,47.12,75.69,56.24,33.72,17,62.19,22.62,83.53,26.68,7.33,1.4,20.46,2.62,42.78,4.3-7.85-2.51-16.29-3.87-21.77-5.41-36.73-10.3-75.16-21.79-108.63-41.86-9.93-6-19.57-10.09-26-20.55-2.22-3.61-6.13-10-4.2-15.63,2.66-7.82,15.71-12.39,32.77-10q-7.31-7.56-5.79-10.61c1.5-3,10.69,1.27,27,1.68a118.26,118.26,0,0,0,13-.5c26.21-1.46,58.65,20.53,67.09,26.53,16.59,11.8,22.6,20.3,37.82,22.27a49,49,0,0,0,17.1-.88A51.55,51.55,0,0,1,373.6,637.9c-10.4-14.12-10.34-29.47-10.07-34.59.15-3,1.26-19.75,13.42-33.29,9.43-10.49,15.09-7.44,29.7-20.86,6.39-5.86,12.6-11.57,16.62-21,4.92-11.6.3-14.13,4.82-29.7A79.34,79.34,0,0,1,442.7,470.6a77.16,77.16,0,0,1,12.62-12.32l-4.92-97.76,8.16,13.88L465.35,355q2.86,14.19,5.72,28.38l5.07-26.94q4.77,45.89,9.53,91.76a104.94,104.94,0,0,0,6.35,9.17c8.38,10.87,12.58,12,16.54,19,4.45,7.84,1.54,10.59,4.95,20.09,3.63,10.12,10.24,16.2,16.83,22.12,32.29,29,38.42,31.58,44.9,39.39,9,10.79,17.29,30.07,11.72,67.18,6.33-4.57,15.4-11,26.48-18.47,20.2-13.63,31.53-21.27,45.49-28.59A255.55,255.55,0,0,1,710,558l-4.43,11.55c8.21-2,15.29-3.53,20.88-4.72,12.39-2.63,16.79-3.27,22.43-2.77,6.3.56,12.63,1.12,15.64,5.52,4.55,6.63-1.3,17.77-3.47,21.92-8.74,16.66-23.51,25.15-31,29.33,0,0-64.08,35.83-64.07,35.88s19.29-8.22,89.32-38.12a223.4,223.4,0,0,0,50.33-58.33C812.76,546.4,825.63,524.54,832.2,492.58Z"/><path class="cls-3" d="M451.27,378c-3.88-11.43-8.76-24.12-14.57-39.15-7-18-13.37-32.39-17.6-41.56,18.23,69.37,23.86,122.31,19,139a57.82,57.82,0,0,1-13,22.8c-5.2,5.15-11.9,9.28-13,8.17s1.38-5.39,3.94-9.42c-2.74,10.67,6.51-21.16,8-32.09,2.29-16.42-1.79-29.45-9.94-55.51-5.38-17.16-12.85-36.14-15-35.53-2.31.66,6.17,23.17,2.26,54.13-1.66,13.11-3.38,25.48-12.49,36-2.84,3.27-9.63,10.09-36.22,17.28-19.23,5.2-27.85,4.93-65.81,9.57-28,3.42-41.94,5.13-44.87,5.55-31.71,4.46-44.08,7.4-53.69-.61-6.29-5.24-8.53-12.76-10.85-20.59-6-20.25.07-35.45-3.38-36.6-3.12-1-9.58,10.87-15.81,22.36-6.83,12.57-10.24,18.86-11.83,28.26s-.75,17.38-2.49,17.64c-2,.3-4-10.08-6.41-9.85s-3.55,11.18-3.73,19.15c-.34,14.63,2.38,25.29,1,25.68s-4.13-10.16-6.42-9.85c-2.91.38-4.32,18.36-1.51,35.66,1.37,8.42,4.07,24,15.36,39.68,7.76,10.8,22.38,25.6,27.53,22.53,6.67-4-10.45-33.43-.07-67.56,2.25-7.38,4.46-10.63,7.23-11.12,7.74-1.38,12.28,20,30.29,37.6,9.11,8.89,21,13.83,44.83,23.71,29.47,12.24,48.51,14.48,55,15.11,6,.58,11,.73,14.51.75,1,8.57,3.64,24.84,11.95,41.11,15.55,11.28,21.67,19.37,36.46,21.28a49,49,0,0,0,17.1-.88A51.55,51.55,0,0,1,373.6,637.9c-10.4-14.12-10.34-29.47-10.07-34.59.15-3,1.26-19.75,13.42-33.29,9.43-10.49,15.09-7.44,29.7-20.86,6.39-5.86,12.6-11.57,16.62-21,4.92-11.6.3-14.13,4.82-29.7A79.34,79.34,0,0,1,442.7,470.6a77.16,77.16,0,0,1,12.62-12.32Z"/><path class="cls-3" d="M817.09,476.59c1.35-11,.36-19-.78-28.25-.48-3.87-1.83-14.39-4.09-14.48-2.05-.08-3.37,8.51-4.73,8.33s-.12-10.65-2.63-23.44c-2-10.31-6.21-20.43-8.73-20.09-1.93.26-1.58,6.49-3.49,6.82-3,.53-6.18-14.91-14.18-29.33-10.76-19.39-27.18-31.25-28.89-29.84-1,.85,4.06,5.87,6.53,16.11,2.92,12.09,0,22.55-1.53,28-1.89,6.55-5,17.43-13.32,24.45-10,8.43-21.94,6.68-37,6.67-39.14,0-37.25,11.85-79.07,12.43a172.53,172.53,0,0,1-53.38-7.14c-18.87-5.74-27.33-12.11-29.71-14-13.15-10.27-19.28-22.54-23.52-31.26a114.06,114.06,0,0,1-11.25-47.25,201.59,201.59,0,0,0-4.23,38.47c-.24,17.27-.37,27.26,3.66,39.6,6.54,20,19.4,32,15.72,36.16-1.38,1.57-4.35,1.21-8.18.75A29.57,29.57,0,0,1,501,443.61c-9.66-7.64-10.42-28.24-12.56-56.42-2.73-36.12-3.73-32-3.59-43.78.37-30.93,7.11-52.62,5.64-53-1.14-.29-5.91,12.35-9.84,27.38-1.79,6.81-6.28,25.15-7.74,56.08q1.63-8.75,3.28-17.47,4.77,45.89,9.53,91.76a104.94,104.94,0,0,0,6.35,9.17c8.38,10.87,12.58,12,16.54,19,4.45,7.84,1.54,10.59,4.95,20.09,3.63,10.12,10.24,16.2,16.83,22.12,32.29,29,38.42,31.58,44.9,39.39,9,10.79,17.29,30.07,11.72,67.18,5.18-3.74,12.24-8.75,20.7-14.54a65.2,65.2,0,0,0,1.07-17.66c-.83-10.35-.91-18.71,1-19.13,1.72-.38,4.42,5.87,5.1,5.56,1.23-.55-9.86-19.88-4.65-25.57,3.51-3.84,11.47,1.77,26.83,2.62,9.41.53,16.12-1,25.82-3.31C693,546,713.27,529.76,722.74,522c12.1-9.92,18-17.64,19.7-19.93a98.12,98.12,0,0,0,13-23c6.14-15.54,5.2-25.32,9.07-25.92,3-.47,6.19,5.11,10.32,12.51,5.1,9.15,8.9,16,11.73,27.71,5.82,24.09.43,39.38,4.21,40.48,4.38,1.28,13.56-18.74,16.09-24.25C810.86,500.84,815.35,490.85,817.09,476.59Z"/><path class="cls-12" d="M419.1,297.24c5.64,21.45,10.06,41.32,13.35,59A516.63,516.63,0,0,1,447,427.15c1.61,12.11,2.62,25.16-3.2,35.84-1.9,3.49-4.46,6.56-6.34,10.05a17.51,17.51,0,0,0-2.35,8.73,79.42,79.42,0,0,1,7.6-11.17,77.16,77.16,0,0,1,12.62-12.32L451.27,378c-3.88-11.43-8.76-24.12-14.57-39.15C429.74,320.8,423.33,306.41,419.1,297.24Z"/><path class="cls-12" d="M495.18,452.2c-3.29-6.12-1.87-13.5-1.33-20.51-3.22-10.46-4-25.79-5.46-44.5-2.73-36.12-3.73-32-3.59-43.78.37-30.93,7.11-52.62,5.64-53-1.14-.29-5.91,12.35-9.84,27.38-1.79,6.81-6.28,25.15-7.74,56.08q1.63-8.75,3.28-17.47,4.77,45.89,9.53,91.76a104.94,104.94,0,0,0,6.35,9.17c8,10.35,12.17,11.91,16,18.07-.62-5.39-5.39-13.7-7.08-15.83C499,457.13,496.67,455,495.18,452.2Z"/><path class="cls-13" d="M830,469.1c-6.56,31.95-19.44,53.82-26.52,65.7-21.8,36.57-47.94,56.88-64.09,69.18-30,22.87-57,33.64-77.21,41.55-18,7-37.22,11-55.76,15.9-34.08,9-68,18.42-103.05,22.54-37.25,4.37-74.89,3.25-112.28.59-44.37-3.17-66.77-4.79-77.28-6.8-21.34-4.07-49.81-9.71-83.54-26.68-18.12-9.13-47.54-24.29-75.69-56.25-9.14-10.37-25.81-29.51-38.12-59.71a187.22,187.22,0,0,1-12.55-49c1.7,23.5,3.79,45.68,14.72,72.48,12.32,30.2,29,49.34,38.13,59.72,28.14,31.95,57.56,47.12,75.69,56.24,33.72,17,62.19,22.62,83.53,26.68,10.51,2,32.91,3.64,77.28,6.81,37.39,2.65,75,3.77,112.28-.6,35-4.11,69-13.58,103.05-22.54C627.15,680,646.43,676,664.37,669c20.23-7.91,47.18-18.68,77.22-41.55,16.14-12.29,42.28-32.6,64.08-69.18,7.09-11.88,20-33.74,26.53-65.7C838,464.24,836,442,833.37,418.63A186.81,186.81,0,0,1,830,469.1Z"/><path class="cls-14" d="M520.9,456.16c-3.57,4.58-5,8.95-6.53,13.61-1.07,3.25-2.92,8.89-1.38,9.88,2.24,1.44,8.66-8.9,14-7.33,2.49.73,3.92,3.83,4.77,7,2.27,8.36,12.93,19,18.64,25.32a105.61,105.61,0,0,0,55,32A132,132,0,0,0,655.45,538a124.5,124.5,0,0,0,49.63-18.53c13.85-9,26.47-20.58,35.76-34.38a76.93,76.93,0,0,0,10.73-22.34c1.43-5.19,1.31-14.94,7.16-17.43.93-.4,3.22-.36,7.77-.26,9.77.22,11.81,1.08,12.4.25,1.18-1.67-4.25-9-31.46-32.85-26,2.48-53.08,5.7-81.15,9.83-28.82,4.24-50,9.78-96.95,17.33-12.74,2.05-23.28,3.63-30.4,4.67A35.13,35.13,0,0,0,520.9,456.16Z"/><path class="cls-15" d="M536.2,458l34.24-6.42a57,57,0,0,0,10,14.4,58.65,58.65,0,0,0,28.06,16c16.82,4.41,30.65.5,37.9-1.65,6.7-2,16.23-4.82,25.38-13,13.64-12.24,17.26-28.22,18.34-34.67l39.24-6.88,10.78,12.47a81.86,81.86,0,0,1-7.5,23c-7.37,14.75-17.29,23.28-23.06,28.14-12.32,10.38-23.77,15.1-33.1,18.85-11.73,4.72-27.7,11-49.44,10.62C586,518.12,553.92,495,536.2,458Z"/><path class="cls-16" d="M690.6,484.35c5.56,2.27,12.12-5.74,14.9-9.64a10.22,10.22,0,0,0,1.78-3.45c1.12-4.68-5.22-9.63-8.16-12.54-9.83-9.73-26-21.49-40.56-16.2,1.79,2.57,4.86,4.17,7.29,6a83,83,0,0,1,7.79,6.61,55.76,55.76,0,0,1,11.92,16.68C686.86,474.82,687.2,483,690.6,484.35Z"/><path class="cls-14" d="M419.28,465.57c4.35,3.84,6.57,7.87,8.92,12.17,1.65,3,4.5,8.21,3.17,9.46-1.94,1.82-10.15-7.16-15.1-4.64-2.31,1.18-3.15,4.49-3.41,7.75-.69,8.63-9.22,21.06-13.67,28.31A105.71,105.71,0,0,1,351,560.12a132.39,132.39,0,0,1-49,10.56,124.35,124.35,0,0,1-52.19-9.1c-15.26-6.3-29.79-15.37-41.46-27.24a77.3,77.3,0,0,1-14.65-20c-2.35-4.84-4-14.45-10.23-15.83-1-.21-3.23.25-7.68,1.18-9.57,2-11.42,3.23-12.15,2.52-1.46-1.42,2.52-9.63,24.9-38.06,26-2.34,53.23-4.14,81.57-5.23,29.12-1.12,51,.44,98.49-.75,12.9-.33,23.55-.71,30.74-1A35.09,35.09,0,0,1,419.28,465.57Z"/><path class="cls-15" d="M404.58,470.18l-34.84,0a56.8,56.8,0,0,1-7.23,16A58.56,58.56,0,0,1,337.85,507c-15.72,7.43-30,6.12-37.55,5.33-6.95-.72-16.84-1.76-27.34-8.15-15.66-9.53-22.15-24.57-24.39-30.72l-39.84.44-8.31,14.24A82.08,82.08,0,0,0,212,509.35c10,13.15,21.27,19.71,27.84,23.43,14,8,26.13,10.48,36,12.46,12.39,2.49,29.24,5.7,50.55,1.36C366.7,538.4,394,509.78,404.58,470.18Z"/><path class="cls-16" d="M257.63,524.41c-5,3.24-13-3.43-16.41-6.74a10,10,0,0,1-2.38-3.08c-2-4.39,3.37-10.42,5.72-13.82,7.88-11.36,21.63-25.89,36.9-23.36-1.29,2.85-4,5-6.06,7.28A84.48,84.48,0,0,0,269,492.6a55.9,55.9,0,0,0-8.66,18.6C259.56,514.35,260.72,522.42,257.63,524.41Z"/><path class="cls-14" d="M386.34,634.28c3.55,1.2,24.71-38.37,27-41.55,11-15.06,24.72-28.34,41-37.32,13.35-7.35,28.77-12.45,44.15-11a47.23,47.23,0,0,1,23.57,9.36c2.53,1.87,17.23,17.71,18.92,16.68.62-.38.63-1.27.54-2-5-40-58.2-34.36-84.4-23.74-.79.32-1.58.65-2.36,1-19,8.33-34.53,23.44-46,40.74C406.25,590.43,381.81,631.74,386.34,634.28Z"/><path class="cls-14" d="M481.66,541.59,480.43,529a83.66,83.66,0,0,0,11.23-8.64,67.5,67.5,0,0,0,5.78-6.22l.77-1s-.74,1-.77,1,.26-.84.77-1c1.07-.34,2,2.51,3.7,2.79s3.63-2.42,5.38-5a20.81,20.81,0,0,0,3.7-8.35c.42-2.38,1-5.86-.67-7.25s-4.17-.1-7.47,1c-4.8,1.65-9.91,2.15-14.81,3.46a100.54,100.54,0,0,1-23.77,3.24c-9.4.16-14.21.24-20.77-1.56-4.82-1.32-8.69-3.14-10.11-1.5-1.66,1.92.64,6.21,1.8,7.94,1.68,2.51,4.12,4.34,6.35,6.31,1.82,1.6,4,6.07,6.79,6,1.73-.07,2.19-2.08,3.89-2.45,2.57-.55,4.79,3.34,7.43,5.93,2.46,2.41,6.64,5.09,14.13,5.89q.75,6.54,1.51,13.08l2.73.94Z"/><path class="cls-17" d="M502.85,496.38c-4.8,1.65-9.91,2.15-14.81,3.46a100.54,100.54,0,0,1-23.77,3.24c-9.4.16-14.21.24-20.77-1.56-4.28-1.17-7.81-2.73-9.54-1.92.66,1,1.5,2,2.44,3.27,4.43,5.69,10.62,9.56,16.9,12.83,5.61,2.92,11.3,7.13,17.74,7.77s11.31-2.08,16.22-5.73c5.52-4.1,10.8-8.52,16-13,1.3-1.13,2.71-2.13,4.06-3.19,1.54-1.21,5.65-4,3-6.17C508.37,493.74,504.8,495.7,502.85,496.38Z"/><path class="cls-18" d="M445,516.55Q418.56,524.47,393,534.9q-25.83,10.53-50.59,23.46-23.94,12.55-46.56,27.41A536.1,536.1,0,0,0,252,617.9a488.68,488.68,0,0,0-38.86,35.19c-1.51,1.51-3,3-4.48,4.57a5,5,0,0,0,7.08,7.07,488.76,488.76,0,0,1,38.16-35.49q5.07-4.25,10.25-8.35l2.4-1.89,1.29-1,.65-.5c.37-.29.66-.51.12-.09,1.72-1.33,3.46-2.65,5.2-4q10.68-8,21.75-15.49,22.2-15,45.8-27.72,12-6.47,24.26-12.36,6.07-2.91,12.21-5.68,3.18-1.43,6.36-2.82l2.91-1.26,1.55-.66.78-.33c.88-.38-.39.16.17-.07q25.33-10.63,51.6-18.86,3.25-1,6.52-2a5,5,0,0,0-2.66-9.65Z"/><path class="cls-18" d="M445.11,521.21q-23.16,16-44.74,34.07-21.09,17.7-40.44,37.4-19,19.35-36.07,40.5a539.8,539.8,0,0,0-32,44,493.77,493.77,0,0,0-26.52,45.71q-1.45,2.83-2.86,5.69c-1.16,2.34-.71,5.52,1.79,6.84,2.26,1.19,5.61.71,6.84-1.79A495.45,495.45,0,0,1,296.77,688q7.07-11.15,14.69-21.92,3.84-5.43,7.8-10.75,2-2.7,4.08-5.39l1-1.3c.45-.59-.49.62,0,0l.5-.65c.71-.92,1.43-1.84,2.15-2.75q16.62-21.12,35.26-40.56,18.88-19.73,39.61-37.56,10.47-9,21.35-17.52l1.17-.9.66-.52c.6-.47-.6.46,0,0,.95-.73,1.9-1.46,2.86-2.18,1.79-1.37,3.6-2.73,5.41-4.07q5.61-4.17,11.32-8.2c1.85-1.31,3.71-2.6,5.57-3.89,2.15-1.48,3.33-4.45,1.79-6.84-1.37-2.13-4.53-3.38-6.84-1.79Z"/><path class="cls-18" d="M444.51,519.26a608.48,608.48,0,0,0-109.1,61.91,617.31,617.31,0,0,0-49.34,39.13A586.13,586.13,0,0,0,242,663.42a576.52,576.52,0,0,0-39.49,47.91c-1.5,2-3,4.1-4.48,6.16s-.44,5.66,1.8,6.84a5.13,5.13,0,0,0,6.84-1.79q4.44-6.19,9.05-12.27l2.2-2.88.34-.44.35-.45,1.23-1.59c1.57-2,3.16-4,4.76-6q9.6-11.94,19.85-23.35a583.25,583.25,0,0,1,43.23-43.33q11.5-10.39,23.53-20.16,3-2.46,6.06-4.86l2.89-2.28,1.29-1,.81-.63-.2.16.65-.5q6.07-4.69,12.28-9.21a608,608,0,0,1,107.39-62.68c2.39-1.08,4.78-2.14,7.18-3.2s3.14-4.75,1.8-6.84c-1.61-2.49-4.27-2.92-6.84-1.79Z"/><path class="cls-18" d="M499.82,521.43q6.94.74,13.87,1.64l.67.09.45.06.23,0,.89.12,3.56.51c2.22.32,4.45.65,6.67,1q13.61,2.11,27.12,4.9,26.69,5.49,52.77,13.52,25.62,7.91,50.4,18.27l.8.34c-.18-.08-.87-.37,0,0l1.4.6,3.2,1.38c2.07.9,4.12,1.81,6.18,2.73,4,1.82,8,3.68,12,5.59q11.88,5.7,23.44,12A487.14,487.14,0,0,1,748,611.59q2.61,1.8,5.19,3.64c2.14,1.52,5.66.45,6.84-1.8a5.14,5.14,0,0,0-1.79-6.84,488.59,488.59,0,0,0-44.22-28,519,519,0,0,0-47.87-23.69Q641,544,614.82,535.58t-52.76-14.15q-27.52-6-55.52-9.25l-6.72-.75c-2.61-.28-5.11,2.5-5,5,.13,3,2.2,4.7,5,5Z"/><path class="cls-18" d="M496.79,525.06Q522,536.28,546,549.85q23.79,13.42,46.23,29.1,5.61,3.91,11.12,8c1.77,1.31,3.54,2.62,5.3,4l2.63,2,1.32,1,.65.5.13.1q10.64,8.26,20.88,17A528.51,528.51,0,0,1,673,648.05q9,9.44,17.56,19.34,4.31,5,8.47,10.1c1.38,1.7,2.76,3.41,4.12,5.12.62.78,1.23,1.56,1.84,2.35.33.41.66.83,1,1.25l.49.63c.82,1-.63-.82.19.24q1.93,2.52,3.84,5c1.56,2.09,4.39,3.37,6.84,1.8,2.06-1.33,3.47-4.61,1.79-6.85A508.66,508.66,0,0,0,684.77,646a528.51,528.51,0,0,0-38.29-37.15c-13.78-12.09-28.18-23.49-43.07-34.18s-30.3-20.67-46.15-29.88S524.82,526.93,508,519.21q-3.08-1.41-6.16-2.78c-2.38-1.06-5.48-.77-6.84,1.79-1.15,2.18-.76,5.71,1.79,6.84Z"/><path class="cls-18" d="M498.22,523.54a609.15,609.15,0,0,1,60,17.24q14.73,5.07,29.18,10.88,3.66,1.47,7.3,3l1.71.72c-.8-.34-.06,0,.09,0l.85.37,3.84,1.64q7,3,13.94,6.26a601.13,601.13,0,0,1,54.68,28.84,585.71,585.71,0,0,1,51.24,34.25c2,1.5,4,3,6,4.54l.72.56c-.68-.52,0,0,.07.06l1.44,1.12c1.08.84,2.16,1.68,3.23,2.53q6,4.73,11.83,9.62Q756,655,767.17,665.33q2.73,2.55,5.42,5.13a5,5,0,0,0,7.08-7.07A574.8,574.8,0,0,0,732.49,623a582.8,582.8,0,0,0-50.91-35,599.44,599.44,0,0,0-54.46-29.63,618.68,618.68,0,0,0-58.53-24.45,607.79,607.79,0,0,0-60-18.1q-3.86-.94-7.73-1.84c-2.54-.59-5.53.78-6.15,3.49-.58,2.55.77,5.52,3.49,6.15Z"/></g></g></svg>