<svg xmlns="http://www.w3.org/2000/svg" viewBox="0 0 211.66 395.61"><defs><style>.cls-1{fill:#443f3b;}.cls-2{fill:#59534c;}.cls-3{fill:#5ea2b0;}.cls-4{fill:#557e92;}.cls-5{fill:#f7f5f9;}.cls-6{fill:#fff;}.cls-7{fill:#0e0d0d;opacity:0.1;}.cls-8{fill:#84716c;}.cls-9{fill:#dcc4b0;}.cls-10{fill:#c4ae9d;}.cls-11{fill:#f1e2d6;}.cls-12{fill:#dec4b1;}.cls-13{fill:#d2b49c;}.cls-14{fill:#6e7172;}.cls-15{fill:#b69e8c;opacity:0.23;}.cls-16{fill:#6e7273;}.cls-17{fill:#b4e2ed;}.cls-18{fill:#fffeff;}.cls-19{fill:#f1a7af;}</style></defs><g id="Layer_2" data-name="Layer 2"><g id="BG"><path class="cls-1" d="M94.87,135a29.38,29.38,0,0,1,.34-15.25c3.16-10.21,14.86-18.53,22.08-25.95,7.89-8.11,16.4-15.6,24.14-23.87S161.83,49.46,159,36.57a18.42,18.42,0,0,0-8-10.95,36.81,36.81,0,0,0-24.63-6c-9.94,1.21-14.38,8.53-23,12.25C99.54,33.57,94.3,33,92,29.4s-.7-8.72,1.83-12.34C115.54-14,177-.3,177.71,39.51c.21,11.31-4.55,21.77-11,30.81-10.55,14.72-25,28.08-38.77,39.76-7.16,6.08-15.16,11.87-18.12,21.25a30.88,30.88,0,0,0-1.32,10.95l-11.28,5.3Q96,141.28,94.87,135Z"/><ellipse class="cls-2" cx="103.59" cy="209.01" rx="84.02" ry="82.44"/><ellipse class="cls-2" cx="104.96" cy="287.18" rx="69.68" ry="55.52"/><path class="cls-3" d="M1,380.52c1,.38,18.25-29.71,20-32.56L31.33,331.1c4.38-7.13,5.15-9.32,8-12,3.78-3.58,8.1-5.54,16.8-7.89A161.32,161.32,0,0,1,83,306.26a364.46,364.46,0,0,1,63.5,1.86A71,71,0,0,1,166.26,314c7.05,3.32,10,7.77,13.8,14.31q5.2,8.85,10.42,17.7l21.17,36c-.57-1-18.19,5.8-20.21,6.33-28.27,7.43-59.21,6.75-88.23,7.22-22,.35-44.11-.38-65.74-4.54-1.29-.24-2.57-.51-3.86-.77a202.33,202.33,0,0,1-25.33-7.07Q4.56,381.85,1,380.52Z"/><path class="cls-4" d="M181.19,330.19c-6.14,11.15-13,21.88-21.71,31.14-8.35,8.92-18.2,16.29-28.07,23.5a145.26,145.26,0,0,1-15.61,10.32l-.3.15c17.8-.37,35.7-1.05,53.32-3.2,8.9-1.08,18.47-2.12,27-4.9,1.49-.48,15.09-6.21,15.81-5.22l-21.18-36Z"/><path class="cls-5" d="M52,321.35s49.38-22,107.54.27C117.56,330.4,111,338.36,52,321.35Z"/><path class="cls-6" d="M149.94,243.45a1.13,1.13,0,1,1-1.13-1.21A1.17,1.17,0,0,1,149.94,243.45Z"/><path class="cls-7" d="M33,267.31a14.12,14.12,0,0,0-4.73,1.45c1.09.31,3.06-.09,3.84,0a18.18,18.18,0,0,1,7.59,2.37C38,268.62,35.79,267,33,267.31Z"/><path class="cls-8" d="M195.43,188.67c2.4-2.22,3.41-4.43,5.36-8.73,9.93-21.85,2.33-46.86-7.81-67a9.31,9.31,0,0,0-2.85-3.81c-3.88-2.53-7.71,3.64-10,5.93-4,4-7.94,8.37-12.57,11.71-4.44,3.2-9.23,5.93-13.5,9.39-8.7,7-22.34,18.38-19.93,31.17,1.49,7.88,9.59,12.45,20.88,18.82,4.62,2.61,6.93,3.91,10.34,5C167.89,192,185.46,197.88,195.43,188.67Z"/><path class="cls-9" d="M192.56,184.22a4.73,4.73,0,0,0,.78-.39,8.74,8.74,0,0,0,2.54-2.83,40.31,40.31,0,0,0,5.32-15.14,74,74,0,0,0-1.58-30.07,70.16,70.16,0,0,0-3.94-11c-1.24-2.75-2.29-6.94-4.46-9.06-.94-.91-2.62-2.15-4-1.5a3.63,3.63,0,0,0-1.48,2.14c-1.61,4.14-4.84,7.27-6.54,11.34-1.46,3.5-2.36,7.23-4.28,10.52a38.56,38.56,0,0,1-10,11.26c-3.43,2.61-7.3,3.75-9.16,8-.33.74-2.63,5.94-.39,9.51s6.79,2.15,13.41,3.88c5.39,1.41,9.86,4.49,14,8.19C185.17,181.16,188.94,185.62,192.56,184.22Z"/><path class="cls-10" d="M199.62,135.79a70.16,70.16,0,0,0-3.94-11c-1.24-2.75-2.29-6.94-4.46-9.06-.94-.91-2.62-2.15-4-1.5a3.63,3.63,0,0,0-1.48,2.14c-1.61,4.14-4.84,7.27-6.54,11.34-1.46,3.5-2.36,7.23-4.28,10.52a38.56,38.56,0,0,1-10,11.26c-3.43,2.61-7.3,3.75-9.16,8a16.75,16.75,0,0,0-1.15,3.63c7-1.94,14.05-7.8,18.5-12.95a42.77,42.77,0,0,0,7.64-12.76c1.42-3.74,2.45-7.89,5.38-10.58,1.08-1,2.65-1.74,3.95-1.09a4.64,4.64,0,0,1,1.79,2.17,125.37,125.37,0,0,0,6.63,11.09,7.17,7.17,0,0,0,1.88,2.1C200.17,138,199.91,136.86,199.62,135.79Z"/><path class="cls-8" d="M10,188.67c-2.41-2.22-3.41-4.43-5.37-8.73-9.93-21.85-2.32-46.86,7.82-67a9.23,9.23,0,0,1,2.85-3.81c3.87-2.53,7.7,3.64,10,5.93,4,4,7.94,8.37,12.57,11.71,4.45,3.2,9.23,5.93,13.5,9.39,8.7,7,22.35,18.38,19.93,31.17-1.49,7.88-9.59,12.45-20.88,18.82-4.62,2.61-6.93,3.91-10.34,5C37.54,192,20,197.88,10,188.67Z"/><path class="cls-9" d="M12.87,184.22a4.73,4.73,0,0,1-.78-.39A8.86,8.86,0,0,1,9.55,181a40.48,40.48,0,0,1-5.32-15.14,74,74,0,0,1,1.58-30.07,71.19,71.19,0,0,1,3.94-11c1.25-2.75,2.3-6.94,4.46-9.06.95-.91,2.63-2.15,4-1.5a3.62,3.62,0,0,1,1.47,2.14c1.62,4.14,4.84,7.27,6.54,11.34,1.47,3.5,2.37,7.23,4.29,10.52a38.52,38.52,0,0,0,10,11.26c3.43,2.61,7.3,3.75,9.17,8,.32.74,2.63,5.94.38,9.51s-6.78,2.15-13.41,3.88c-5.39,1.41-9.86,4.49-14,8.19C20.26,181.16,16.5,185.62,12.87,184.22Z"/><path class="cls-10" d="M5.81,135.79a71.19,71.19,0,0,1,3.94-11c1.25-2.75,2.3-6.94,4.46-9.06.95-.91,2.63-2.15,4-1.5a3.62,3.62,0,0,1,1.47,2.14c1.62,4.14,4.84,7.27,6.54,11.34,1.47,3.5,2.37,7.23,4.29,10.52a38.52,38.52,0,0,0,10,11.26c3.43,2.61,7.3,3.75,9.17,8a17,17,0,0,1,1.14,3.63c-7-1.94-14-7.8-18.49-12.95a42.79,42.79,0,0,1-7.65-12.76c-1.41-3.74-2.44-7.89-5.38-10.58-1.07-1-2.65-1.74-4-1.09a4.64,4.64,0,0,0-1.79,2.17,127.73,127.73,0,0,1-6.62,11.09A7.34,7.34,0,0,1,5,139C5.27,138,5.52,136.86,5.81,135.79Z"/><path class="cls-11" d="M209.61,226.93a93.86,93.86,0,0,0-5.4-29.8,67.11,67.11,0,0,0-6.57-13.86A61,61,0,0,0,184,168.11c5.24.8,6.49.47,6.62,0,.29-1-4.07-3.91-8.83-5.25-3.6-1-6.78-.94-6.81-1.55s3.5-1,3.5-1.75-4.25-1.62-7.37-1.94c-4.29-.45-7.1-.1-7.18-.58-.1-.67,5.06-1.75,5-2.34s-6.33-.53-13.07.78c-4.63.9-4.79,1.47-9,2.14a54.91,54.91,0,0,1-10.86.58c-5.39-.24-8-1.16-12.33-1.94a97.78,97.78,0,0,0-33,0c-4.37.78-6.94,1.7-12.33,1.94a54.91,54.91,0,0,1-10.86-.58c-4.23-.67-4.39-1.24-9-2.14-6.74-1.31-13-1.41-13.07-.78s5.07,1.67,5,2.34c-.08.48-2.89.13-7.18.58-3.12.32-7.36,1.1-7.37,1.94s3.53,1.1,3.5,1.75-3.21.55-6.81,1.55c-4.76,1.34-9.13,4.25-8.84,5.25.14.47,1.39.8,6.63,0a60.76,60.76,0,0,0-13.62,15.16,67.11,67.11,0,0,0-6.57,13.86,93.86,93.86,0,0,0-5.4,29.8c-.15,7-.28,13.55,2.21,21.76A56.8,56.8,0,0,0,16,266.31a65.94,65.94,0,0,0,19.64,17.62,83.17,83.17,0,0,0,22.58,9.58c2.88.83,9.08,1.86,21.36,3.89,10.34,1.7,20.8,3,31.29,2.73,9.87-.25,19.56-2,29.29-3.63,5.29-.88,10.76-1.49,15.94-3a83.17,83.17,0,0,0,22.58-9.58,66.06,66.06,0,0,0,19.64-17.62,57.24,57.24,0,0,0,9.08-17.62C209.89,240.48,209.75,234,209.61,226.93Z"/><path class="cls-12" d="M207.4,248.69c2.49-8.21,2.35-14.73,2.21-21.76a100.25,100.25,0,0,0-.82-10.73c-1-2.47-2.21-5.39-3.78-8.51-2.8-5.57-5.41-10.63-10.73-14.75a29.27,29.27,0,0,0-8.24-4.46c3.63-.27,4.47-.7,4.5-1.07.08-.82-3.73-2.06-7.18-2.52a44.88,44.88,0,0,0-7.57-.1c0-.2,6.62-.53,6.71-1.65.06-.86-3.75-2.16-7.38-2.23a16.7,16.7,0,0,0-4.31.48l2.4-1.94-8.81-1.16a36,36,0,0,0-13,1.26c-5.43,1.6-8.15,2.41-10,3.88-.79.64-2.07,1.83-3.7,1.68-1.37-.11-2.36-1.1-3.45-2.2-1.77-1.77-1.62-2.58-3.32-4.26a7.94,7.94,0,0,0-3.32-2.33c-3.05-.91-5.93,1.32-6.26.77s2.84-2.76,2.56-3.23-3.77.57-7,3c-3,2.24-2.82,3.44-5.36,4.79a12.44,12.44,0,0,1-6.9,1.29c-2.16-.18-2.86-.79-8-3a64.29,64.29,0,0,0-7.41-2.85c-4.88-1.3-9.84-1.28-10-.64-.06.35,2.48.83,2.43,1.29-.1.8-7.91.27-8.05,1.29-.06.46,1.43.78,1.41,1.43s-2.18,1-4.47,1.94c-1.51.62-3.22,2-6.64,4.78-3.65,3-3.65,3.3-5.11,4a15.27,15.27,0,0,1-6.51,1.43c-3.55.13-5-.72-9.2-1.43-4.6-.77-4.21,0-8.68-.64-3-.46-6.25-1.21-6.51-.52-.17.44,1,1,.89,1.81-.05.31-.31.79-2.94,1.68-1.62.56-2.63.76-4.47,1.43-1.49.54-2.3,1-2.3,1.42s.77.6.77,1-1.33.94-2.17,1.3c-1.38.59-2.2,1.6-3.83,3.62a89.31,89.31,0,0,0-8,11.69,98.51,98.51,0,0,0-1.13,12.92c-.15,7-.28,13.55,2.21,21.76A56.8,56.8,0,0,0,16,266.31a65.94,65.94,0,0,0,19.64,17.62,83.17,83.17,0,0,0,22.58,9.58c2,.58,5.63,1.26,11.81,2.3-2.12-.9-4.44-1.5-5.93-2.07-10-3.81-20.37-8-29.18-14.46-2.61-1.91-5.19-3.31-6.72-6.39-.52-1.06-1.45-2.93-.76-4.46.94-2.11,4.69-3.05,9.38-1.95-1.22-1.53-1.67-2.56-1.34-3.1.5-.8,3,.63,7.47,1.16a33.39,33.39,0,0,0,3.64.2c7.34.27,15.81,7.23,18,9.12,4.32,3.71,5.77,6.24,10,7.18a13.6,13.6,0,0,0,4.79.19,14.13,14.13,0,0,1-3.45-3.88A15.18,15.18,0,0,1,74,267.46a15.58,15.58,0,0,1,4.59-8.93c2.9-2.68,4.4-1.69,8.81-5a16.5,16.5,0,0,0,5.18-5.43c1.67-3.11.44-3.93,2.1-8.15a22.26,22.26,0,0,1,4.79-7.37,21.83,21.83,0,0,1,3.83-3.11q.58-13.68,1.15-27.36l1.92,4.08c.8-1.75,1.59-3.5,2.39-5.24.29,2.68.58,5.37.86,8q1.06-3.69,2.11-7.37l.29,25.8a27.32,27.32,0,0,0,1.53,2.72c2.06,3.24,3.2,3.68,4.12,5.73,1,2.3.16,3,.86,5.72.75,2.91,2.44,4.78,4.12,6.6,8.25,8.92,9.89,9.78,11.49,12.13,2.22,3.23,4,8.82,1.53,19,1.88-1.11,4.58-2.66,7.86-4.46A129.49,129.49,0,0,1,156.93,268a71.2,71.2,0,0,1,14.75-4.27l-1.54,3.1c2.34-.33,4.36-.59,5.94-.77,3.52-.42,4.76-.48,6.32-.2,1.74.32,3.49.64,4.22,1.94,1.09,2-.82,4.92-1.54,6-2.86,4.41-7.19,6.4-9.38,7.37,0,0-18.78,8.33-18.77,8.35l25.86-8.32a62.72,62.72,0,0,0,15.53-14.95A57.24,57.24,0,0,0,207.4,248.69Z"/><path class="cls-13" d="M104.24,206.94c-.79-3.29-1.82-6.95-3-11.28-1.48-5.2-2.89-9.37-3.84-12,3.29,19.79,3.5,34.68,1.73,39.19a16.22,16.22,0,0,1-4.22,6c-1.57,1.3-3.55,2.28-3.83,1.94s.53-1.47,1.34-2.52c-1,2.9,2.36-5.73,3.07-8.73,1.06-4.52.26-8.25-1.34-15.72-1.06-4.92-2.65-10.4-3.26-10.29s1.12,6.62-.76,15.14c-.8,3.61-1.6,7-4.41,9.7-.88.84-2.94,2.56-10.54,3.88-5.49,1-7.88.66-18.58,1-7.87.23-11.81.35-12.64.39-8.94.43-12.47.93-14.94-1.55-1.62-1.62-2-3.78-2.49-6-1.15-5.79.93-9.87,0-10.28s-2.95,2.78-5,5.82c-2.22,3.33-3.34,5-4,7.57S16.82,224,16.33,224s-.86-2.92-1.53-2.91-1.28,3-1.54,5.24c-.47,4.06,0,7.11-.38,7.18s-.89-2.94-1.53-2.91c-.82,0-1.68,5-1.34,9.89a25,25,0,0,0,3.25,11.45c1.89,3.21,5.58,7.71,7.09,7,2-.94-2.05-9.58,1.73-18.83.81-2,1.51-2.84,2.29-2.91,2.2-.18,2.91,5.9,7.47,11.26,2.31,2.71,5.5,4.39,11.88,7.76,7.89,4.17,13.14,5.28,14.94,5.63s3.05.48,4,.58A34.63,34.63,0,0,0,65,274.17c4,3.54,5.54,5.95,9.61,6.87a13.6,13.6,0,0,0,4.79.19,14.13,14.13,0,0,1-3.45-3.88A15.18,15.18,0,0,1,74,267.46a15.58,15.58,0,0,1,4.59-8.93c2.9-2.68,4.4-1.69,8.81-5a16.5,16.5,0,0,0,5.18-5.43c1.67-3.11.44-3.93,2.1-8.15a22.26,22.26,0,0,1,4.79-7.37,21.83,21.83,0,0,1,3.83-3.11Q103.77,218.19,104.24,206.94Z"/><path class="cls-13" d="M203.6,243.85a29.51,29.51,0,0,0,.51-7.9c0-1.09-.14-4-.76-4.13s-1.16,2.28-1.54,2.19.24-3-.12-6.59c-.3-2.93-1.21-5.86-1.92-5.82-.55,0-.61,1.76-1.15,1.81-.86.06-1.33-4.32-3.19-8.54-2.5-5.68-6.77-9.41-7.28-9.06-.31.21,1,1.74,1.4,4.66a15,15,0,0,1-1.15,7.76c-.69,1.78-1.84,4.73-4.34,6.47-3,2.09-6.28,1.29-10.47.91-10.9-1-10.68,2.34-22.35,1.42a48.59,48.59,0,0,1-14.68-3.36c-5.11-2.09-7.3-4.08-7.92-4.66a23.07,23.07,0,0,1-5.75-9.32A32,32,0,0,1,121,196.24a56.29,56.29,0,0,0-2.17,10.61c-.51,4.8-.81,7.58,0,11.12,1.3,5.74,4.58,9.41,3.45,10.48-.43.4-1.25.23-2.3,0a8.24,8.24,0,0,1-3.58-1.94c-2.49-2.38-2.17-8.14-2-16,.17-10.13-.22-9,.13-12.29.9-8.61,3.33-14.47,2.93-14.62s-2,3.29-3.44,7.38a74.15,74.15,0,0,0-3.61,15.42q.69-2.4,1.37-4.78l.29,25.8a27.32,27.32,0,0,0,1.53,2.72c2.06,3.24,3.2,3.68,4.12,5.73,1,2.3.16,3,.86,5.72.75,2.91,2.44,4.78,4.12,6.6,8.25,8.92,9.89,9.78,11.49,12.13,2.22,3.23,4,8.82,1.53,19,1.55-.91,3.64-2.12,6.15-3.52a18.7,18.7,0,0,0,.75-4.89c0-2.9.23-5.23.77-5.3s1.08,1.75,1.27,1.68c.36-.12-2.23-5.79-.63-7.24,1.07-1,3.15.79,7.4,1.42a23.28,23.28,0,0,0,7.28-.26,40.89,40.89,0,0,0,17.5-7.11,32.93,32.93,0,0,0,6-5,27.4,27.4,0,0,0,4.21-6.08c2.11-4.17,2.1-6.92,3.19-7,.86,0,1.6,1.59,2.56,3.76a27.16,27.16,0,0,1,2.55,8c1,6.86-.89,11,.13,11.38,1.19.47,4.26-4.87,5.11-6.34A29.19,29.19,0,0,0,203.6,243.85Z"/><path class="cls-14" d="M97.35,183.63c1,6.12,1.74,11.77,2.2,16.79a144.54,144.54,0,0,1,2.23,20.11c.13,3.42.08,7.08-1.82,9.91-.62.92-1.41,1.71-2,2.63a4.87,4.87,0,0,0-.88,2.37,21.9,21.9,0,0,1,6.23-6q.48-11.23.95-22.48c-.79-3.29-1.82-6.95-3-11.28C99.71,190.46,98.3,186.29,97.35,183.63Z"/><path class="cls-14" d="M114.56,228.75c-.77-1.79-.18-3.8.15-5.75-.62-3-.46-7.28-.37-12.53.17-10.13-.22-9,.13-12.29.9-8.61,3.33-14.47,2.93-14.62s-2,3.29-3.44,7.38a74.15,74.15,0,0,0-3.61,15.42q.69-2.4,1.37-4.78l.29,25.8a27.32,27.32,0,0,0,1.53,2.72c2,3.09,3.09,3.63,4,5.45A12.09,12.09,0,0,0,116,231,14.19,14.19,0,0,1,114.56,228.75Z"/><path class="cls-15" d="M207.4,242.09a57.24,57.24,0,0,1-9.08,17.62,65.92,65.92,0,0,1-19.64,17.62,83.25,83.25,0,0,1-22.58,9.59c-5.18,1.49-10.65,2.11-15.94,3-9.73,1.61-19.42,3.38-29.29,3.62-10.49.26-21-1-31.29-2.73-12.28-2-18.48-3.06-21.36-3.88a83.25,83.25,0,0,1-22.58-9.59A65.8,65.8,0,0,1,16,259.71a56.8,56.8,0,0,1-9.08-17.62,52.3,52.3,0,0,1-2.23-14c-.13,6.59-.12,12.82,2.23,20.57A56.8,56.8,0,0,0,16,266.31a65.94,65.94,0,0,0,19.64,17.62,83.17,83.17,0,0,0,22.58,9.58c2.88.83,9.08,1.86,21.36,3.89,10.34,1.7,20.8,3,31.29,2.73,9.87-.25,19.56-2,29.29-3.63,5.29-.88,10.76-1.49,15.94-3a83.17,83.17,0,0,0,22.58-9.58,66.06,66.06,0,0,0,19.64-17.62,57.24,57.24,0,0,0,9.08-17.62c2.35-7.75,2.36-14,2.23-20.57A52.3,52.3,0,0,1,207.4,242.09Z"/><path class="cls-16" d="M121.62,230.52a11.28,11.28,0,0,0-2.17,3.62c-.38.88-1,2.41-.64,2.72.58.46,2.64-2.26,4.08-1.68.68.27,1,1.17,1.15,2.07.42,2.39,3.11,5.63,4.54,7.53a29.54,29.54,0,0,0,14.49,10.32A37.12,37.12,0,0,0,157,256.78a35.4,35.4,0,0,0,25.15-12.53,21.7,21.7,0,0,0,3.57-5.95c.53-1.41.75-4.13,2.44-4.67a7.73,7.73,0,0,1,2.17.13c2.72.31,3.26.6,3.45.38.37-.43-1-2.61-7.92-10-7.3,0-14.93.22-22.86.65-8.14.44-14.19,1.44-27.45,2.33-3.6.24-6.58.41-8.59.52A9.76,9.76,0,0,0,121.62,230.52Z"/><path class="cls-17" d="M125.83,231.43l9.71-.91a16,16,0,0,0,2.42,4.27,16.5,16.5,0,0,0,7.41,5.18,18.92,18.92,0,0,0,10.6.51,17.11,17.11,0,0,0,7.41-3,16.86,16.86,0,0,0,6-9.19l11.11-.9,2.68,3.75a23.44,23.44,0,0,1-2.68,6.21,24,24,0,0,1-7.15,7.24,31.16,31.16,0,0,1-9.71,4.4,33.63,33.63,0,0,1-14,1.68C138.14,249.46,129.81,242.19,125.83,231.43Z"/><path class="cls-18" d="M168.16,242.75c1.49.77,3.53-1.29,4.4-2.3a2.89,2.89,0,0,0,.59-.92c.43-1.28-1.21-2.82-2-3.7-2.49-3-6.69-6.66-10.88-5.56a8.73,8.73,0,0,0,1.87,1.87,22.64,22.64,0,0,1,2,2,15.53,15.53,0,0,1,2.89,5C167.37,240,167.25,242.27,168.16,242.75Z"/><path class="cls-16" d="M93.07,230.52a11.47,11.47,0,0,1,2.17,3.62c.38.88,1,2.41.64,2.72-.59.46-2.65-2.26-4.09-1.68-.68.27-1,1.17-1.15,2.07-.41,2.39-3.11,5.63-4.54,7.53A29.54,29.54,0,0,1,71.61,255.1a37.09,37.09,0,0,1-13.92,1.68,35.4,35.4,0,0,1-25.15-12.53A21.92,21.92,0,0,1,29,238.3c-.53-1.41-.75-4.13-2.44-4.67a7.81,7.81,0,0,0-2.18.13c-2.71.31-3.26.6-3.44.38-.37-.43.95-2.61,7.91-10,7.31,0,14.94.22,22.86.65,8.14.44,14.19,1.44,27.46,2.33,3.6.24,6.57.41,8.59.52A9.82,9.82,0,0,1,93.07,230.52Z"/><path class="cls-17" d="M88.85,231.43l-9.7-.91a15.76,15.76,0,0,1-2.43,4.27,16.54,16.54,0,0,1-7.4,5.18,18.92,18.92,0,0,1-10.6.51,17.11,17.11,0,0,1-7.41-3,16.75,16.75,0,0,1-6-9.19l-11.11-.9-2.68,3.75a22.79,22.79,0,0,0,2.68,6.21,23.92,23.92,0,0,0,7.15,7.24,31.22,31.22,0,0,0,9.7,4.4,33.63,33.63,0,0,0,14,1.68C76.54,249.46,84.87,242.19,88.85,231.43Z"/><path class="cls-18" d="M46.52,242.75c-1.49.77-3.52-1.29-4.4-2.3a2.87,2.87,0,0,1-.58-.92c-.44-1.28,1.2-2.82,2-3.7,2.48-3,6.69-6.66,10.88-5.56a8.77,8.77,0,0,1-1.88,1.87,25.69,25.69,0,0,0-2,2,15.53,15.53,0,0,0-2.89,5C47.32,240,47.43,242.27,46.52,242.75Z"/><path class="cls-16" d="M79.54,276.67c1,.43,7.87-10.05,8.6-10.88a36,36,0,0,1,12.39-9.34c3.91-1.7,8.34-2.72,12.58-1.91a13.28,13.28,0,0,1,6.33,3.21c.65.59,4.34,5.38,4.84,5.14.18-.09.21-.34.2-.54-.35-11.29-15.33-11.07-22.9-8.79l-.68.21A30.64,30.64,0,0,0,87,263.94C86.22,265,78.35,275.85,79.54,276.67Z"/><path class="cls-16" d="M108.48,253.31c0-1.18,0-2.35,0-3.53a24.6,24.6,0,0,0,3.35-2.12,19.51,19.51,0,0,0,1.77-1.58l.24-.26-.24.26a.4.4,0,0,1,.24-.26c.3-.07.48.75,1,.87s1.07-.58,1.62-1.26a5.63,5.63,0,0,0,1.25-2.23c.18-.65.44-1.61,0-2s-1.16-.13-2.11.1c-1.38.34-2.81.34-4.21.58a28.2,28.2,0,0,1-6.71.29,18.66,18.66,0,0,1-5.74-1c-1.31-.49-2.34-1.1-2.78-.68s0,1.75.3,2.26a9.5,9.5,0,0,0,1.6,1.92c.47.5,1,1.8,1.74,1.84.48,0,.66-.53,1.15-.58.73-.09,1.24,1.05,1.91,1.84a6.35,6.35,0,0,0,3.79,2c0,1.23.05,2.46.08,3.69l.74.33Z"/><path class="cls-19" d="M115.55,241.26c-1.38.34-2.81.34-4.21.58a28.2,28.2,0,0,1-6.71.29,18.66,18.66,0,0,1-5.74-1c-1.17-.44-2.11-1-2.61-.78.16.29.36.61.6,1a13.85,13.85,0,0,0,4.37,4c1.49,1,3,2.28,4.74,2.62a6.35,6.35,0,0,0,4.67-1.17c1.64-1,3.23-2.1,4.79-3.22.39-.28.81-.52,1.22-.78s1.67-1,1-1.65C117.16,240.67,116.11,241.12,115.55,241.26Z"/><path class="cls-6" d="M98.84,245.56a156.62,156.62,0,0,0-56.18,23.17A141.75,141.75,0,0,0,29.44,278.8c-1.22,1.05.56,2.81,1.77,1.76a147.3,147.3,0,0,1,51.67-28.31A164,164,0,0,1,99.5,248c1.58-.32.91-2.73-.66-2.41Z"/><path class="cls-6" d="M98.79,246.88a158,158,0,0,0-46.57,39.41,143,143,0,0,0-9.55,13.63c-.85,1.37,1.31,2.63,2.16,1.26a149,149,0,0,1,40.7-43A162.65,162.65,0,0,1,100.05,249a1.25,1.25,0,0,0-1.26-2.16Z"/><path class="cls-6" d="M99,246.19A170.76,170.76,0,0,0,38.83,281a161.09,161.09,0,0,0-13.64,13.89c-1.05,1.21.71,3,1.77,1.77a164.6,164.6,0,0,1,54.43-40.83,169.35,169.35,0,0,1,18.24-7.27c1.52-.5.87-2.92-.66-2.41Z"/><path class="cls-6" d="M113.86,248a154.71,154.71,0,0,1,55.24,22.69,136.45,136.45,0,0,1,13.05,9.9c1.21,1.05,3-.71,1.77-1.76A150.18,150.18,0,0,0,131.55,250a160.6,160.6,0,0,0-17-4.41c-1.57-.32-2.24,2.09-.66,2.41Z"/><path class="cls-6" d="M113.31,249a156.06,156.06,0,0,1,45.81,38.71,135.88,135.88,0,0,1,9.41,13.43c.85,1.37,3,.11,2.16-1.26a152,152,0,0,0-41.26-43.62,161.82,161.82,0,0,0-14.86-9.42,1.25,1.25,0,0,0-1.26,2.16Z"/><path class="cls-6" d="M113.73,248.6a167.54,167.54,0,0,1,59.33,34.48A158.77,158.77,0,0,1,186.4,296.7c1.06,1.21,2.82-.56,1.77-1.77a166.49,166.49,0,0,0-55.32-41.4,176.8,176.8,0,0,0-18.46-7.34c-1.53-.51-2.19,1.91-.66,2.41Z"/></g></g></svg>