<svg xmlns="http://www.w3.org/2000/svg" viewBox="0 0 1160.8 1293.98"><defs><style>.cls-1{fill:#d2b49c;}.cls-2{fill:#0f0e0e;}.cls-14,.cls-2{opacity:0.23;}.cls-3{fill:#f1e2d6;}.cls-4{fill:#323233;}.cls-5{fill:#fff;}.cls-6{fill:none;}.cls-20,.cls-7{fill:#eb7d6e;}.cls-8{fill:#d86f64;}.cls-9{fill:#84716c;}.cls-10{fill:#dcc4b0;}.cls-11{fill:#c4ae9d;}.cls-12{fill:#dec4b1;}.cls-13{fill:#6e7172;}.cls-14{fill:#b69e8c;}.cls-15{fill:#6e7273;}.cls-16{fill:#b4e2ed;}.cls-17{fill:#fffeff;}.cls-18{fill:#f1a7af;}.cls-19{fill:#fac6b6;}.cls-20{stroke:#f7f6f6;stroke-miterlimit:10;stroke-width:3px;}.cls-21{fill:#f29f97;}</style></defs><g id="Layer_2" data-name="Layer 2"><g id="Layer_1-2" data-name="Layer 1"><path class="cls-1" d="M567.4,1225.56a70.42,70.42,0,0,0-14.62,30.56c-3.44,17.31,4.51,31.46,23.14,36.08,8.1,2,16.6,2,25,1.55,34.2-1.67,71-8,99.7-26.75,11-7.18,20.89-16.75,26.62-28.23,7-14,4.14-29.14,1.51-43.76-6.41-35.79-20.59-70.58-29.53-105.94-16.12-63.73-4.8-80.59-20.87-90.74-22.63-14.31-71.08,2.71-80.83,27.59-4.42,11.26,2.53,15.36,4.56,51.5,1.06,18.85.53,37.52.79,56.34.22,15.81,2.93,31.9-.27,47.61-2.94,14.44-13.88,23.57-24.69,33.21A91.75,91.75,0,0,0,567.4,1225.56Z"/><path class="cls-2" d="M620.52,1195.3c6.71-16,4.22-34.66,12.06-50.23,3.08-6.14,7.65-11.52,12.56-16.49,13.67-13.82,30.18-24.84,45.07-37.5,2.64-2.24,5.24-4.56,7.76-7-14.31-59.65-4-75.9-19.65-85.79-22.63-14.31-71.08,2.71-80.83,27.59-4.42,11.26,2.53,15.36,4.56,51.5,1.06,18.85.53,37.52.79,56.34.22,15.81,2.93,31.9-.27,47.61-2.94,14.44-13.88,23.57-24.69,33.21a91.75,91.75,0,0,0-10.48,11,74.32,74.32,0,0,0-9.95,16.12c10.07-2,21.66-8.7,27.4-11.75C600,1221.88,614.14,1210.55,620.52,1195.3Z"/><path class="cls-1" d="M489.18,1222.19A70.93,70.93,0,0,1,505.56,1252c4.44,17.11-2.67,31.64-21,37.21-8,2.43-16.46,2.82-24.84,2.85-34.25.1-71.41-4.35-101.11-21.57-11.38-6.59-21.85-15.64-28.24-26.8-7.77-13.58-5.82-28.88-4.06-43.62,4.31-36.07,16.44-71.54,23.3-107.31,12.37-64.46.08-80.71,15.53-91.68,21.77-15.46,71.14-1,82.33,23.37,5.07,11-1.63,15.47-1.55,51.66.05,18.88,1.67,37.49,2.5,56.29.71,15.81-1.06,32,3.05,47.53,3.78,14.27,15.24,22.81,26.59,31.89A91.88,91.88,0,0,1,489.18,1222.19Z"/><path class="cls-2" d="M434.37,1194.71c-7.64-15.66-6.25-34.38-15-49.53-3.44-6-8.32-11.1-13.52-15.81-14.45-13.1-31.58-23.24-47.19-35.11-2.76-2.1-5.49-4.29-8.15-6.55,10.8-60.3-.44-76,14.6-86.68,21.77-15.46,71.14-1,82.33,23.37,5.07,11-1.63,15.47-1.55,51.66.05,18.88,1.67,37.49,2.5,56.29.71,15.81-1.06,32,3.05,47.53,3.78,14.27,15.24,22.81,26.59,31.89a91.88,91.88,0,0,1,11.12,10.42,74.91,74.91,0,0,1,10.87,15.58c-10.16-1.45-22.13-7.57-28.05-10.32C456.38,1220.2,441.63,1209.62,434.37,1194.71Z"/><path class="cls-3" d="M387.88,745.77c-2.83,5.79-5.52,11.61-8.15,17.38-17.13,37.59-31.34,76.59-38.67,117-9,49.71-10.64,105.31,11.84,152.23,26.7,55.73,86.87,76.35,148.68,78s126.64-17.88,167.66-62.86c40.24-44.12,56.11-104.72,43.32-161.45-13.84-61.4-54.36-112.52-93.75-161.54-20.06-25-45.08-47.82-76.48-58.15a121.52,121.52,0,0,0-78.19,1.13C426,681.26,404.25,712.24,387.88,745.77Z"/><path class="cls-4" d="M718.18,689.78c-6.5-7.72-56.24,19.14-111.1,60S513,830,519.51,837.72s56.24-19.14,111.11-60S724.68,697.5,718.18,689.78Z"/><ellipse class="cls-4" cx="609.18" cy="758.25" rx="18.59" ry="125.7" transform="translate(-313.86 1064.93) rotate(-69.6)"/><path class="cls-5" d="M627.51,773.66a175.28,175.28,0,0,1-6.17-19.47q-1.12-4.5-2-9.05c-.34-1.82-.65-3.64-1-5.47a20.38,20.38,0,0,1-.39-2.95l-32.41,4.39A121.85,121.85,0,0,0,598.31,780c7.61,14.86,30.79,7.49,30.74-8.33A197.47,197.47,0,0,0,626.83,746l-32.42,4.39,7.23,19.14c3,8.05,11.27,14.44,20.29,11.52s13.18-11.17,11.53-20.29l-3.6-19.93L598,749.61q3.72,10.1,7.42,20.19c2.86,7.79,9.55,13,18.11,11.82,7.67-1,14.79-8,14.3-16.2q-.43-7.42-.88-14.84c-.14-2.44-.35-4.88-.42-7.32a31.61,31.61,0,0,1,0-3.51c-.14,1.53,0,1.3.58-.67l-32.41-4.39q1.37,21.38,3.39,42.69c.81,8.57,7,16.93,16.5,16.5,8.66-.38,16.85-7.26,16.5-16.5a178.28,178.28,0,0,0-2.43-22.8c-1.55-9.19-8.46-19.31-19.14-18.08-8.55,1-16.93,6.88-16.5,16.5.36,8.09,7.31,17.57,16.5,16.5l.87-.1-8.33-2.25.77.52L607,761.76q-1.1-3.56-.57-1.14c.18.91.35,1.82.5,2.74,1,5.72-.21-2.83.45,2.95.41,3.68.66,7.37.8,11.07h33q-2-21.32-3.39-42.69c-.53-8.25-5.88-15.07-14.31-16.2s-15.2,4-18.1,11.82c-3.93,10.59-1.12,24.08-.47,35.11L637.27,761l-7.41-20.2c-3-8.08-11.33-14.42-20.3-11.52-9.14,3-13.17,11.17-11.53,20.3q1.82,10,3.61,19.92l31.82-8.77q-3.62-9.57-7.22-19.14c-2.93-7.77-9.49-13-18.11-11.82-7.24,1-15.39,8.07-14.3,16.2a197.47,197.47,0,0,1,2.22,25.69l30.75-8.33a67.33,67.33,0,0,1-5.68-13.94,107.32,107.32,0,0,1-3.7-17.09c-1.12-8.09-10.92-12.78-18.11-11.81s-15.25,8-14.31,16.2a189.19,189.19,0,0,0,10.69,45.71c3,8.05,11.26,14.45,20.3,11.53,7.85-2.55,14.8-11.66,11.52-20.3Z"/><path class="cls-6" d="M387.34,796.67c4.13,2.79,8.27,5.41,12.43,7.9a93.25,93.25,0,0,0,4.7-24.6c.12-3.4,0-6.94-1.7-10-3.39-6.19-11.61-8.17-18.87-9.52a10.79,10.79,0,0,0-4.23-.21,10.09,10.09,0,0,0-3.71,2q-6.72,5-13.18,10.31c-1.18,1-2.76,2.06-4.31,3.25C370.35,785.16,381.28,792.56,387.34,796.67Z"/><path class="cls-7" d="M1159.54,425.28a45.31,45.31,0,0,0-36.36-35.41,81.26,81.26,0,0,0-42.72,4,65.52,65.52,0,0,0-15.75,8.86c-2,1.51-7.25,4.8-7.85,7.19.6-2.39-2.55-7.56-3.6-9.73a60,60,0,0,0-9.87-14.56,77.45,77.45,0,0,0-36.3-21.54,48.39,48.39,0,0,0-49.37,16.35c-20.52,24.83-14.13,54.81-3.81,82.79,15.06,40.85,43.07,71.08,66.69,91,30.6-7.89,70-23.13,102.94-53.32C1146.09,480.23,1166.07,456.12,1159.54,425.28Z"/><path class="cls-8" d="M1146.34,476.32c-1.74,2.37-7.58,4.46-10.22,6-19,11.2-37.5,23.51-57.38,33.34-20.56,10.16-42.92,19.1-66.38,13-29.86-7.72-43.91-34.17-47.11-40.61,15.57,28.5,36.81,50.5,55.35,66.15,30.6-7.89,70-23.13,102.94-53.32C1131.9,493.25,1139.91,485.1,1146.34,476.32Z"/><path class="cls-7" d="M1154.28,313.49a12.34,12.34,0,0,0-6.94-12.38,22.89,22.89,0,0,0-12-2.1,19,19,0,0,0-5,1.24c-.66.26-2.38.76-2.75,1.37.37-.61-.06-2.25-.16-2.92a16.19,16.19,0,0,0-1.47-4.71,21,21,0,0,0-8.08-8.59,14,14,0,0,0-14.86.77c-7.7,5.25-8.48,13.91-8,22.31.66,12.28,5.76,22.62,10.52,29.83,9,.13,21.07-1.08,32.6-6.87C1146,327.48,1153.46,322.39,1154.28,313.49Z"/><path class="cls-7" d="M1015.34,201.58a9.08,9.08,0,0,0-9.37-2.73,14.33,14.33,0,0,0-6.64,4.27,11,11,0,0,0-1.74,2.8c-.18.41-.74,1.4-.6,1.84-.14-.44-1.15-1-1.53-1.29a12.51,12.51,0,0,0-3-1.56,15.26,15.26,0,0,0-8-.46,8.44,8.44,0,0,0-6.55,6.88c-1,5.82,2.94,10.21,7.32,13.93a45.3,45.3,0,0,0,19.69,9.3c4.27-3.89,9.29-9.74,11.81-17.49C1018.4,211.75,1019.37,206.09,1015.34,201.58Z"/><path class="cls-8" d="M1018.06,211.09c0,.54-.81,1.38-1.1,1.86-2.05,3.45-3.91,7-6.23,10.34s-5.23,6.78-9.67,7.78c-5.65,1.26-10.49-1.9-11.63-2.68a48.2,48.2,0,0,0,15.44,6.17c4.27-3.89,9.29-9.74,11.81-17.49A30.42,30.42,0,0,0,1018.06,211.09Z"/><path class="cls-7" d="M176.13,589.58c-14.66-9.6-34.56-11.89-51.53-1.77a72.33,72.33,0,0,0-27.43,30.27,56.89,56.89,0,0,0-4.75,16.4c-.18,1.42-.76,4.08-.89,6.43a1.87,1.87,0,0,1-2.67,1.49c-2.25-1-5-1.84-6.42-2.37a66.68,66.68,0,0,0-17.57-4,79.58,79.58,0,0,0-41.42,8C5.86,653.18-1.6,670.69.28,687.4c3.47,30.8,29.78,48,57.43,61.22,39.91,19.1,81.28,22.71,112.41,21.8a1.89,1.89,0,0,0,1.56-.87c15.84-25.22,32.41-61,33.83-103.15C206.5,637.23,203.16,607.27,176.13,589.58Z"/><path class="cls-8" d="M205.09,644.06a1.91,1.91,0,0,0-3.67-.43c-.19.55-.36,1.06-.48,1.5-5.37,20.17-9.54,40.78-16.52,60.53-7.21,20.42-16.6,41.13-37.66,51.89-26.81,13.7-56,4-62.94,1.44,31.3,10.08,61.93,12.14,86.3,11.43a1.89,1.89,0,0,0,1.56-.87c15.84-25.22,32.41-61,33.83-103.15A186.71,186.71,0,0,0,205.09,644.06Z"/><path class="cls-7" d="M55.37,518.8a11.82,11.82,0,0,1,10.95-6.93A20.09,20.09,0,0,1,76.63,515a15.85,15.85,0,0,1,3.39,3h0a2,2,0,0,0,2.94-.06h0a15.72,15.72,0,0,1,3.25-3.1,20.12,20.12,0,0,1,10.16-3.52,11.9,11.9,0,0,1,11.26,6.48c3.67,7.14.42,14.21-3.7,20.6C98.21,547.26,90.09,553.2,83.32,557a2,2,0,0,1-1.83,0c-6.94-3.5-15.33-9.1-21.48-17.79C55.61,533,52,526.08,55.37,518.8Z"/><path class="cls-8" d="M55.77,532c.29.67,1.62,1.48,2.18,2,4.07,3.7,7.93,7.65,12.29,11.06s9.51,6.83,15.64,6.5c7.79-.43,12.74-6.26,13.89-7.69A61.33,61.33,0,0,1,83.32,557a2,2,0,0,1-1.83,0c-6.94-3.5-15.33-9.1-21.48-17.79A41.83,41.83,0,0,1,55.77,532Z"/><path class="cls-5" d="M692.16,702c-4.09-6-15.29-1.76-19.14-7.95,3-2.72,7.16-3.62,10.58-5.76a17.72,17.72,0,0,0,8-13.09c-13.56-1.28-26.77-5.21-40.22-7.46-12.86-2.15-26.39-2.62-38.48,2a20.52,20.52,0,0,0-4,.65c-12.82-.08-25.22,5-36.43,11.38-11.85,6.76-22.89,15-35.18,20.88a17.69,17.69,0,0,0,12.06,9.52c3.95.83,8.16.24,11.92,1.75-1.48,7.14-13.47,7-15.22,14.07a12.5,12.5,0,0,0,.12,5c2.92,18.28,7,38.1,20.92,50,6.14,5.25,13.28,9.73,20.84,6.08,8.93-4.31,17.43-10.24,25.35-16.23,4.24-3.21,8.5-6.78,10.71-11.7a23.23,23.23,0,0,0,1.81-7.47l.35-.14a23,23,0,0,0,4.31,6.46c3.77,3.86,9,5.74,14.09,7.28,9.5,2.89,19.52,5.52,29.39,6.48,8.35.82,13.52-5.85,17.46-12.9,8.94-15.95,5.94-36,2.38-54.13A12.46,12.46,0,0,0,692.16,702Z"/><path class="cls-9" d="M889.59,299.44c7.62-10,9.94-19.11,14.45-36.76,22.93-89.62-22.85-179.41-74.93-249-3.72-5-7.73-10.1-13.4-12.51-16.42-7-26.77,19-33.91,29.26C769.2,48.49,757.31,67.54,742,83.35c-14.7,15.16-31,28.75-44.87,44.75-28.31,32.43-72.38,84.89-54.58,131.76,11,28.91,44.8,40.78,92,57.32,19.3,6.78,29,10.16,42.67,12.16C787.36,330.83,858,341.11,889.59,299.44Z"/><path class="cls-10" d="M875.7,284.5a16.8,16.8,0,0,0,2.7-2c3.62-3.32,5.88-7.87,7.73-12.45,7.72-19,10.38-40.51,10-61A285.41,285.41,0,0,0,869.76,95.91a274.6,274.6,0,0,0-22.39-39.15C840.78,47.17,834,32,824.31,25.41c-4.19-2.84-11.41-6.39-16.09-3-2.77,2-3.48,5.76-4.15,9.13C800.74,48.31,790.61,62.37,786.9,79c-3.19,14.27-4.09,29-9.15,42.85a149.07,149.07,0,0,1-30.35,49.48c-11.26,12.21-25.17,19.16-29.4,36.4-.74,3-6,24.32,5,36.34,10.79,11.87,27.2,3.57,53.51,5.67,21.4,1.71,40.46,10.38,58.56,21.62C845.59,277.86,862.89,292.25,875.7,284.5Z"/><path class="cls-11" d="M869.76,95.91a274.6,274.6,0,0,0-22.39-39.15C840.78,47.17,834,32,824.31,25.41c-4.19-2.84-11.41-6.39-16.09-3-2.77,2-3.48,5.76-4.15,9.13C800.74,48.31,790.61,62.37,786.9,79c-3.19,14.27-4.09,29-9.15,42.85a149.07,149.07,0,0,1-30.35,49.48c-11.26,12.21-25.17,19.16-29.4,36.4a64.34,64.34,0,0,0-1.89,14.55c25.37-12.12,48-39.1,61.43-61.65A164.74,164.74,0,0,0,797.93,107c2.85-15.16,4-31.59,13.27-43.79,3.41-4.47,8.87-8.4,14.25-6.82,3.51,1,6,4.14,8.26,7A482.33,482.33,0,0,0,866.35,101c2.52,2.62,5.31,5.33,8.57,6.7C873.29,103.73,871.58,99.79,869.76,95.91Z"/><path class="cls-9" d="M185.9,424.76c-10.61-6.8-15.92-14.5-26.25-29.51C107.19,319.05,119.16,219,144,135.69c1.77-5.94,3.76-12.15,8.25-16.36,13-12.22,31.68,8.59,41.93,15.74,18.06,12.6,35.79,26.38,55.63,35.92,19,9.17,39,16.28,57.56,26.52,37.76,20.66,97.24,54.68,96.71,104.82-.33,30.92-28,53.73-66.52,85.54-15.77,13-23.66,19.53-35.84,26.14C292.68,418.92,230,453,185.9,424.76Z"/><path class="cls-10" d="M193.78,405.94a16.81,16.81,0,0,1-3.24-1c-4.54-1.87-8.23-5.36-11.55-9-13.82-15.21-23.73-34.44-30.4-53.85a285.27,285.27,0,0,1-14.34-115.2,274.22,274.22,0,0,1,7.5-44.48c2.87-11.28,4-27.9,10.82-37.38,3-4.12,8.5-9.94,14.05-8.4,3.29.91,5.25,4.21,7,7.14,8.94,14.62,23.29,24.31,32.5,38.59,7.92,12.29,13.86,25.85,23.37,37.06a149,149,0,0,0,45.58,36c14.78,7.57,30.23,9.29,40.15,24,1.74,2.58,14,20.77,7.88,35.83-6,14.86-24.29,12.73-48.26,23.79-19.5,9-34.38,23.71-47.49,40.51C219.75,389.31,208.48,408.79,193.78,405.94Z"/><path class="cls-11" d="M134.25,226.9a274.22,274.22,0,0,1,7.5-44.48c2.87-11.28,4-27.9,10.82-37.38,3-4.12,8.5-9.94,14.05-8.4,3.29.91,5.25,4.21,7,7.14,8.94,14.62,23.29,24.31,32.5,38.59,7.92,12.29,13.86,25.85,23.37,37.06a149,149,0,0,0,45.58,36c14.78,7.57,30.23,9.29,40.15,24a65,65,0,0,1,6.8,13c-28-2.62-58.58-20.11-78.93-36.65a164.83,164.83,0,0,1-37.64-43.26c-7.91-13.25-14.61-28.29-27.57-36.52-4.75-3-11.22-4.82-15.73-1.48-2.94,2.18-4.2,5.95-5.33,9.47a481.72,481.72,0,0,1-17.64,46.55c-1.47,3.33-3.15,6.83-5.74,9.24C133.64,235.45,133.88,231.16,134.25,226.9Z"/><path class="cls-3" d="M969.25,435c-11.27-56.36-32.4-95.23-40.63-109.43-7.43-12.81-17.24-29.52-34.29-48.17a234.35,234.35,0,0,0-61.94-48.31c20.44-.5,25-2.61,25.15-4.48.43-4-18.11-12.09-37.08-13.94-14.33-1.4-26.38,1-26.9-1.3s12.62-6.08,12.09-9c-.57-3.2-17.2-3.28-29.25-2.4-16.58,1.22-27,4.44-27.64,2.64-.85-2.45,18-10.05,17.28-12.2-.78-2.34-24.4,2.24-49.07,11.78-17,6.56-17.21,8.8-32.79,14.21A211.48,211.48,0,0,1,643.35,224c-20.63,2.73-31,1-48.12,1-40.91,0-86.61,8.13-125.06,22.27-16.07,5.91-25.19,11.15-45.5,15.71a210.41,210.41,0,0,1-41.61,5.13c-16.49.31-17.48-1.72-35.68-2-26.45-.43-50.2,3.42-50.12,5.88.06,2.27,20.38,2.9,20.43,5.49.05,1.9-10.87,2.48-26.85,7.07-11.62,3.33-27.19,9.15-26.63,12.35.52,2.92,14.13,1.79,14.46,4.27s-11.84,4.24-24.8,10.5c-17.16,8.29-31.77,22.29-30,25.89.84,1.69,5.79,2.1,25.15-4.48a234.51,234.51,0,0,0-41.45,66.73c-9.57,23.38-13,42.45-15.55,57-2.82,16.17-9.24,59.94-.36,116.72,4.2,26.81,8.08,51.63,23.1,81.1,16,31.35,35.61,50.4,46.37,60.73,33.13,31.79,66.12,45.43,86.42,53.59,37.78,15.19,68.88,18.68,92.18,21.12,11.48,1.2,35.7.92,83.67.32,40.42-.53,81-2.74,120.6-10.8C681.29,772,716.9,758.73,752.71,746c19.48-6.91,39.83-12.95,58.48-22.12,21-10.34,49-24.35,79.21-51.64,16.24-14.67,42.49-38.86,62.62-80.14,6.53-13.4,18.39-38.07,22.55-73C979.49,486.27,974.57,461.65,969.25,435Z"/><path class="cls-12" d="M975.57,519.12c3.92-32.85-1-57.47-6.32-84.08a376.8,376.8,0,0,0-10.35-40.15c-5.45-8.72-12-19-20.11-29.75-14.39-19.24-27.71-36.67-50.68-48.72a112.87,112.87,0,0,0-34.27-11.37c13.59-3.46,16.48-5.67,16.36-7.09-.25-3.16-15.58-5.3-29-4.72-16,.69-28.63,5.28-28.78,4.74-.22-.73,24.76-6.47,24.32-10.79-.33-3.31-15.67-5.66-29.49-3.48a64.07,64.07,0,0,0-16,4.75q3.88-4.48,7.78-9L764.81,281c-22.49,2.29-38.46,8.53-48.58,13.59-19.53,9.75-29.29,14.63-35.18,21.46-2.56,3-6.61,8.31-12.92,8.88-5.26.48-9.69-2.61-14.57-6-7.92-5.53-7.9-8.71-15.48-14-4.42-3.06-8.59-6-14.18-6.59-12.18-1.4-21.62,9-23.22,7.17s8.89-12.39,7.51-14-13.92,4.71-24.65,16c-10,10.53-8.38,14.94-17.11,21.79-10.24,8-21.7,9.24-25.3,9.57-8.32.77-11.41-1.08-32.54-5.86-15.33-3.46-23-5.19-30-5.79-19.41-1.65-38.23,1.79-38.24,4.28,0,1.38,10,1.49,10.08,3.27.17,3.1-29.82,6.35-29.66,10.34.07,1.76,5.94,2,6.3,4.45.43,3-7.6,5.24-15.66,10.39-5.29,3.38-10.85,9.81-22,22.65-11.85,13.7-11.63,15-16.68,18.67-8.87,6.5-17.73,8.5-23.75,9.81-13.35,2.88-19.46.67-35.85.81-18,.16-16,2.94-33.4,3.41-11.86.32-24.52-.37-25.06,2.44-.34,1.79,4.57,3.08,4.61,6.27,0,1.2-.65,3.19-10,8.37-5.77,3.19-9.49,4.64-16,8.42-5.3,3.08-8.1,5.19-7.76,6.95s3.33,1.76,3.61,3.41c.37,2.18-4.42,4.44-7.36,6.38-4.84,3.18-7.26,7.57-12.09,16.34a339.43,339.43,0,0,0-22.44,49.75,377.13,377.13,0,0,0,4.43,49.79c4.2,26.81,8.08,51.63,23.1,81.1,16,31.35,35.61,50.4,46.37,60.73,33.13,31.79,66.12,45.43,86.42,53.59,37.78,15.19,68.88,18.68,92.18,21.12,8,.84,22.23,1,46.36.75-8.65-2-17.85-2.69-23.88-3.84-40.4-7.75-82.74-16.63-120.52-35.17-11.21-5.5-21.95-9.07-29.81-19.72-2.71-3.68-7.49-10.15-5.92-16.42,2.15-8.64,15.76-14.73,34.3-13.71q-8.53-7.47-7.18-10.88c1.34-3.37,11.6.4,29.13-.63a128.7,128.7,0,0,0,13.95-1.72c28-3.93,64.88,16.75,74.49,22.44,18.9,11.18,26.13,19.78,42.66,20.52a52.84,52.84,0,0,0,18.3-2.5,55.5,55.5,0,0,1-15.71-12.4c-12.45-14.23-13.77-30.74-14-36.26-.11-3.19-.44-21.34,11.41-37,9.18-12.13,15.54-9.36,30-25.1,6.34-6.88,12.49-13.57,16-24.11,4.24-12.92-1-15.22,2.49-32.36A85.62,85.62,0,0,1,555,530.73a83.65,83.65,0,0,1,12.44-14.37L553.34,411.75l10,14.17q2.77-10.76,5.54-21.5,4.37,15,8.72,30,1.5-14.72,3-29.41,9.27,48.87,18.53,97.75a117.8,117.8,0,0,0,7.65,9.27c10,10.92,14.61,11.8,19.5,18.94,5.49,8,2.62,11.25,7.14,21.14,4.82,10.55,12.47,16.48,20.09,22.26,37.33,28.28,44.14,30.46,51.81,38.26,10.61,10.78,21.3,30.75,18.67,71.13,6.39-5.47,15.56-13.21,26.79-22.24,20.47-16.47,31.95-25.71,46.29-34.84a275.86,275.86,0,0,1,53.09-26.17q-1.86,6.4-3.71,12.82c8.64-2.86,16.11-5.18,22-7,13.08-4,17.75-5,23.86-5,6.81,0,13.66.06,17.3,4.52,5.48,6.71.21,19.21-1.75,23.86-7.89,18.7-23,29.16-30.64,34.33,0,0-65.62,44.3-65.6,44.35s20-10.58,92.53-49A241.08,241.08,0,0,0,953,592.12C959.55,578.72,971.41,554.05,975.57,519.12Z"/><path class="cls-1" d="M555.86,430.39c-5.21-11.92-11.6-25.12-19.2-40.74-9.11-18.72-17.3-33.61-22.67-43.07,25.86,72.9,36.7,129.27,33,147.59a62.2,62.2,0,0,1-11.93,25.68c-5.11,6-11.94,11-13.22,9.95s1-5.92,3.38-10.48c-2,11.72,5.08-23.33,5.73-35.21,1-17.85-4.59-31.48-15.71-58.74-7.33-18-17.08-37.68-19.31-36.83-2.43.92,8.73,24.34,7.32,58-.59,14.24-1.33,27.69-10.16,39.79-2.76,3.78-9.44,11.72-37.36,21.85-20.19,7.33-29.48,7.82-69.86,16.24-29.73,6.21-44.59,9.31-47.71,10-33.67,7.66-46.7,11.94-57.75,4.21-7.24-5.06-10.32-13-13.52-21.15-8.29-21.21-3.14-38.1-6.95-39-3.44-.84-9.31,12.55-15,25.46-6.19,14.13-9.29,21.2-10.15,31.44s.77,18.75-1.08,19.19c-2.11.49-5.24-10.48-7.78-10s-2.8,12.35-2.28,20.92c1,15.76,4.86,27,3.4,27.51s-5.35-10.54-7.78-10c-3.1.68-3,20.13,1.6,38.46,2.23,8.93,6.54,25.38,20.09,41.25,9.32,10.91,26.37,25.49,31.62,21.72,6.82-4.89-14.25-35-6.18-72.6,1.75-8.13,3.83-11.81,6.76-12.6,8.19-2.18,15,20.41,36,37.67,10.59,8.73,23.83,13,50.31,21.43,32.77,10.48,53.45,11.17,60.51,11.26,6.5.08,11.9-.22,15.66-.51,1.83,9.12,6.15,26.36,16.55,43.09,17.73,10.71,25,18.86,41.11,19.58a52.84,52.84,0,0,0,18.3-2.5,55.5,55.5,0,0,1-15.71-12.4c-12.45-14.23-13.77-30.74-14-36.26-.11-3.19-.44-21.34,11.41-37,9.18-12.13,15.54-9.36,30-25.1,6.34-6.88,12.49-13.57,16-24.11,4.24-12.92-1-15.22,2.49-32.36A85.62,85.62,0,0,1,555,530.73a83.65,83.65,0,0,1,12.44-14.37Z"/><path class="cls-1" d="M957.9,503.31c.45-12-1.34-20.49-3.4-30.3-.86-4.11-3.27-15.3-5.7-15.19-2.22.1-2.86,9.45-4.33,9.38-1.63-.07-1.1-11.42-5-24.95-3.1-10.89-8.52-21.39-11.2-20.8-2.05.46-1.11,7.12-3.14,7.65-3.23.85-8-15.47-17.88-30.24-13.32-19.86-32-31.12-33.75-29.45-1,1,4.9,5.94,8.48,16.73,4.23,12.72,2.08,24.23.88,30.23-1.43,7.21-3.81,19.18-12.1,27.48-10,10-23,9.16-39.13,10.52-42.07,3.53-39,16.1-83.85,20.5-19.34,1.9-38.37,1.37-58-2.84-20.8-4.46-30.47-10.54-33.2-12.32-15-9.85-22.76-22.48-28.1-31.47a122.93,122.93,0,0,1-16.36-49.76,217.66,217.66,0,0,0-1.07,41.72c1.31,18.59,2.07,29.33,7.52,42.23,8.84,20.9,23.74,32.6,20.16,37.43-1.33,1.81-4.56,1.7-8.72,1.56a32.06,32.06,0,0,1-14.88-4.95c-11.07-7.34-13.75-29.41-18.6-59.5-6.2-38.56-6.9-34-7.82-46.72-2.4-33.27,2.89-57.19,1.27-57.47-1.25-.21-5.23,13.81-8.1,30.32-1.3,7.48-4.47,27.59-3.24,61L580.64,405q9.27,48.87,18.53,97.75a117.8,117.8,0,0,0,7.65,9.27c10,10.92,14.61,11.8,19.5,18.94,5.49,8,2.62,11.25,7.14,21.14,4.82,10.55,12.47,16.48,20.09,22.26,37.33,28.28,44.14,30.46,51.81,38.26,10.61,10.78,21.3,30.75,18.67,71.13,5.23-4.49,12.36-10.51,20.94-17.5a70.58,70.58,0,0,0-.45-19.07c-1.83-11-2.68-20-.68-20.65,1.81-.56,5.28,5.91,6,5.52,1.27-.71-12.39-20.47-7.32-27.06,3.43-4.45,12.5.86,29.07.39,10.17-.28,17.24-2.58,27.45-5.9,31.79-10.32,52.12-29.64,61.59-38.82,12.11-11.76,17.75-20.59,19.37-23.21a106,106,0,0,0,11.88-25.92c5.18-17.25,3.3-27.67,7.39-28.67,3.21-.77,7.13,4.93,12.23,12.51,6.31,9.37,11,16.35,15.12,28.72,8.42,25.36,4,42.27,8.17,43.11,4.83,1,12.89-21.36,15.1-27.51C953.4,529.92,957.31,518.78,957.9,503.31Z"/><path class="cls-13" d="M514,346.58c8,22.54,14.55,43.49,19.69,62.23a559.26,559.26,0,0,1,22,74.84c2.82,12.87,5.1,26.81-.2,38.81-1.72,3.92-4.19,7.46-5.9,11.38a18.84,18.84,0,0,0-1.74,9.59,87.47,87.47,0,0,1,7.16-12.7,83.65,83.65,0,0,1,12.44-14.37l-11.61-86c-5.21-11.92-11.6-25.12-19.2-40.74C527.55,370.93,519.36,356,514,346.58Z"/><path class="cls-13" d="M609.76,506.21c-4.09-6.28-3.23-14.33-3.29-21.92-4.4-10.94-6.67-27.35-9.89-47.32-6.2-38.56-6.9-34-7.82-46.72-2.4-33.27,2.89-57.19,1.27-57.47-1.25-.21-5.23,13.81-8.1,30.32-1.3,7.48-4.47,27.59-3.24,61L580.64,405q9.27,48.87,18.53,97.75a117.8,117.8,0,0,0,7.65,9.27c9.52,10.41,14.17,11.7,18.81,18-1.16-5.74-7-14.24-9-16.37C614.28,511.17,611.61,509,609.76,506.21Z"/><path class="cls-14" d="M971.12,494.09c-4.17,34.92-16,59.59-22.56,73-20.13,41.27-46.38,65.46-62.61,80.13-30.22,27.29-58.2,41.31-79.22,51.64-18.65,9.17-39,15.21-58.48,22.13-35.81,12.7-71.42,26-108.7,33.54-39.63,8.07-80.18,10.27-120.6,10.8-48,.61-72.19.89-83.67-.32-23.29-2.44-54.4-5.93-92.17-21.12-20.31-8.16-53.3-21.8-86.43-53.59-10.76-10.32-30.41-29.38-46.37-60.72a201.38,201.38,0,0,1-17.92-51.52c4,25.09,8.21,48.75,22.38,76.55,16,31.35,35.61,50.4,46.37,60.73,33.13,31.79,66.12,45.43,86.42,53.59,37.78,15.19,68.88,18.68,92.18,21.12,11.48,1.2,35.7.92,83.67.32,40.42-.53,81-2.74,120.6-10.8C681.29,772,716.9,758.73,752.71,746c19.48-6.91,39.83-12.95,58.48-22.12,21-10.34,49-24.35,79.21-51.64,16.24-14.67,42.49-38.86,62.62-80.14,6.53-13.4,18.39-38.07,22.55-73,3.7-31-.47-54.65-5.42-79.57A202,202,0,0,1,971.12,494.09Z"/><path class="cls-15" d="M637.76,508.15c-3.42,5.24-4.57,10.06-5.79,15.21-.85,3.59-2.33,9.82-.59,10.74,2.54,1.34,8.51-10.34,14.37-9.14,2.75.56,4.56,3.76,5.76,7.08,3.2,8.78,15.61,19.26,22.32,25.53a114,114,0,0,0,62,29.36,142.48,142.48,0,0,0,54-3,134.18,134.18,0,0,0,51.66-24.39C855.47,548.59,868,535,876.73,519.32a83.32,83.32,0,0,0,9.51-25c1.06-5.71,0-16.18,6.11-19.38,1-.52,3.43-.68,8.33-1,10.52-.65,12.79.09,13.34-.86,1.12-1.89-5.37-9.28-36.78-32.45q-41.55,7.51-86.31,17.9c-30.59,7.17-52.88,15-102.62,27.4-13.5,3.35-24.68,6-32.24,7.76A37.94,37.94,0,0,0,637.76,508.15Z"/><path class="cls-16" d="M654.36,508.74l36.22-10a61.32,61.32,0,0,0,12.1,14.56,63.05,63.05,0,0,0,31.6,14.63c18.48,3.23,33-2.23,40.58-5.2,7-2.74,17-6.64,26.09-16.29,13.56-14.39,16-31.89,16.57-38.92l41.55-10.94L871.79,469a89,89,0,0,1-6,25.38c-6.6,16.52-16.48,26.58-22.25,32.33C831.27,539,819.39,545.08,809.71,550c-12.18,6.13-28.78,14.28-52.18,15.87C713.27,568.84,676.75,546.87,654.36,508.74Z"/><path class="cls-17" d="M822.67,523.08c6.18,1.94,12.5-7.26,15.14-11.7a11.11,11.11,0,0,0,1.6-3.87c.78-5.14-6.49-9.88-9.9-12.74-11.45-9.56-29.9-20.74-45.06-13.73,2.16,2.59,5.61,4,8.38,5.83a90.65,90.65,0,0,1,9,6.39,60.38,60.38,0,0,1,14.32,16.85C817.79,513.18,818.89,521.9,822.67,523.08Z"/><path class="cls-15" d="M529.41,527.44c5,3.74,7.76,7.87,10.69,12.28,2,3.07,5.58,8.41,4.26,9.88-1.92,2.13-11.55-6.77-16.65-3.62-2.38,1.48-3,5.1-3,8.63,0,9.35-8,23.47-12.13,31.67a113.93,113.93,0,0,1-48,48.94A142.36,142.36,0,0,1,412.92,651,134.23,134.23,0,0,1,356,646c-17-5.39-33.41-13.83-47-25.52a83.5,83.5,0,0,1-17.54-20.16c-3-5-5.64-15.16-12.43-16.08-1.08-.14-3.45.56-8.15,2-10.1,3-12,4.5-12.82,3.8-1.7-1.39,1.84-10.57,23.31-43.15,27.73-4.86,56.82-9.26,87.19-13,31.18-3.84,54.82-4.14,105.76-9.72,13.83-1.52,25.24-2.89,32.94-3.84A37.83,37.83,0,0,1,529.41,527.44Z"/><path class="cls-16" d="M514,533.73l-37.44,3.12a61.33,61.33,0,0,1-6.33,17.84,63.06,63.06,0,0,1-24.61,24.65c-16.22,9.4-31.72,9.29-39.87,9.12-7.53-.15-18.26-.36-30.12-6.28-17.69-8.83-26-24.4-29-30.8l-42.77,4.07-7.64,16a88.7,88.7,0,0,0,14.37,21.75c11.89,13.23,24.64,19.26,32,22.66,15.77,7.27,29,8.9,39.8,10.13,13.55,1.56,31.94,3.48,54.45-3.11C479.5,610.47,506.19,577.25,514,533.73Z"/><path class="cls-17" d="M361,605.3c-5.13,4-14.24-2.51-18.26-5.76a10.83,10.83,0,0,1-2.83-3.09c-2.5-4.54,2.68-11.5,4.9-15.36,7.44-12.93,20.89-29.79,37.54-28.45-1.13,3.18-3.87,5.73-5.85,8.37a89.42,89.42,0,0,0-6.21,9.09,60.36,60.36,0,0,0-7.63,20.76C362.18,594.31,364.16,602.88,361,605.3Z"/><path class="cls-15" d="M509.27,711.73c3.93,1,23.09-43.47,25.29-47.1,10.42-17.18,24-32.69,40.7-43.81,13.69-9.12,29.8-16,46.46-15.77A50.87,50.87,0,0,1,647.9,613c2.88,1.78,20.11,17.48,21.84,16.21.63-.46.56-1.42.39-2.19-9-42.57-65.65-31.66-92.84-17.87-.82.42-1.64.84-2.45,1.28-19.7,10.67-35,28.31-45.7,47.93C526.7,662.8,504.18,709.41,509.27,711.73Z"/><path class="cls-15" d="M603.32,603.5l-2.46-13.37a92.27,92.27,0,0,0,11.29-10.31,71.89,71.89,0,0,0,5.65-7.21l.74-1.14s-.71,1.16-.74,1.14a1.65,1.65,0,0,1,.74-1.14c1.11-.47,2.35,2.52,4.22,2.66s3.69-2.92,5.33-5.88a22.44,22.44,0,0,0,3.22-9.31c.23-2.6.57-6.39-1.38-7.74-1.79-1.22-4.49.27-7.93,1.8-5,2.21-10.46,3.21-15.6,5a108,108,0,0,1-25.25,5.64c-10.09,1-15.25,1.54-22.46.2-5.3-1-9.62-2.59-11-.7-1.62,2.22,1.25,6.62,2.65,8.37,2,2.55,4.81,4.29,7.39,6.21,2.11,1.56,4.89,6.15,7.84,5.79,1.85-.23,2.16-2.44,4-3,2.71-.82,5.44,3.16,8.52,5.71,2.86,2.36,7.59,4.86,15.72,5q1.4,7,2.8,13.92l3,.76Z"/><path class="cls-18" d="M622,553c-5,2.21-10.46,3.21-15.6,5a108,108,0,0,1-25.25,5.64c-10.09,1-15.25,1.54-22.46.2-4.71-.87-8.64-2.23-10.43-1.2.8,1,1.79,2.07,2.92,3.29,5.27,5.72,12.28,9.32,19.32,12.26,6.3,2.63,12.79,6.64,19.76,6.74s12-3.26,16.92-7.62c5.56-4.9,10.83-10.13,16-15.45,1.3-1.33,2.72-2.53,4.08-3.79,1.55-1.44,5.71-4.82,2.67-6.91C627.69,549.67,624,552.09,622,553Z"/><path class="cls-5" d="M561.55,577.74c-19,7.48-37.73,15.83-56,25.11Q479.37,616.2,454.5,632c-16.83,10.73-33.09,22.32-48.8,34.63a564.32,564.32,0,0,0-43.42,37.73,531.83,531.83,0,0,0-38.63,41.37q-2.23,2.67-4.42,5.35a8.09,8.09,0,0,0-2.2,5.31,7.63,7.63,0,0,0,2.2,5.3c2.74,2.52,8,3.25,10.61,0A526.14,526.14,0,0,1,365.7,722q19.2-19.2,40.24-36.46,5.3-4.35,10.69-8.57l2.58-2-.54.42.65-.5,1.47-1.12q2.77-2.12,5.57-4.2,11.08-8.26,22.55-16,23-15.54,47.4-28.9,24.68-13.55,50.53-24.78c2.13-.93,4.26-1.84,6.4-2.75l-1.79.76q7-3,14.09-5.74a8.12,8.12,0,0,0,4.48-3.45,7.49,7.49,0,0,0-2.69-10.26c-1.67-.88-3.93-1.48-5.78-.75Z"/><path class="cls-5" d="M560,584q-23.09,19-44.3,40-21.06,20.94-40,43.86c-12.76,15.41-24.81,31.42-36,48a572.73,572.73,0,0,0-29.87,49.35,552.5,552.5,0,0,0-24.91,52.94c-.87,2.11-1.71,4.22-2.55,6.34a7.5,7.5,0,0,0,11,8.47,8.7,8.7,0,0,0,3.45-4.48q2.35-6,4.86-11.92l-.76,1.79q10.56-25,23.6-48.81,13.2-24.17,28.7-47,7.77-11.46,16.09-22.55,2.07-2.77,4.17-5.5c.34-.45.67-.89,1-1.33-.06.07-1.15,1.48-.41.52l.52-.66c.72-.94,1.46-1.87,2.19-2.81q4.35-5.52,8.82-10.95,17.89-21.69,37.7-41.67,20-20.22,41.87-38.54c1.8-1.52,3.62-3,5.44-4.51a7.52,7.52,0,0,0,2.19-5.31,7.49,7.49,0,0,0-7.5-7.5A8.59,8.59,0,0,0,560,584Z"/><path class="cls-5" d="M560.69,580.8a655.74,655.74,0,0,0-58,35.43,679.82,679.82,0,0,0-54.65,41.69,648.09,648.09,0,0,0-49,46.05A637.86,637.86,0,0,0,317,809.87c-1.4,2.27-2.78,4.56-4.14,6.85-2,3.37-.87,8.38,2.69,10.26a7.65,7.65,0,0,0,10.26-2.69,605.75,605.75,0,0,1,36.76-54.59l2.44-3.21,1.23-1.6c.28-.37.86-1.1-.44.56l.87-1.12c1.69-2.18,3.4-4.34,5.12-6.5q5.17-6.47,10.51-12.81,10.71-12.71,22.08-24.84a645.54,645.54,0,0,1,48-46.19Q464.91,663,478,652.76l3.24-2.52c-2,1.55,0,0,.43-.32l2-1.5q3.25-2.49,6.56-4.93,6.75-5,13.65-9.85A652.8,652.8,0,0,1,561,597.73q3.6-2,7.23-4A7.56,7.56,0,0,0,571,583.49a7.64,7.64,0,0,0-10.26-2.69Z"/><path class="cls-5" d="M620.56,582.32q29.67.66,59.18,4.15,3.66.43,7.3.91l1,.13,1,.14,3.76.53q7.24,1,14.48,2.26Q721.69,592.85,736,596q28.38,6.21,56.07,15.14,13.62,4.41,27,9.48,6.66,2.53,13.24,5.22l3.17,1.31,1.58.66c.26.11,1.27.54.23.1s.34.14.46.19c2.09.9,4.18,1.8,6.27,2.72a529.65,529.65,0,0,1,50.3,25.38c2,1.16,4,2.32,6,3.51,3.38,2,8.38.87,10.27-2.7a7.65,7.65,0,0,0-2.69-10.26,527.3,527.3,0,0,0-50.08-26.09A580.86,580.86,0,0,0,803.05,599q-27.7-9.36-56.26-15.92c-19.65-4.53-39.51-8-59.5-10.64-19.68-2.58-39.49-4.21-59.32-4.89q-3.71-.12-7.41-.2a7.56,7.56,0,0,0-7.5,7.5,7.65,7.65,0,0,0,7.5,7.5Z"/><path class="cls-5" d="M618.41,586.73q19,6.62,37.57,14.44l-1.79-.76q23.65,10,46.44,21.9t44.25,25.55q21.24,13.5,41.3,28.76l2.44,1.87c1,.78-1.33-1,0,0l1.45,1.13q2.41,1.89,4.82,3.81,4.86,3.89,9.64,7.87,9.59,8,18.82,16.42,18.09,16.53,34.63,34.66,2,2.2,4,4.44c2.62,2.94,8,2.87,10.61,0a7.68,7.68,0,0,0,0-10.61,531.92,531.92,0,0,0-40-40.32,586,586,0,0,0-45.86-37.47Q763.21,641,738.11,626.08,712.75,610.94,686,598.31q-27.72-13.12-56.61-23.56-3.49-1.26-7-2.48c-3.71-1.29-8.37,1.47-9.22,5.24a7.67,7.67,0,0,0,5.23,9.22Z"/><path class="cls-5" d="M618.48,584.53a654.62,654.62,0,0,1,130.24,32.84q7.83,2.85,15.58,5.9c2.62,1,5.24,2.08,7.84,3.15l3.67,1.51,1.94.81c.37.16,1.31.58-.33-.14l1,.41q15.4,6.54,30.44,13.86a636.25,636.25,0,0,1,58,32.07q13.94,8.7,27.38,18.12,6.8,4.77,13.48,9.72,3.23,2.4,6.42,4.84l1.44,1.1.82.63c-1.39-1.1-.59-.46-.29-.22l3.47,2.71q3.15,2.49,6.27,5a8.14,8.14,0,0,0,5.31,2.2,7.63,7.63,0,0,0,5.3-2.2c2.51-2.73,3.26-8,0-10.61a626.08,626.08,0,0,0-54.75-39.64,633.74,633.74,0,0,0-57.71-33A667.83,667.83,0,0,0,761.14,606a655.26,655.26,0,0,0-130.22-34.69c-2.81-.45-5.63-.87-8.45-1.28a8.28,8.28,0,0,0-5.78.75,7.64,7.64,0,0,0-3.44,4.49c-.81,3.55,1.08,8.62,5.23,9.22Z"/><path class="cls-19" d="M835.36,667.85c63.29,35.29,82.69,118.28,66.12,181-8.22,31.07-26.66,57.1-48.29,81.82-18.3,20.92-40.46,37.33-64.07,52.73-50.74,33.11-101.6,65.84-150.22,101.63l-22.08-11.56a551.65,551.65,0,0,1-88.48-60.55c-35.91-30.16-70.16-64.07-95.66-102.42-39.87-60-56.22-139.73-7.53-201.78,13.61-17.35,31.55-32,52.87-40.65,61.47-24.89,125.78,13.28,156.19,61.16a83,83,0,0,1,8.92-21.72C656.38,684.92,677,674,689.86,667.26,734.79,643.55,791.85,643.59,835.36,667.85Z"/><path class="cls-20" d="M798.28,715c51.07,28.48,66.73,95.45,53.35,146-6.63,25.07-21.51,46.08-39,66C797.9,944,780,957.2,761,969.64c-40.94,26.71-82,53.12-121.22,82l-17.81-9.33a445.18,445.18,0,0,1-71.4-48.85c-29-24.34-56.61-51.7-77.19-82.65C441.17,862.42,428,798.05,467.27,748c11-14,25.46-25.84,42.66-32.8,49.61-20.08,101.5,10.72,126,49.36A67.1,67.1,0,0,1,643.16,747c10.7-18.2,27.36-27,37.71-32.46C717.13,695.43,763.17,695.46,798.28,715Z"/><path class="cls-21" d="M795,865c9.17-20.84,12-44.52,4.45-65.82-8.5-23.86-29.14-39.35-52.61-50.44C740,745.54,733,742.59,726,739.57c-7.21-3.12-19.87-6.13-16.65-16.14,2-6.14,7-9.39,13.66-10.46,54.72-8.81,109.48,34.09,118.84,82.22,4.51,23.16-1.57,46.57-12.71,67.76a166.56,166.56,0,0,1-19.74,29.36c-6.61,7.91-15.31,18-27.14,18-1.6,0-5.37,0-7-2.2-3.59-4.71,2.47-11.84,5.11-15.89A190.6,190.6,0,0,0,795,865Z"/><path class="cls-8" d="M632.65,1026.29a2.41,2.41,0,0,0,.82-1.27c.41-1.43-.6-2.83-1.61-3.95-5.69-6.34-13-11.21-20.11-16.24-41.82-29.72-77.21-67.52-100.34-111.43-11.73-22.28-20.37-46.51-20.33-71.51s9.59-50.9,29.61-68.17c4.42-3.81,9.34-7.22,12.88-11.74,2.67-3.41,4.5-7.71,4.1-11.92-.45-4.74-3.62-5.75-8.47-5.86-9.25-.22-18.11,5-24.86,10.55a109.89,109.89,0,0,0-33.6,46.33c-12,32.21-6.66,68,8.13,98.64s38.34,56.77,63.24,81,51.83,47.36,82.89,64.81C627.29,1026.87,630.93,1027.67,632.65,1026.29Z"/><path class="cls-1" d="M358,782.07c-51.27,54.93-49.73,162.52,1.56,216.56,19.1,20.14,41.24,28.23,49.87,31.27,27.07,9.56,62,11.92,90.12,5.76,38.36-8.41,67.68-46.24,42.55-81.2-22-30.6-66.69-26-99.62-38.71-44.08-17-57.43-66.81-51.71-107.68,1.33-9.5,11.32-29.28-1.09-35.64C378.13,766.53,367.22,772.17,358,782.07Z"/><path class="cls-2" d="M549.26,994.89a188.84,188.84,0,0,1-39.45,9c-33.16,3.87-67.15-.73-98.53-11.5-11.55-4-22.9-8.83-32.53-16-7.12-5.31-13.15-11.79-18.81-18.47-17.85-21.07-32.46-45.28-39.6-71.51-.54,42,12.64,84.28,39.2,112.26,19.1,20.14,41.24,28.23,49.87,31.27,27.07,9.56,62,11.92,90.12,5.76C522.87,1030.54,542.85,1014.52,549.26,994.89Z"/><path class="cls-1" d="M787.67,937.72c-14.29,9.36-26.06,23.77-28.78,37.39-3.93,19.66,5.18,47.12,28.68,50.79,9.14,1.43,18.55-1.17,26.69-5.33,25.64-13.08,42.55-43.76,32.72-70.7C836.44,921,809.2,923.63,787.67,937.72Z"/><path class="cls-2" d="M831.48,996.45a82.93,82.93,0,0,1-44.26,2.75,87.33,87.33,0,0,1-21.88-7.77c-2.08-1-4.61-2.91-7.28-4.64.83,17.45,10.42,36.13,29.51,39.11,9.14,1.43,18.55-1.17,26.69-5.33a67.93,67.93,0,0,0,29.28-29.4A106.87,106.87,0,0,1,831.48,996.45Z"/></g></g></svg>