<svg xmlns="http://www.w3.org/2000/svg" viewBox="0 0 327.53 310.04"><defs><style>.cls-1{fill:#f4dd7c;}.cls-2{fill:#ebd265;}.cls-3{fill:#908275;}.cls-4,.cls-8{fill:#72675f;}.cls-5{fill:#d2b39c;}.cls-6{fill:#8c7c77;}.cls-7{fill:#645b54;}.cls-8{opacity:0.45;}.cls-9{fill:#84716c;}.cls-10{fill:#dcc4b0;}.cls-11{fill:#c4ae9d;}.cls-12{fill:#f1e2d6;}.cls-13{fill:#dec4b1;}.cls-14{fill:#d2b49c;}.cls-15{fill:#6e7172;}.cls-16{fill:#b69e8c;opacity:0.23;}.cls-17{fill:#6e7273;}.cls-18{fill:#b4e2ed;}.cls-19{fill:#fffeff;}.cls-20{fill:#f1a7af;}.cls-21{fill:#fff;}</style></defs><g id="Layer_2" data-name="Layer 2"><g id="BG"><path class="cls-1" d="M164,77.17c10.34-2.7,25.84-9.46,36.42-8.81,11.12.68,23.3,13.24,31.46,20.58,3.57,3.22,7.09,6.61,11.39,8.74,3.32,1.64,7,2.47,10.3,4.13,5,2.49,8.81,6.69,12.52,10.82,9.3,10.34,16.46,22.52,27,31.47,10.92,9.26,24.15,15.64,32.58,27.71a8.07,8.07,0,0,1,1.87,4.77c-.09,2-1.51,3.69-2.85,5.2-33.44,37.41-68.18,75.8-113.63,97.08-15.46,7.24-31.84,12.32-47.42,19.3-12,5.38-24.14,12-37.31,11.88-12.84-.15-24.59-6.75-35.71-13.17-16-9.22-32.24-18.66-44.77-32.21C32.24,250,23,231.6,11,215.59c-15-20.06-10.24-28.85,6.3-46.27,25.8-27.18,54.91-51.67,87.8-69.83C124.36,88.88,143.78,82.43,164,77.17Z"/><path class="cls-2" d="M59.42,211.29l50.92,43.81c6.39,5.49,13.42,11.26,21.83,11.81,6.92.45,13.48-2.75,19.67-5.86l43.31-21.79c26.88-13.52,54.27-27.41,75.44-48.79a16.6,16.6,0,0,0,4.17-5.76c1.77-4.93-1.11-10.24-4.06-14.57A177.68,177.68,0,0,0,211,115.56c-8.36-4.68-17.57-8.77-27.13-8.19-6.82.42-13.24,3.17-19.47,6-26.48,11.83-52.79,25.22-74,45-9.91,9.26-18.74,20.08-30.18,27.56-3.82,2.5-12.87,4.73-13.58,9C45.75,200.41,56,208.35,59.42,211.29Z"/><path class="cls-2" d="M132.81,275.35c.48-.91,1.25-2,2.26-1.76.12,8.85-4.07,20-10.77,25.88C119.11,294.83,130.36,280,132.81,275.35Z"/><path class="cls-2" d="M277.84,180.64c6.34-4.26,13.49-8.72,21-7.58a45.45,45.45,0,0,1-20.7,8.15,1.93,1.93,0,0,1,.78-1.69"/><path class="cls-2" d="M45,183.54c-1.84-1.11-12.5,1.16-11.39-2.63C34.88,176.63,43.2,182.45,45,183.54Z"/><path class="cls-2" d="M20.3,197.34c3.78-4.35,14.58-3.31,17.31-9.08C31.19,188.37,24.41,192.6,20.3,197.34Z"/><path class="cls-2" d="M294.63,193.09A68.76,68.76,0,0,0,280,187.94C285.1,184.32,290.76,191.1,294.63,193.09Z"/><path class="cls-2" d="M205.24,100.3c-1.26,1.55-2.5,3.51-1.91,5.42,3.16-3.07,6.75-7.17,8-11.45C209,95.6,207,98.16,205.24,100.3Z"/><path class="cls-2" d="M146.34,293.45c.14.48.43,1.05.92,1s.57-.34.73-.63c1.27-2.41.55-5.34-.21-8-1-3.34-1.64-7.06-3.1-10.2C143.29,280.79,144.85,288.35,146.34,293.45Z"/><path class="cls-2" d="M194.93,89.73c1,.3,1.44,1.55,1.61,2.62a24.62,24.62,0,0,1-.29,10.33C195.31,98.53,195.32,94,194.93,89.73Z"/><path class="cls-3" d="M217.77,115.61a10.42,10.42,0,0,0,2,2.3,76.68,76.68,0,0,0,5.45-30.61,5.83,5.83,0,0,0,5,2.27c-.78-2.93.82-5.88,2.36-8.42,4.5-7.42,9.44-12.91,17.34-16.39,8.78-3.88,19.41-5.39,28.76-2.52a25,25,0,0,1,17.13,26.53,9.72,9.72,0,0,1-1.73,4.93,9,9,0,0,1-3.77,2.64c-7.12,3-15.39,1.06-22.3-2.57L270.61,99a13.34,13.34,0,0,0-16.91,2.25c-2.24,2.54-3.47,5.85-4.65,9.07-1.05,2.84-2.1,6-1.23,8.87l4.48-3.33c-2.38,2.31-3.05,5.95-3.31,9.35s-.27,7-1.78,10c-2.45,4.88-8.14,6.93-13.42,7.49-3.39.36-6.95.25-10.06-1.28a6.14,6.14,0,0,1-2.6-2.16,8.1,8.1,0,0,1-.9-3c-.57-3.42-1-6.81-1.72-10.19C217.94,123.35,219.22,117.84,217.77,115.61Z"/><path class="cls-4" d="M291.09,76.22A6.3,6.3,0,0,0,284.83,72a7.81,7.81,0,0,1,0,4.34,81.26,81.26,0,0,0-30.32,5.94A4.85,4.85,0,0,1,258,85.15a14.66,14.66,0,0,0-15.82,5.79,7.88,7.88,0,0,1,5.21-.67c.28,1.17-.72,2.18-1.57,3a33.53,33.53,0,0,0-9.92,17.3,5.7,5.7,0,0,0,4.49-3.14,24.09,24.09,0,0,1-1.26,7.32c-1.5,4.08-5.58,7.41-6.31,11.7-.66,3.88-.11,9.45,2.19,12.68a9.28,9.28,0,0,0,3.15,2.77c3.81-1.07,7.31-3.12,9.1-6.67,1.51-3,1.53-6.57,1.78-10s.93-7,3.31-9.35l-4.48,3.33c-.87-2.92.18-6,1.23-8.87,1.18-3.22,2.41-6.53,4.65-9.07A13.34,13.34,0,0,1,270.61,99L268,93.77c6.91,3.63,15.18,5.52,22.3,2.57a9,9,0,0,0,3.77-2.64,9.72,9.72,0,0,0,1.73-4.93,24.77,24.77,0,0,0-3-14.85c-.8-.77-1.66-1.5-2.51-2.19C290.6,73.22,290.85,74.72,291.09,76.22Z"/><path class="cls-5" d="M82.25,183.07s-16.12,10.93,2.25,19c14.45,6.51,38.42,9.13,66.68,6.61,22.89-3.17,83.44.76,88.75-52.7a20.25,20.25,0,0,0-.06-2.58c-2.29-68.51-110.48-73.11-147.71-30.66C82.63,162.88,80,164.09,82.25,183.07Z"/><path class="cls-6" d="M71.57,150.36C52.9,162.27,59.39,197.31,73,210.27a42.9,42.9,0,0,0,41.78,9.64c4.36-1.39,9.17-4.61,8.75-9.17-.28-3-2.85-5.32-5.45-6.89-6.49-3.92-14.13-5.38-21.2-8.13s-14.12-7.49-16.2-14.78,1.26-14.68,2.12-22.11c.27-2.22.25-4.66-1.1-6.44C78.51,148.2,74.91,148.23,71.57,150.36Z"/><path class="cls-4" d="M143.73,160.3c18.67,11.9,12.18,46.95-1.4,59.91a42.91,42.91,0,0,1-41.79,9.64c-4.36-1.39-9.17-4.62-8.75-9.18.28-3,2.85-5.31,5.46-6.89,6.49-3.92,14.13-5.37,21.19-8.12s14.13-7.49,16.2-14.78-1.25-14.69-2.12-22.11c-.26-2.22-.24-4.66,1.11-6.44C136.8,158.14,140.4,158.17,143.73,160.3Z"/><path class="cls-7" d="M162.57,197.53c-7.89,1.52-14.75,4.89-17.24,13.14-3.07,10.19,13.73,13.05,20.41,14.36,2.76.55,5.92.33,8.73.33,18.95,0,39.52-4.06,54.37-16.54,9.47-7.94,15.47-18.87,18-30.89,3.52-16.45,2.41-29.89-6.79-43.75a74.9,74.9,0,0,0-14.36-16c2.41,2,3.91,8.13,4.93,11,6,16.83,6.08,36.76-7.23,50.19-9.43,9.51-23,13.79-35.89,15.94C180.86,196.42,171.11,195.88,162.57,197.53Z"/><path class="cls-8" d="M174.69,171c.49-.29,1-.56,1.52-.81,5.88-2.87,13.73-1.16,19-4,8.74-4.62,13.08-19.29,13.79-28.29.62-7.9-2.1-16.56-8.74-20.88l3.73-.92-12.09-11.47c-2.56-2.44-5.6-5.05-9.13-4.74-1.34.12-2.81.91-3,2.24a3.87,3.87,0,0,0,.53,2c2.62,5.45,5.63,10.79,7,16.68,3.8,16.51-11.48,23.55-22.61,32.24-4,3.1-8.16,7.56-12.67,9.78-3.49,1.72-7.74,2.33-11.42,3.82-7.9,3.22-15.45,7-23.16,10.66-6.07,2.87-12,7.58-18.77,8.71-6.43,1.08-13.12-1.28-19.49.12C75.73,187,72,190,73,193.44c.64,2.23,3,3.48,5.23,4.12s4.64.92,6.52,2.29a1.69,1.69,0,0,1,.85,1.37l-2.79.16c4.74-.54,11-2.45,15.54-1,1.71.57,9.43,5.52,7.63,8,1-1.35,2-2.71,3-4.06a16.24,16.24,0,0,0,11.3,5.1c-.33-1.41-.67-2.82-1-4.23,3.19.8,8.39,1.62,11.4-.07,1.66-.94,4.43-4.78,6.84-6.22a43,43,0,0,1,21.82-6.08l1-9.17a15.14,15.14,0,0,1,3.85,2.64C164.6,179.89,169.06,174.25,174.69,171Z"/><path class="cls-9" d="M182.29,70c1.69-2.47,2.13-4.65,3-8.89,4.35-21.52-7.59-42.26-20.78-58.12a8.43,8.43,0,0,0-3.32-2.8c-4-1.46-6.12,4.83-7.69,7.34-2.77,4.44-5.35,9.1-8.79,13-3.31,3.77-7,7.19-10.1,11.15-6.32,8-16.13,21-11.34,31.9,3,6.72,11.11,9.12,22.49,12.47,4.66,1.38,7,2.06,10.26,2.37C158.44,78.71,175.3,80.29,182.29,70Z"/><path class="cls-10" d="M178.82,66.66a4.21,4.21,0,0,0,.61-.52,7.89,7.89,0,0,0,1.68-3,36.91,36.91,0,0,0,1.62-14.59A67.65,67.65,0,0,0,175.13,22a66.33,66.33,0,0,0-5.78-9c-1.68-2.19-3.48-5.72-5.85-7.15-1-.63-2.78-1.38-3.85-.53a3.25,3.25,0,0,0-.87,2.22c-.59,4-2.82,7.48-3.5,11.45-.59,3.42-.62,6.94-1.65,10.27a35.26,35.26,0,0,1-6.6,12.1c-2.52,3-5.73,4.84-6.53,9-.14.73-1.12,5.84,1.62,8.56s6.49.51,12.76.69c5.09.15,9.71,2,14.14,4.42C171.6,65.45,175.87,68.65,178.82,66.66Z"/><path class="cls-11" d="M175.13,22a66.33,66.33,0,0,0-5.78-9c-1.68-2.19-3.48-5.72-5.85-7.15-1-.63-2.78-1.38-3.85-.53a3.25,3.25,0,0,0-.87,2.22c-.59,4-2.82,7.48-3.5,11.45-.59,3.42-.62,6.94-1.65,10.27a35.26,35.26,0,0,1-6.6,12.1c-2.52,3-5.73,4.84-6.53,9a15.47,15.47,0,0,0-.27,3.48c5.87-3.19,10.92-9.85,13.82-15.36a39.1,39.1,0,0,0,4.18-12.95c.49-3.63.56-7.54,2.62-10.54.75-1.11,2-2.1,3.29-1.79a4.24,4.24,0,0,1,2.05,1.57,113.48,113.48,0,0,0,8.19,8.51,6.65,6.65,0,0,0,2.11,1.49C176.06,23.83,175.6,22.92,175.13,22Z"/><path class="cls-9" d="M17,108.26c-2.6-1.49-3.95-3.25-6.58-6.68C-2.95,84.15-1.32,60.28,3.56,40.23a8.48,8.48,0,0,1,1.76-4c2.93-3.06,7.62,1.65,10.13,3.22,4.43,2.77,8.81,5.82,13.62,7.84,4.63,2,9.45,3.39,14,5.59,9.2,4.44,23.71,11.79,24.19,23.68.3,7.33-6,13.08-14.73,21.09-3.58,3.27-5.37,4.91-8.18,6.63C42.23,105.58,27.77,114.41,17,108.26Z"/><path class="cls-10" d="M18.63,103.7a4.9,4.9,0,0,1-.78-.19,8.06,8.06,0,0,1-2.85-2,37,37,0,0,1-7.86-12.4A67.73,67.73,0,0,1,2.35,62,65.45,65.45,0,0,1,3.59,51.34c.55-2.71.62-6.66,2.11-9,.65-1,1.9-2.46,3.23-2.16.79.17,1.3.93,1.76,1.6,2.29,3.36,5.81,5.49,8.17,8.76,2,2.82,3.6,6,6,8.5a35.13,35.13,0,0,0,11.24,8c3.59,1.62,7.28,1.84,9.81,5.21.44.59,3.57,4.75,2.3,8.4s-5.6,3.31-11.15,6.22c-4.52,2.37-7.87,6-10.77,10.18C24.59,99.44,22.15,104.2,18.63,103.7Z"/><path class="cls-11" d="M2.35,62A65.45,65.45,0,0,1,3.59,51.34c.55-2.71.62-6.66,2.11-9,.65-1,1.9-2.46,3.23-2.16.79.17,1.3.93,1.76,1.6,2.29,3.36,5.81,5.49,8.17,8.76,2,2.82,3.6,6,6,8.5a35.13,35.13,0,0,0,11.24,8c3.59,1.62,7.28,1.84,9.81,5.21a15.63,15.63,0,0,1,1.77,3C41,75,33.54,71.17,28.51,67.5a39.3,39.3,0,0,1-9.45-9.8c-2-3.05-3.8-6.53-7-8.32-1.17-.66-2.72-1-3.75-.16a4.31,4.31,0,0,0-1.15,2.3A112.49,112.49,0,0,1,3.57,62.77,6.32,6.32,0,0,1,2.32,65C2.31,64,2.32,63,2.35,62Z"/><path class="cls-12" d="M202.82,101.21a85.9,85.9,0,0,0-11-25.45,60.59,60.59,0,0,0-8.71-11,55.68,55.68,0,0,0-15.27-10.71c4.84-.36,5.88-.92,5.91-1.36.05-.95-4.44-2.65-9-2.86-3.41-.16-6.24.56-6.39,0s2.91-1.59,2.75-2.28-4.11-.57-7-.21c-3.92.48-6.35,1.38-6.52,1-.23-.58,4.15-2.61,3.95-3.11s-5.76.83-11.49,3.39c-3.95,1.76-4,2.29-7.6,3.76A49.55,49.55,0,0,1,123,55.12c-4.86.9-7.34.61-11.4.81a89.7,89.7,0,0,0-29.38,6.8c-3.74,1.59-5.83,3-10.59,4.27a49.77,49.77,0,0,1-9.81,1.72c-3.9.27-4.16-.19-8.48,0-6.28.21-11.86,1.42-11.81,2s4.87.44,4.91,1c0,.45-2.55.72-6.28,2-2.71.93-6.34,2.5-6.16,3.25s3.37.26,3.48.84S34.73,79,31.73,80.61c-4,2.17-7.26,5.67-6.79,6.5.22.39,1.4.43,5.91-1.37a55.52,55.52,0,0,0-9,16.32,61.19,61.19,0,0,0-3,13.71,85.78,85.78,0,0,0,1.33,27.68c1.32,6.31,2.54,12.14,6.46,19a52.13,52.13,0,0,0,11.72,13.83,60.21,60.21,0,0,0,21.14,11.66,76.26,76.26,0,0,0,22.11,3.89c2.73.15,8.47-.21,19.84-.94a153.3,153.3,0,0,0,28.46-4c8.74-2.25,17-5.82,25.36-9.27,4.53-1.87,9.28-3.55,13.59-6A75.74,75.74,0,0,0,187,158.4a60.27,60.27,0,0,0,13.87-19.75,51.84,51.84,0,0,0,4.46-17.58C205.87,113.23,204.4,107.45,202.82,101.21Z"/><path class="cls-13" d="M205.33,121.07c.54-7.84-.93-13.62-2.51-19.86a89.43,89.43,0,0,0-2.94-9.39c-1.4-2-3.09-4.35-5.13-6.81-3.64-4.39-7-8.36-12.6-10.94a27,27,0,0,0-8.27-2.28c3.18-1,3.84-1.54,3.8-1.88-.1-.74-3.76-1.07-6.93-.77A40,40,0,0,0,164,70.62c-.06-.17,5.79-1.84,5.64-2.85-.12-.79-3.79-1.16-7-.47a15,15,0,0,0-3.74,1.32l1.73-2.23-8.09.78A33,33,0,0,0,141.14,71c-4.52,2.55-6.77,3.83-8.08,5.52-.57.73-1.47,2-3,2.26-1.24.17-2.33-.5-3.53-1.25-1.94-1.22-2-2-3.84-3.12A7.24,7.24,0,0,0,119.29,73c-2.9-.19-5,2.39-5.41,2s2-3,1.61-3.41-3.25,1.28-5.65,4.1C107.6,78.28,108,79.31,106,81a11.51,11.51,0,0,1-5.88,2.58c-2,.28-2.72-.12-7.78-1a58.93,58.93,0,0,0-7.19-1c-4.62-.15-9,.89-9,1.48,0,.33,2.38.23,2.43.65.07.73-7,1.87-6.91,2.81,0,.42,1.43.4,1.55,1s-1.74,1.34-3.59,2.65c-1.21.87-2.45,2.46-4.93,5.64-2.65,3.39-2.58,3.69-3.73,4.63a14.1,14.1,0,0,1-5.51,2.61c-3.13.85-4.61.39-8.49.63-4.27.25-3.75.89-7.88,1.21-2.81.22-5.82.21-5.91.88-.06.43,1.12.67,1.17,1.43,0,.29-.11.76-2.27,2.11-1.33.82-2.19,1.21-3.69,2.19-1.22.79-1.86,1.33-1.76,1.74s.81.37.9.76-1,1.11-1.67,1.6c-1.11.82-1.63,1.89-2.67,4A82,82,0,0,0,18.5,131.7a91.09,91.09,0,0,0,1.66,11.75c1.32,6.31,2.54,12.14,6.46,19a52.13,52.13,0,0,0,11.72,13.83,60.21,60.21,0,0,0,21.14,11.66,76.26,76.26,0,0,0,22.11,3.89c1.91.1,5.28,0,11-.38-2.08-.37-4.27-.42-5.71-.63-9.67-1.34-19.82-2.93-29-6.87-2.72-1.17-5.31-1.89-7.3-4.32-.69-.84-1.9-2.31-1.61-3.82.41-2.07,3.56-3.68,8-3.66-1.41-1.12-2-1.95-1.83-2.5.27-.81,2.75,0,6.9-.5a31.94,31.94,0,0,0,3.28-.57c6.6-1.28,15.59,3.18,17.93,4.41,4.62,2.42,6.43,4.38,10.36,4.35a12.58,12.58,0,0,0,4.31-.81A13.35,13.35,0,0,1,94,173.73a13.89,13.89,0,0,1-3.75-8.43,14.38,14.38,0,0,1,2.26-8.91c2-3,3.57-2.4,6.81-6.31a15.12,15.12,0,0,0,3.49-5.91c.85-3.11-.41-3.59.2-7.7a20.49,20.49,0,0,1,2.75-7.56,19.88,19.88,0,0,1,2.78-3.56l-4.62-24.63,2.55,3.24,1.05-5.16,2.43,7,.36-7,5.58,22.95a26.9,26.9,0,0,0,1.92,2.1c2.5,2.47,3.61,2.62,4.85,4.26,1.4,1.84.76,2.63,1.95,4.92a13.72,13.72,0,0,0,5,5c9.19,6.25,10.84,6.68,12.75,8.44,2.64,2.43,5.42,7,5.29,16.64,1.44-1.38,3.52-3.32,6.08-5.6a120.41,120.41,0,0,1,10.55-8.82,65.2,65.2,0,0,1,12.27-6.85c-.24,1-.49,2.06-.73,3.09,2-.78,3.76-1.43,5.14-1.92,3.05-1.09,4.14-1.41,5.59-1.48,1.62-.07,3.24-.15,4.16.87,1.38,1.52.28,4.55-.13,5.67a18.78,18.78,0,0,1-6.84,8.51s-15,11.3-15,11.31l21.34-12.74a57.24,57.24,0,0,0,10.76-16.53A51.84,51.84,0,0,0,205.33,121.07Z"/><path class="cls-14" d="M104.76,105.11c-1.38-2.76-3.05-5.81-5-9.42-2.39-4.33-4.51-7.76-5.9-9.94,7,17,10.27,30.2,9.62,34.59a14.79,14.79,0,0,1-2.52,6.23c-1.14,1.49-2.69,2.76-3,2.52s.16-1.41.67-2.52c-.33,2.8.93-5.6.93-8.42,0-4.24-1.47-7.41-4.43-13.74-2-4.17-4.51-8.72-5-8.49s2.36,5.66,2.43,13.65c0,3.38,0,6.58-1.92,9.55-.61.93-2.1,2.9-8.6,5.64-4.69,2-6.89,2.21-16.36,4.69l-11.19,3c-7.89,2.23-10.93,3.4-13.64,1.7-1.78-1.11-2.6-2.94-3.46-4.85-2.22-4.93-1.21-9-2.12-9.17s-2.06,3.09-3.24,6.22c-1.3,3.42-1.95,5.14-2,7.57s.41,4.44,0,4.57-1.37-2.42-2-2.28-.51,3-.28,5c.42,3.73,1.47,6.34,1.14,6.48s-1.4-2.43-2-2.28c-.73.2-.46,4.81.84,9.1A22.92,22.92,0,0,0,32.94,164c2.34,2.47,6.56,5.72,7.76,4.77,1.55-1.25-3.81-8.12-2.35-17.14.32-2,.77-2.85,1.45-3.07,1.92-.62,3.81,4.66,9,8.49,2.62,1.95,5.81,2.79,12.19,4.48a48.64,48.64,0,0,0,14.48,1.93c1.54-.06,2.82-.19,3.7-.31a31.49,31.49,0,0,0,4.45,10c4.33,2.32,6.17,4.16,10,4.14a12.58,12.58,0,0,0,4.31-.81A13.35,13.35,0,0,1,94,173.73a13.89,13.89,0,0,1-3.75-8.43,14.38,14.38,0,0,1,2.26-8.91c2-3,3.57-2.4,6.81-6.31a15.12,15.12,0,0,0,3.49-5.91c.85-3.11-.41-3.59.2-7.7a20.49,20.49,0,0,1,2.75-7.56,19.88,19.88,0,0,1,2.78-3.56Q106.66,115.24,104.76,105.11Z"/><path class="cls-14" d="M201,117.53a26.85,26.85,0,0,0-1.17-7.14c-.25-1-1-3.59-1.54-3.53s-.56,2.27-.91,2.28-.4-2.7-1.47-5.86c-.87-2.55-2.28-5-2.91-4.79-.48.13-.18,1.7-.65,1.85-.76.24-2.08-3.57-4.61-7-3.39-4.54-8-7-8.35-6.57-.24.25,1.23,1.35,2.21,3.86a13.77,13.77,0,0,1,.57,7.16c-.25,1.73-.67,4.59-2.53,6.66-2.24,2.48-5.34,2.45-9.15,3-9.93,1.34-9,4.29-19.63,5.87a44,44,0,0,1-13.79,0,22.46,22.46,0,0,1-8-2.52,21.08,21.08,0,0,1-7-7.12,29.28,29.28,0,0,1-4.48-11.6,51.7,51.7,0,0,0,.25,9.91c.54,4.39.85,6.93,2.3,9.92,2.35,4.85,6,7.44,5.23,8.63-.29.44-1.06.46-2.05.47a7.62,7.62,0,0,1-3.59-1c-2.71-1.61-3.61-6.81-5.12-13.88-1.94-9.07-2-8-2.42-11-1-7.86,0-13.59-.4-13.64s-1.07,3.34-1.55,7.28a67.78,67.78,0,0,0,0,14.49l.23-4.54,5.58,22.95a26.9,26.9,0,0,0,1.92,2.1c2.5,2.47,3.61,2.62,4.85,4.26,1.4,1.84.76,2.63,1.95,4.92a13.72,13.72,0,0,0,5,5c9.19,6.25,10.84,6.68,12.75,8.44,2.64,2.43,5.42,7,5.29,16.64,1.18-1.13,2.8-2.64,4.75-4.41a17.11,17.11,0,0,0-.34-4.51c-.57-2.6-.88-4.72-.41-4.89s1.32,1.34,1.48,1.24-3.18-4.7-2.06-6.33c.76-1.09,3,.06,6.9-.26a21.22,21.22,0,0,0,6.43-1.73,37.18,37.18,0,0,0,14.13-9.95,28.94,28.94,0,0,0,4.31-5.73,25,25,0,0,0,2.51-6.29c1-4.15.44-6.6,1.4-6.89.75-.22,1.75,1.09,3,2.82a24.84,24.84,0,0,1,3.93,6.62c2.31,5.91,1.47,10,2.46,10.13,1.16.17,2.8-5.22,3.25-6.71A26.53,26.53,0,0,0,201,117.53Z"/><path class="cls-15" d="M93.82,85.75c2.17,5.25,4,10.13,5.42,14.52a131.53,131.53,0,0,1,6.13,17.47c.83,3,1.53,6.29.42,9.2-.36,1-.9,1.82-1.26,2.77a4.55,4.55,0,0,0-.29,2.3,20.67,20.67,0,0,1,1.54-3.1,19.88,19.88,0,0,1,2.78-3.56q-1.91-10.11-3.8-20.24c-1.38-2.76-3.05-5.81-5-9.42C97.33,91.36,95.21,87.93,93.82,85.75Z"/><path class="cls-15" d="M118.46,122.43c-1-1.43-.94-3.35-1-5.15-1.17-2.54-1.91-6.4-2.91-11.1-1.94-9.07-2-8-2.42-11-1-7.86,0-13.59-.4-13.64s-1.07,3.34-1.55,7.28a67.78,67.78,0,0,0,0,14.49l.23-4.54,5.58,22.95a26.9,26.9,0,0,0,1.92,2.1c2.38,2.36,3.5,2.61,4.68,4a11.17,11.17,0,0,0-2.34-3.77A12.93,12.93,0,0,1,118.46,122.43Z"/><path class="cls-16" d="M204,115.19a51.7,51.7,0,0,1-4.46,17.57,60.34,60.34,0,0,1-13.87,19.76,76,76,0,0,1-18.16,13.2c-4.31,2.4-9.06,4.08-13.59,5.95-8.34,3.45-16.62,7-25.36,9.27a153.3,153.3,0,0,1-28.46,4c-11.37.73-17.11,1.08-19.84.94A76.26,76.26,0,0,1,58.12,182,60.38,60.38,0,0,1,37,170.35a52,52,0,0,1-11.72-13.84,47.83,47.83,0,0,1-4.88-12c1.25,5.9,2.54,11.46,6.24,17.88a52.13,52.13,0,0,0,11.72,13.83,60.21,60.21,0,0,0,21.14,11.66,76.26,76.26,0,0,0,22.11,3.89c2.73.15,8.47-.21,19.84-.94a153.3,153.3,0,0,0,28.46-4c8.74-2.25,17-5.82,25.36-9.27,4.53-1.87,9.28-3.55,13.59-6A75.74,75.74,0,0,0,187,158.4a60.27,60.27,0,0,0,13.87-19.75,51.84,51.84,0,0,0,4.46-17.58c.51-7.39-.77-12.95-2.24-18.8A47.64,47.64,0,0,1,204,115.19Z"/><path class="cls-17" d="M125.12,122.55a10.54,10.54,0,0,0-1.19,3.68c-.16.86-.43,2.36,0,2.55.62.29,1.89-2.55,3.3-2.34.66.1,1.12.84,1.45,1.61.86,2,3.93,4.38,5.6,5.78a27,27,0,0,0,15,6.21,33.8,33.8,0,0,0,12.76-1.37,32.26,32.26,0,0,0,19.83-16.36,20,20,0,0,0,2-6c.18-1.37-.19-3.84,1.21-4.67a7.35,7.35,0,0,1,2-.34c2.49-.28,3-.13,3.16-.36.24-.46-1.39-2.14-9.12-7.25q-9.75,2.3-20.24,5.29c-7.17,2.07-12.35,4.21-24,7.74-3.16,1-5.77,1.72-7.55,2.23A9,9,0,0,0,125.12,122.55Z"/><path class="cls-18" d="M129.06,122.49l8.47-2.81a14.33,14.33,0,0,0,3,3.31,15.08,15.08,0,0,0,7.67,3.09,17.34,17.34,0,0,0,9.56-1.73,15.62,15.62,0,0,0,6-4.18,15.39,15.39,0,0,0,3.45-9.42l9.72-3.1,3.16,2.79a21,21,0,0,1-1.11,6.09,21.85,21.85,0,0,1-4.88,7.93,28.76,28.76,0,0,1-7.74,5.92,30.65,30.65,0,0,1-12.18,4.4C143.75,136,134.83,131.26,129.06,122.49Z"/><path class="cls-19" d="M169.14,123.86c1.48.38,2.87-1.88,3.44-3a2.52,2.52,0,0,0,.33-.94c.13-1.22-1.65-2.26-2.5-2.9-2.83-2.13-7.34-4.55-10.84-2.71a8,8,0,0,0,2.05,1.28,21.2,21.2,0,0,1,2.21,1.41,14.4,14.4,0,0,1,3.6,3.82C167.86,121.57,168.22,123.62,169.14,123.86Z"/><path class="cls-17" d="M99.67,128.44a10.64,10.64,0,0,1,2.68,2.78c.52.71,1.42,1.93,1.13,2.29-.43.53-2.82-1.46-4-.65a2.32,2.32,0,0,0-.6,2.08c.12,2.21-1.61,5.66-2.49,7.65a27.06,27.06,0,0,1-10.79,12.19,33.88,33.88,0,0,1-12.06,4.36,32.38,32.38,0,0,1-25-6,19.84,19.84,0,0,1-4.4-4.56c-.77-1.15-1.52-3.53-3.14-3.67a7.55,7.55,0,0,0-1.91.57c-2.36.84-2.79,1.21-3,1-.42-.31.31-2.52,5-10.51q9.76-2.24,20.51-4.13c7.35-1.29,13-1.65,25-3.59,3.26-.52,6-1,7.77-1.31A9,9,0,0,1,99.67,128.44Z"/><path class="cls-18" d="M96.1,130.12l-8.84,1.19a14.48,14.48,0,0,1-6.82,10.45,17.39,17.39,0,0,1-9.34,2.64,15.6,15.6,0,0,1-7.22-1.12,15.37,15.37,0,0,1-7.24-6.95l-10.09,1.48-1.62,3.9a21.13,21.13,0,0,0,3.67,5,21.86,21.86,0,0,0,7.87,5A28.76,28.76,0,0,0,66,153.59,30.69,30.69,0,0,0,78.9,152.2C88.84,148.73,94.76,140.53,96.1,130.12Z"/><path class="cls-19" d="M60.69,148.94c-1.17,1-3.4-.43-4.39-1.15a2.49,2.49,0,0,1-.71-.7c-.65-1,.49-2.76,1-3.7,1.61-3.15,4.59-7.31,8.56-7.2a8.19,8.19,0,0,1-1.29,2.06,21.06,21.06,0,0,0-1.36,2.23,14.42,14.42,0,0,0-1.56,5C60.83,146.32,61.41,148.32,60.69,148.94Z"/><path class="cls-17" d="M97.12,172.37c.95.18,4.95-10.58,5.43-11.47A32.74,32.74,0,0,1,111.67,150a19.84,19.84,0,0,1,10.82-4.3,12,12,0,0,1,6.3,1.56c.71.39,5,3.9,5.37,3.58.15-.12.12-.34.07-.52-2.64-10-15.95-6.71-22.22-3.12l-.57.34a27.86,27.86,0,0,0-10.25,11.91C100.66,160.56,95.89,171.88,97.12,172.37Z"/><path class="cls-17" d="M118.11,145.57l-.75-3.13a23,23,0,0,0,2.56-2.58,18.92,18.92,0,0,0,1.25-1.78l.16-.28-.16.28a.35.35,0,0,1,.16-.28c.26-.13.59.57,1,.58s.84-.74,1.19-1.46a5.22,5.22,0,0,0,.65-2.25c0-.62.06-1.52-.42-1.81s-1.06.11-1.86.52c-1.15.58-2.43.88-3.63,1.38a26.31,26.31,0,0,1-5.92,1.65,17.18,17.18,0,0,1-5.32.32c-1.27-.17-2.31-.5-2.62,0s.38,1.56.73,2A8.79,8.79,0,0,0,107,140c.52.34,1.23,1.4,1.93,1.28.43-.08.48-.61.9-.76.63-.23,1.33.68,2.09,1.25a5.76,5.76,0,0,0,3.79,1l.83,3.27.73.14Z"/><path class="cls-20" d="M121.92,133.38c-1.15.58-2.43.88-3.63,1.38a26.31,26.31,0,0,1-5.92,1.65,17.18,17.18,0,0,1-5.32.32c-1.13-.15-2.08-.43-2.49-.16.2.22.45.47.73.74A12.77,12.77,0,0,0,110,140c1.53.55,3.11,1.42,4.77,1.36a5.78,5.78,0,0,0,3.92-2c1.26-1.23,2.44-2.53,3.61-3.85.29-.33.61-.64.92-.95s1.29-1.21.55-1.67C123.24,132.52,122.4,133.14,121.92,133.38Z"/><path class="cls-21" d="M107.82,140.58a143.42,143.42,0,0,0-45.28,32.23,129.1,129.1,0,0,0-9.75,11.76c-.95,1.3,1.21,2.54,2.16,1.26A134.48,134.48,0,0,1,95.11,150a148.08,148.08,0,0,1,14-7.27c1.46-.66.19-2.82-1.27-2.16Z"/><path class="cls-21" d="M108,141.79A144.71,144.71,0,0,0,74.7,186.43a131.38,131.38,0,0,0-5.77,14.27c-.52,1.53,1.9,2.19,2.41.67a136.36,136.36,0,0,1,27.32-46.53,148.34,148.34,0,0,1,11.15-11.28c1.19-1.09-.58-2.85-1.77-1.77Z"/><path class="cls-21" d="M108.07,141.12a156.19,156.19,0,0,0-46.43,43.5,143.21,143.21,0,0,0-9.31,15.21c-.76,1.42,1.4,2.68,2.15,1.26a150.54,150.54,0,0,1,39.93-47.46,156.13,156.13,0,0,1,14.92-10.35,1.25,1.25,0,0,0-1.26-2.16Z"/><path class="cls-21" d="M121.85,139.82a141.38,141.38,0,0,1,53.65,8.76,121.3,121.3,0,0,1,13.87,6.22c1.43.74,2.69-1.42,1.27-2.16A137.78,137.78,0,0,0,138,137.74a146.94,146.94,0,0,0-16.12-.42,1.25,1.25,0,0,0,0,2.5Z"/><path class="cls-21" d="M121.54,140.88A142.5,142.5,0,0,1,170.39,166a129.2,129.2,0,0,1,11.07,10c1.13,1.15,2.9-.62,1.77-1.77a139.39,139.39,0,0,0-45.84-30.39,151.07,151.07,0,0,0-15.19-5.34,1.25,1.25,0,0,0-.66,2.41Z"/><path class="cls-21" d="M121.86,140.41a153.1,153.1,0,0,1,59.87,18.47,145.76,145.76,0,0,1,14.76,9.42c1.3.95,2.55-1.22,1.26-2.16a152.41,152.41,0,0,0-58-25.53,160.32,160.32,0,0,0-17.86-2.7c-1.6-.15-1.59,2.35,0,2.5Z"/></g></g></svg>