<svg xmlns="http://www.w3.org/2000/svg" viewBox="0 0 307.31 319.55"><defs><style>.cls-1{fill:#8d7d72;}.cls-2{fill:#fff;}.cls-3{fill:#f1e2d6;}.cls-4{fill:#70655d;}.cls-5{fill:#0e0d0d;opacity:0.12;}.cls-6{fill:#d2b49c;}.cls-7{fill:#f3f3f3;}.cls-8{fill:#c3b69a;}.cls-15,.cls-9{fill:#b69e8c;}.cls-9{opacity:0.48;}.cls-10{fill:#84716c;}.cls-11{fill:#dcc4b0;}.cls-12{fill:#c4ae9d;}.cls-13{fill:#dec4b1;}.cls-14{fill:#6e7172;}.cls-15{opacity:0.23;}.cls-16{fill:#6e7273;}.cls-17{fill:#b4e2ed;}.cls-18{fill:#fffeff;}.cls-19{fill:#f1a7af;}</style></defs><g id="Layer_2" data-name="Layer 2"><g id="BG"><path class="cls-1" d="M76.85,270.29A60.8,60.8,0,0,1,78,242.2c1.82-6.31,5-12.26,7-18.54.93-2.88,8.85-36.84,7.82-36.91l48.53,3,45.26-1.34c-.43,2-.86,4-1.3,6-1,4.56,3.11,12.49,4.56,16.77,2.3,6.74,5.49,13.11,8.29,19.63,4.65,10.83,7.1,21.23,5.39,33.05-.66,4.53-3.12,21.57-16.28,33.21-7.39,6.53-14.6,8.22-26.71,11.07-22.61,5.31-40.2,1.7-51.13-.67-11.21-2.44-15.7-5-18.89-7.38-8.43-6.33-12.29-14.94-14-19.8C76.64,277,76.74,273.64,76.85,270.29Z"/><path class="cls-2" d="M163.08,224c-1-2.22-4.93-1.47-5.83-3.73,1.15-.72,2.57-.77,3.82-1.28a5.93,5.93,0,0,0,3.41-3.83c-4.39-1.22-8.5-3.28-12.79-4.81-4.1-1.46-8.52-2.41-12.77-1.59a7.72,7.72,0,0,0-1.36,0c-4.21-.77-8.59.17-12.65,1.61-4.29,1.53-8.4,3.59-12.79,4.81a5.93,5.93,0,0,0,3.41,3.83c1.25.51,2.67.56,3.82,1.28-.9,2.26-4.84,1.51-5.83,3.73a4.19,4.19,0,0,0-.25,1.66c-.11,6.18.08,12.93,4,17.66,1.71,2.08,3.8,4,6.49,3.22a51.9,51.9,0,0,0,9.29-3.86,10.61,10.61,0,0,0,4.2-3.22,7.88,7.88,0,0,0,1-2.35l.12,0a7.64,7.64,0,0,0,1,2.37,10.61,10.61,0,0,0,4.2,3.22,51.9,51.9,0,0,0,9.29,3.86c2.69.75,4.78-1.14,6.49-3.22,3.87-4.73,4.06-11.48,4-17.66A4.19,4.19,0,0,0,163.08,224Z"/><ellipse class="cls-3" cx="138.46" cy="262.02" rx="30.42" ry="37.53"/><path class="cls-1" d="M206.22,243.07a12.5,12.5,0,0,0,2,3.15,91.82,91.82,0,0,0,12.65-35.56,7.16,7.16,0,0,0,5.61,3.69c-.37-3.65,2.15-6.87,4.53-9.62,6.91-8,14-13.59,24.25-16.22,11.41-2.93,24.6-2.66,35.36,2.59a30.12,30.12,0,0,1,15.54,35.07,11.82,11.82,0,0,1-3.07,5.56,11.08,11.08,0,0,1-5.1,2.42c-9.21,2.15-18.87-1.72-26.53-7.42l2.09,6.77a16.55,16.55,0,0,0-20.94-.6c-3.22,2.6-5.37,6.32-7.44,9.95-1.83,3.19-3.72,6.7-3.24,10.37l6.09-3.11c-3.35,2.3-4.87,6.52-5.85,10.54s-1.71,8.27-4.14,11.57c-3.93,5.37-11.23,6.72-17.74,6.35-4.19-.23-8.48-1.05-12-3.48a7.48,7.48,0,0,1-2.72-3.1,9.65,9.65,0,0,1-.51-3.71c0-4.21.13-8.34-.07-12.53C204.89,252.36,207.54,246,206.22,243.07Z"/><path class="cls-4" d="M302.89,210.23a7.68,7.68,0,0,0-6.76-6.27,9.37,9.37,0,0,1-.85,5.19,100.91,100.91,0,0,0-37.94,1.19,5.93,5.93,0,0,1,3.61,4.12,18.2,18.2,0,0,0-20.34,3.85,9.81,9.81,0,0,1,6.46.21c.1,1.45-1.3,2.46-2.49,3.24a40.67,40.67,0,0,0-15.44,18.76,7.06,7.06,0,0,0,6.06-2.89,28.8,28.8,0,0,1-3,8.51c-2.62,4.59-8.22,7.79-10,12.77-1.57,4.51-2,11.28.15,15.59a11.5,11.5,0,0,0,3.27,3.94c4.83-.54,9.49-2.31,12.35-6.22,2.43-3.3,3.15-7.56,4.14-11.57s2.5-8.24,5.85-10.54l-6.09,3.11c-.48-3.67,1.41-7.18,3.24-10.37,2.07-3.63,4.22-7.35,7.44-9.95a16.55,16.55,0,0,1,20.94.6l-2.09-6.77c7.66,5.7,17.32,9.57,26.53,7.42a11.08,11.08,0,0,0,5.1-2.42,11.82,11.82,0,0,0,3.07-5.56,29.72,29.72,0,0,0-.67-18.35c-.83-1.07-1.72-2.11-2.61-3.11Z"/><path class="cls-5" d="M144,281.5c6.11-8.75,12.58-17.5,15.93-27.71,2-5.93,2.8-12.25,5.45-17.88,1.62-3.46,4.92-7,8.49-5.9,2.76.84,4.11,4.06,4.55,7,.89,6-.57,12.21.2,18.25.37,2.89,1.26,5.75,1.07,8.66-.25,3.8-2.26,7.2-4.23,10.43-3.79,6.23-7.72,12.62-13.48,17-3.81,2.88-10.34,6.93-15.28,5.5C138.53,294.48,140,287.16,144,281.5Z"/><path class="cls-2" d="M147.66,286.29l.56-.75c8.51-11.5,12-25.77,16.26-39.3,2.8-8.92,8.87-34.46,22.62-25.21,3.83,2.57,6,7.07,7.38,11.56,3.62,11.89,2.66,24.89-.9,36.8S184,292.25,177.5,302.76c-2.55,4.13-5.24,8.26-8.86,11.44s-8.35,5.31-13.07,4.75c-6.44-.75-11.57-6.41-13.63-12.73a17.21,17.21,0,0,1-.69-9.07C142.2,293,145.09,289.68,147.66,286.29Z"/><path class="cls-6" d="M194.48,232.59c-1.37-4.49-3.55-9-7.38-11.56-13.75-9.25-19.82,16.29-22.62,25.21-3.16,10.07-5.91,20.55-10.62,30a9.87,9.87,0,0,0,1,1c4.44,3.8,6.46-3.06,10.58-1.29,3.41,1.46,4.46,10.61,9.27,8.77a14,14,0,0,0,2.43-1.74c.84-.55,2.12-.71,2.68.13.78,1.18-.64,2.91.05,4.13.54,1,1.95.86,2.85.26a32.14,32.14,0,0,1,2.51-2,4,4,0,0,1,2.18-.38,105.4,105.4,0,0,0,6.2-15.68C197.14,257.48,198.1,244.48,194.48,232.59Z"/><path class="cls-5" d="M194.48,232.59c-1.37-4.49-3.55-9-7.38-11.56a16.11,16.11,0,0,0-1.74-1,154.26,154.26,0,0,1-9.11,64.11c-3.57,9.67-8.82,19.65-18,23.84a12,12,0,0,1-7.55,1.15c-3.9-.89-6.64-4.38-9-7.66-.23,0-.45.1-.67.15a20.78,20.78,0,0,0,1,4.61c2.06,6.32,7.19,12,13.63,12.73,4.72.56,9.45-1.58,13.07-4.75s6.31-7.31,8.86-11.44c6.49-10.51,12.52-21.47,16.08-33.37S198.1,244.48,194.48,232.59Z"/><path class="cls-5" d="M135.46,281.5c-6.11-8.75-12.58-17.5-15.93-27.71-1.94-5.93-2.8-12.25-5.44-17.88-1.62-3.46-4.93-7-8.5-5.9-2.76.84-4.11,4.06-4.54,7-.89,6,.57,12.21-.21,18.25-.37,2.89-1.25,5.75-1.06,8.66.24,3.8,2.26,7.2,4.22,10.43,3.79,6.23,7.72,12.62,13.48,17,3.81,2.88,10.35,6.93,15.29,5.5C140.91,294.48,139.41,287.16,135.46,281.5Z"/><path class="cls-2" d="M131.79,286.29l-.57-.75c-8.51-11.5-12-25.77-16.25-39.3-2.8-8.92-8.88-34.46-22.63-25.21-3.82,2.57-6,7.07-7.38,11.56-3.62,11.89-2.65,24.89.9,36.8s9.59,22.86,16.08,33.37c2.56,4.13,5.24,8.26,8.86,11.44s8.35,5.31,13.08,4.75c6.43-.75,11.56-6.41,13.62-12.73a17.21,17.21,0,0,0,.69-9.07C137.25,293,134.36,289.68,131.79,286.29Z"/><path class="cls-6" d="M85,232.59c1.37-4.49,3.56-9,7.38-11.56,13.75-9.25,19.83,16.29,22.63,25.21,3.16,10.07,5.91,20.55,10.62,30a10,10,0,0,1-1,1c-4.44,3.8-6.46-3.06-10.58-1.29-3.4,1.46-4.45,10.61-9.27,8.77a14.43,14.43,0,0,1-2.43-1.74c-.83-.55-2.12-.71-2.68.13-.78,1.18.64,2.91-.05,4.13-.53,1-1.94.86-2.84.26a32.29,32.29,0,0,0-2.52-2,4,4,0,0,0-2.18-.38,105.4,105.4,0,0,1-6.2-15.68C82.31,257.48,81.34,244.48,85,232.59Z"/><path class="cls-5" d="M85,232.59c1.37-4.49,3.56-9,7.38-11.56a15.3,15.3,0,0,1,1.75-1,154.42,154.42,0,0,0,9.1,64.11c3.58,9.67,8.82,19.65,18,23.84a12.09,12.09,0,0,0,7.56,1.15c3.89-.89,6.63-4.38,9.05-7.66.23,0,.44.1.66.15a20.22,20.22,0,0,1-1,4.61c-2.06,6.32-7.19,12-13.62,12.73-4.73.56-9.45-1.58-13.08-4.75s-6.3-7.31-8.86-11.44c-6.49-10.51-12.52-21.47-16.08-33.37S81.34,244.48,85,232.59Z"/><path class="cls-7" d="M179.91,303.53a46.61,46.61,0,0,1,4.16-28.42,65.33,65.33,0,0,1,7.94-12c5-6.31,10.06-10.95,18.34-10.94a15.55,15.55,0,0,1,6.09,1,7.76,7.76,0,0,1,4.35,4.32,17.66,17.66,0,0,1,9.75,0,10.61,10.61,0,0,1,6.91,6.71,12.89,12.89,0,0,1,0,6.47,2.34,2.34,0,0,0-.06,1.23,2.15,2.15,0,0,0,1.18,1.07c3.9,2,6.05,5.11,5.52,9.81-.89,7.71-6.4,12-11.58,16.83-5.35,5-7.85,12.77-14.07,16.88a21.16,21.16,0,0,1-11.63,3.06c-10.07.05-19.72-3.95-25.15-13-1.15-1.93-2.35-4-2.35-6.26"/><path class="cls-2" d="M236.07,284.11c.27-1.84.38-3.93-.81-5.34-.54-.64-1.3-1.06-1.81-1.73-1.25-1.67-.54-4.05-.55-6.16a8.36,8.36,0,0,0-5.85-7.82c-2-.56-4.19-.27-6.25-.65a10.32,10.32,0,0,1-6.7-4.45c-.77-1.17-1.35-2.55-2.49-3.34s-2.48-.84-3.76-1.19a4.92,4.92,0,0,1-1.7-.84c-5.91,1.29-10.06,5.33-14.14,10.5a65.33,65.33,0,0,0-7.94,12c-.54,1.11-1,2.25-1.49,3.4a69.49,69.49,0,0,0,.35,9.92,23.91,23.91,0,0,0,7.64,14.27,28.78,28.78,0,0,0,14.48,6.89,23,23,0,0,0,11-.49,15.09,15.09,0,0,0,8.62-6.74c1.79-3.18,2.4-7.31,5.34-9.4.89-.63,1.93-1,2.8-1.67C234.91,289.69,235.67,286.8,236.07,284.11Z"/><path class="cls-8" d="M207.82,280.09a10.19,10.19,0,0,1,4.65,1.09,10.39,10.39,0,0,1,3.11,2.84,20.89,20.89,0,0,1,3.89,15.79,11,11,0,0,1-2,5.27,9,9,0,0,1-6.74,3.13,20.85,20.85,0,0,1-7.46-1.35c-4.22-1.41-8.49-3.42-11.12-7.09C184.45,289,198.56,279.81,207.82,280.09Z"/><path class="cls-8" d="M222.24,268c-2,.84-3.48,2.64-2.79,5.17a7.37,7.37,0,0,0,3.55,4.14c1.68,1,3.86,1.62,5.51.56a4.5,4.5,0,0,0,1.7-2.26,6.44,6.44,0,0,0-1.74-7A6.32,6.32,0,0,0,222.24,268Z"/><path class="cls-8" d="M205.86,260.79c-1.91,1.09-3.14,3.07-2.15,5.49a7.29,7.29,0,0,0,4,3.65c1.79.78,4,1.11,5.54-.15a4.53,4.53,0,0,0,1.41-2.46,6.41,6.41,0,0,0-2.57-6.71A6.27,6.27,0,0,0,205.86,260.79Z"/><path class="cls-8" d="M231.42,281.89c-2.18-.05-4.21,1-4.54,3.62a7.58,7.58,0,0,0,1.68,5.24c1.17,1.61,2.94,3.06,4.86,2.76a4.34,4.34,0,0,0,2.42-1.4,6,6,0,0,0-4.42-10.22Z"/><path class="cls-7" d="M92.68,301.8a46.53,46.53,0,0,0-4.16-28.42,64.49,64.49,0,0,0-7.94-12c-5-6.32-10.06-11-18.34-11a15.37,15.37,0,0,0-6.09,1,7.71,7.71,0,0,0-4.35,4.31,17.56,17.56,0,0,0-9.75,0,10.57,10.57,0,0,0-6.91,6.7,12.89,12.89,0,0,0,0,6.47,2.25,2.25,0,0,1,.06,1.23A2.16,2.16,0,0,1,34,271.24c-3.9,2.05-6.05,5.11-5.51,9.81.88,7.7,6.4,12,11.57,16.82,5.35,5,7.85,12.78,14.08,16.89a21.18,21.18,0,0,0,11.62,3.05c10.07.06,19.73-3.94,25.15-13,1.16-1.93,2.35-4,2.35-6.25"/><path class="cls-2" d="M36.53,282.38c-.28-1.84-.38-3.94.8-5.34.54-.65,1.3-1.07,1.81-1.74,1.26-1.66.54-4,.55-6.15a8.35,8.35,0,0,1,5.85-7.82c2-.56,4.19-.28,6.26-.65a10.34,10.34,0,0,0,6.69-4.46c.77-1.17,1.35-2.54,2.49-3.34s2.49-.84,3.76-1.19a4.75,4.75,0,0,0,1.7-.84c5.91,1.3,10.06,5.34,14.14,10.51a64.49,64.49,0,0,1,7.94,12c.54,1.11,1,2.24,1.49,3.4a69.4,69.4,0,0,1-.35,9.91A23.85,23.85,0,0,1,82,301a28.88,28.88,0,0,1-14.48,6.9,23.25,23.25,0,0,1-11-.49A15.11,15.11,0,0,1,48,300.63c-1.79-3.19-2.4-7.32-5.34-9.4-.89-.64-1.94-1-2.81-1.68C37.68,288,36.92,285.06,36.53,282.38Z"/><path class="cls-8" d="M64.77,278.36a10.35,10.35,0,0,0-4.65,1.08A10.52,10.52,0,0,0,57,282.28a20.93,20.93,0,0,0-3.89,15.8,11.07,11.07,0,0,0,2,5.27,9.1,9.1,0,0,0,6.74,3.13,20.6,20.6,0,0,0,7.46-1.36c4.22-1.4,8.49-3.41,11.12-7.09C88.14,287.3,74,278.08,64.77,278.36Z"/><path class="cls-8" d="M50.35,266.22c2,.84,3.49,2.65,2.79,5.18a7.34,7.34,0,0,1-3.54,4.13c-1.68,1-3.87,1.62-5.52.57a4.54,4.54,0,0,1-1.7-2.26,6.48,6.48,0,0,1,1.74-7A6.34,6.34,0,0,1,50.35,266.22Z"/><path class="cls-8" d="M66.73,259.05c1.92,1.1,3.14,3.08,2.15,5.5a7.27,7.27,0,0,1-4,3.64c-1.79.79-4,1.11-5.54-.14a4.53,4.53,0,0,1-1.41-2.46,6.43,6.43,0,0,1,2.57-6.72A6.32,6.32,0,0,1,66.73,259.05Z"/><path class="cls-8" d="M41.17,280.15c2.19,0,4.21,1,4.54,3.63A7.59,7.59,0,0,1,44,289c-1.16,1.6-2.94,3.05-4.86,2.75a4.27,4.27,0,0,1-2.42-1.39,6,6,0,0,1,4.42-10.23Z"/><path class="cls-9" d="M169.76,249.49c11.07-1.09,22.47-2.92,32.11-8.32a83.55,83.55,0,0,0-3.72-10.3c-2.8-6.52-6-12.89-8.29-19.63-1.45-4.28-5.54-12.21-4.56-16.77.44-2,.87-4,1.3-6l-45.26,1.34-48.53-3c1,.07-6.89,34-7.82,36.91-2,6.28-5.2,12.23-7,18.54-.2.69-.38,1.4-.56,2.11a17.74,17.74,0,0,0,2,.73,76,76,0,0,0,10.13,2.14A316.48,316.48,0,0,0,169.76,249.49Z"/><path class="cls-10" d="M251.56,103.15c3.09-2.85,4.38-5.7,6.9-11.24,12.78-28.12,3-60.32-10.06-86.24-.93-1.85-2-3.78-3.67-4.9-5-3.25-9.91,4.68-12.86,7.63-5.2,5.2-10.23,10.77-16.19,15.07C210,27.59,203.8,31.1,198.31,35.55c-11.2,9-28.76,23.67-25.65,40.13,1.91,10.14,12.34,16,26.87,24.23,5.95,3.35,8.92,5,13.32,6.49C216.11,107.48,238.73,115,251.56,103.15Z"/><path class="cls-11" d="M247.86,97.43a5.1,5.1,0,0,0,1-.52,11,11,0,0,0,3.27-3.64A51.73,51.73,0,0,0,259,73.79a95.18,95.18,0,0,0-2-38.71,91,91,0,0,0-5.07-14.18c-1.6-3.54-2.95-8.94-5.74-11.66-1.21-1.18-3.38-2.77-5.11-1.94-1,.49-1.48,1.69-1.9,2.76-2.08,5.33-6.23,9.36-8.42,14.59-1.89,4.51-3.05,9.31-5.52,13.55a49.78,49.78,0,0,1-12.88,14.49c-4.41,3.36-9.39,4.83-11.79,10.25-.42,1-3.39,7.64-.5,12.24s8.74,2.76,17.26,5c6.94,1.82,12.7,5.79,18,10.54C238.35,93.48,243.2,99.22,247.86,97.43Z"/><path class="cls-12" d="M257,35.08a91,91,0,0,0-5.07-14.18c-1.6-3.54-2.95-8.94-5.74-11.66-1.21-1.18-3.38-2.77-5.11-1.94-1,.49-1.48,1.69-1.9,2.76-2.08,5.33-6.23,9.36-8.42,14.59-1.89,4.51-3.05,9.31-5.52,13.55a49.78,49.78,0,0,1-12.88,14.49c-4.41,3.36-9.39,4.83-11.79,10.25A21.56,21.56,0,0,0,199,67.61c9.06-2.5,18.08-10,23.81-16.67a55.16,55.16,0,0,0,9.84-16.42c1.82-4.82,3.15-10.16,6.92-13.62,1.39-1.27,3.41-2.25,5.09-1.41a6,6,0,0,1,2.3,2.8,162.9,162.9,0,0,0,8.53,14.27,9.29,9.29,0,0,0,2.43,2.7C257.65,37.86,257.32,36.46,257,35.08Z"/><path class="cls-10" d="M12.88,103.15C9.79,100.3,8.49,97.45,6,91.91-6.81,63.79,3,31.59,16,5.67,17,3.82,18,1.89,19.7.77c5-3.25,9.92,4.68,12.87,7.63,5.2,5.2,10.22,10.77,16.18,15.07,5.72,4.12,11.88,7.63,17.37,12.08,11.21,9,28.77,23.67,25.66,40.13-1.92,10.14-12.34,16-26.88,24.23-5.94,3.35-8.92,5-13.31,6.49C48.33,107.48,25.71,115,12.88,103.15Z"/><path class="cls-11" d="M16.57,97.43a5.39,5.39,0,0,1-1-.52,11.13,11.13,0,0,1-3.27-3.64A51.9,51.9,0,0,1,5.45,73.79a95.18,95.18,0,0,1,2-38.71A92,92,0,0,1,12.55,20.9c1.61-3.54,3-8.94,5.75-11.66,1.21-1.18,3.37-2.77,5.11-1.94,1,.49,1.48,1.69,1.9,2.76,2.08,5.33,6.23,9.36,8.42,14.59,1.88,4.51,3,9.31,5.51,13.55A49.92,49.92,0,0,0,52.12,52.69c4.42,3.36,9.4,4.83,11.8,10.25.42,1,3.38,7.64.49,12.24s-8.73,2.76-17.26,5C40.21,82,34.46,86,29.17,90.71,26.08,93.48,21.24,99.22,16.57,97.43Z"/><path class="cls-12" d="M7.48,35.08A92,92,0,0,1,12.55,20.9c1.61-3.54,3-8.94,5.75-11.66,1.21-1.18,3.37-2.77,5.11-1.94,1,.49,1.48,1.69,1.9,2.76,2.08,5.33,6.23,9.36,8.42,14.59,1.88,4.51,3,9.31,5.51,13.55A49.92,49.92,0,0,0,52.12,52.69c4.42,3.36,9.4,4.83,11.8,10.25a21.76,21.76,0,0,1,1.47,4.67c-9-2.5-18.08-10-23.8-16.67a55,55,0,0,1-9.85-16.42C29.92,29.7,28.6,24.36,24.82,20.9c-1.39-1.27-3.41-2.25-5.09-1.41a6.08,6.08,0,0,0-2.3,2.8A160.47,160.47,0,0,1,8.9,36.56a9.12,9.12,0,0,1-2.42,2.7C6.78,37.86,7.11,36.46,7.48,35.08Z"/><path class="cls-3" d="M269.81,152.39a120.29,120.29,0,0,0-7-38.35A85.62,85.62,0,0,0,254.4,96.2a78.12,78.12,0,0,0-17.53-19.51c6.75,1,8.35.6,8.53,0,.37-1.29-5.25-5-11.37-6.76-4.63-1.29-8.74-1.21-8.77-2s4.5-1.26,4.5-2.25-5.46-2.08-9.48-2.5c-5.52-.57-9.14-.12-9.24-.75-.13-.86,6.51-2.25,6.4-3s-8.15-.69-16.83,1c-6,1.16-6.17,1.88-11.61,2.75a70.53,70.53,0,0,1-14,.75c-6.94-.31-10.25-1.5-15.87-2.5a125.86,125.86,0,0,0-42.42,0c-5.63,1-8.94,2.19-15.88,2.5a70.53,70.53,0,0,1-14-.75c-5.44-.87-5.65-1.59-11.61-2.75-8.67-1.69-16.71-1.81-16.83-1s6.54,2.14,6.4,3c-.1.63-3.72.18-9.24.75-4,.42-9.48,1.42-9.48,2.5s4.54,1.42,4.5,2.25-4.13.71-8.76,2c-6.13,1.72-11.75,5.47-11.38,6.76.18.6,1.78,1,8.53,0A78.12,78.12,0,0,0,21.47,96.2,86.14,86.14,0,0,0,13,114a120.09,120.09,0,0,0-6.95,38.35c-.19,9.06-.37,17.45,2.84,28A73.16,73.16,0,0,0,20.6,203.09c9,12.39,19.08,18.8,25.28,22.67C57.41,233,67.43,235.94,74.94,238.1c3.71,1.07,11.68,2.4,27.49,5,13.32,2.19,26.78,3.84,40.28,3.51,12.7-.31,25.18-2.58,37.7-4.67,6.81-1.13,13.85-1.92,20.52-3.85,7.52-2.16,17.54-5.13,29.07-12.34,6.19-3.87,16.24-10.28,25.27-22.67A72.94,72.94,0,0,0,267,180.41C270.17,169.84,270,161.45,269.81,152.39Z"/><path class="cls-13" d="M267,180.41c3.21-10.57,3-19,2.85-28a125.88,125.88,0,0,0-1.06-13.8c-1.28-3.18-2.84-6.94-4.87-11-3.6-7.17-7-13.68-13.8-19a37.87,37.87,0,0,0-10.61-5.75c4.67-.34,5.75-.9,5.8-1.37.1-1-4.81-2.66-9.25-3.25-5.31-.71-9.72.06-9.74-.12s8.52-.68,8.63-2.13c.09-1.11-4.82-2.77-9.49-2.87a21.12,21.12,0,0,0-5.55.63l3.08-2.5-11.34-1.5a46.37,46.37,0,0,0-16.76,1.62c-7,2.07-10.49,3.1-12.82,5-1,.82-2.67,2.35-4.77,2.16-1.76-.15-3-1.42-4.44-2.83-2.28-2.28-2.09-3.32-4.27-5.49a10.33,10.33,0,0,0-4.28-3c-3.92-1.17-7.64,1.7-8.05,1s3.64-3.55,3.29-4.16-4.86.73-9,3.83c-3.89,2.87-3.63,4.42-6.9,6.16a16.11,16.11,0,0,1-8.88,1.66c-2.77-.23-3.68-1-10.35-3.83a82.1,82.1,0,0,0-9.53-3.66c-6.29-1.68-12.68-1.65-12.83-.83-.08.45,3.2,1.07,3.13,1.66-.13,1-10.18.35-10.36,1.67-.08.58,1.84,1,1.81,1.83,0,1-2.8,1.28-5.75,2.5-1.94.8-4.15,2.59-8.55,6.16-4.7,3.81-4.7,4.24-6.58,5.16a19.66,19.66,0,0,1-8.38,1.83c-4.56.17-6.44-.92-11.83-1.83-5.93-1-5.43,0-11.18-.83-3.92-.59-8-1.56-8.39-.67-.21.57,1.33,1.28,1.16,2.33-.07.4-.41,1-3.79,2.17-2.08.71-3.39,1-5.75,1.83-1.92.7-3,1.23-3,1.83s1,.77,1,1.33c0,.74-1.71,1.2-2.8,1.67-1.77.76-2.82,2.06-4.93,4.66a115.14,115.14,0,0,0-10.29,15,127.35,127.35,0,0,0-1.45,16.63c-.19,9.06-.37,17.45,2.84,28A73.16,73.16,0,0,0,20.6,203.09c9,12.39,19.08,18.8,25.28,22.67C57.41,233,67.43,235.94,74.94,238.1c2.59.75,7.25,1.62,15.2,3-2.73-1.16-5.71-1.92-7.63-2.66C69.69,233.49,56.29,228.09,45,219.79c-3.36-2.47-6.68-4.27-8.64-8.23-.68-1.37-1.87-3.78-1-5.75,1.21-2.71,6-3.92,12.08-2.5-1.58-2-2.15-3.3-1.73-4,.64-1,3.8.81,9.62,1.5a42.83,42.83,0,0,0,4.69.25c9.44.34,20.35,9.3,23.17,11.74,5.56,4.78,7.43,8,12.82,9.24a17.78,17.78,0,0,0,6.17.25,18.35,18.35,0,0,1-4.44-5,19.63,19.63,0,0,1-2.47-12.74,20.26,20.26,0,0,1,5.92-11.49c3.73-3.45,5.66-2.17,11.34-6.49,2.49-1.89,4.91-3.73,6.66-7,2.15-4,.58-5.05,2.71-10.49A28.58,28.58,0,0,1,128,159.6a27.36,27.36,0,0,1,4.93-4q.73-17.61,1.48-35.22l2.46,5.24,3.09-6.74,1.11,10.36q1.35-4.74,2.71-9.49l.37,33.22a37,37,0,0,0,2,3.5c2.65,4.18,4.11,4.73,5.3,7.37,1.34,3,.2,3.85,1.11,7.37,1,3.75,3.13,6.15,5.3,8.49,10.62,11.48,12.73,12.6,14.8,15.61,2.85,4.17,5.2,11.36,2,24.48,2.42-1.43,5.89-3.43,10.11-5.75,7.69-4.21,12-6.58,17.26-8.74a92.57,92.57,0,0,1,19-5.49l-2,4c3-.43,5.6-.76,7.64-1,4.54-.53,6.13-.61,8.14-.25,2.24.41,4.49.82,5.42,2.5,1.41,2.53-1.05,6.33-2,7.75-3.69,5.68-9.26,8.24-12.08,9.49,0,0-24.17,10.72-24.16,10.74l33.29-10.71a80.54,80.54,0,0,0,20-19.24A72.94,72.94,0,0,0,267,180.41Z"/><path class="cls-6" d="M134.17,126.66c-1-4.22-2.34-8.93-3.92-14.52-1.9-6.68-3.72-12.06-4.93-15.48,4.23,25.48,4.49,44.65,2.21,50.45a20.75,20.75,0,0,1-5.42,7.75c-2,1.67-4.57,2.93-4.93,2.49s.67-1.88,1.72-3.24c-1.33,3.74,3-7.37,3.95-11.24,1.36-5.81.33-10.62-1.73-20.23-1.35-6.34-3.4-13.39-4.19-13.24s1.45,8.51-1,19.48c-1,4.65-2.06,9-5.68,12.49-1.12,1.08-3.78,3.3-13.56,5-7.06,1.23-10.14.85-23.91,1.25-10.14.3-15.21.45-16.28.5-11.51.55-16.05,1.2-19.23-2-2.08-2.08-2.63-4.86-3.2-7.74-1.49-7.46,1.2-12.71,0-13.24s-3.8,3.58-6.41,7.5c-2.87,4.28-4.3,6.42-5.18,9.74s-.85,6.21-1.48,6.24-1.11-3.75-2-3.74-1.65,3.89-2,6.74c-.6,5.23,0,9.15-.49,9.24s-1.14-3.78-2-3.75c-1.06.05-2.16,6.45-1.73,12.74a32.27,32.27,0,0,0,4.19,14.74c2.43,4.13,7.18,9.92,9.13,9,2.52-1.21-2.64-12.33,2.22-24.23,1-2.57,1.94-3.66,2.95-3.74,2.82-.24,3.75,7.58,9.62,14.48,3,3.49,7.08,5.66,15.29,10,10.16,5.36,16.91,6.8,19.23,7.24,2.13.41,3.93.62,5.18.75a43.84,43.84,0,0,0,2.92,15.13c5.2,4.57,7.13,7.67,12.36,8.85a17.78,17.78,0,0,0,6.17.25,18.35,18.35,0,0,1-4.44-5,19.63,19.63,0,0,1-2.47-12.74,20.26,20.26,0,0,1,5.92-11.49c3.73-3.45,5.66-2.17,11.34-6.49,2.49-1.89,4.91-3.73,6.66-7,2.15-4,.58-5.05,2.71-10.49A28.58,28.58,0,0,1,128,159.6a27.36,27.36,0,0,1,4.93-4Q133.56,141.14,134.17,126.66Z"/><path class="cls-6" d="M262.08,174.17a37.53,37.53,0,0,0,.65-10.15c0-1.41-.17-5.23-1-5.33s-1.49,2.94-2,2.83.3-3.82-.17-8.49c-.38-3.77-1.55-7.54-2.46-7.5-.71,0-.79,2.28-1.48,2.33-1.11.09-1.72-5.55-4.11-11-3.22-7.3-8.71-12.1-9.37-11.65-.4.27,1.26,2.24,1.81,6a19.36,19.36,0,0,1-1.48,10c-.9,2.29-2.38,6.09-5.59,8.33-3.86,2.69-8.09,1.66-13.48,1.16-14-1.3-13.75,3-28.77,1.84a62.2,62.2,0,0,1-18.9-4.33c-6.58-2.69-9.4-5.25-10.19-6a29.58,29.58,0,0,1-7.4-12,41.25,41.25,0,0,1-2.47-17.32,73.37,73.37,0,0,0-2.79,13.66c-.66,6.19-1,9.76,0,14.32,1.68,7.39,5.9,12.11,4.44,13.49-.55.51-1.6.29-3,0a10.67,10.67,0,0,1-4.6-2.5c-3.21-3.06-2.8-10.47-2.63-20.65.21-13-.28-11.58.16-15.82,1.16-11.07,4.3-18.63,3.78-18.82s-2.53,4.24-4.44,9.5a96.54,96.54,0,0,0-4.63,19.85c.59-2,1.17-4.11,1.76-6.16l.37,33.22a37,37,0,0,0,2,3.5c2.65,4.18,4.11,4.73,5.3,7.37,1.34,3,.2,3.85,1.11,7.37,1,3.75,3.13,6.15,5.3,8.49,10.62,11.48,12.73,12.6,14.8,15.61,2.85,4.17,5.2,11.36,2,24.48,2-1.17,4.68-2.73,7.91-4.53a23.31,23.31,0,0,0,1-6.29c.05-3.74.3-6.74,1-6.83s1.39,2.25,1.64,2.16c.46-.16-2.87-7.45-.82-9.32,1.39-1.26,4.06,1,9.54,1.83,3.36.5,5.81.16,9.37-.33a52.68,52.68,0,0,0,22.52-9.16,40.62,40.62,0,0,0,7.72-6.5,35.22,35.22,0,0,0,5.43-7.82c2.71-5.37,2.7-8.91,4.11-9,1.09-.07,2.05,2,3.28,4.82a35.19,35.19,0,0,1,3.29,10.33c1.28,8.83-1.15,14.13.16,14.65,1.53.61,5.49-6.27,6.58-8.16A37.5,37.5,0,0,0,262.08,174.17Z"/><path class="cls-14" d="M125.32,96.66c1.3,7.88,2.23,15.15,2.82,21.61A186.08,186.08,0,0,1,131,144.16c.17,4.4.1,9.11-2.34,12.75-.8,1.19-1.82,2.21-2.61,3.4a6.34,6.34,0,0,0-1.13,3.05,29.11,29.11,0,0,1,3.1-3.76,27.36,27.36,0,0,1,4.93-4q.6-14.48,1.21-29c-1-4.22-2.34-8.93-3.92-14.52C128.35,105.46,126.53,100.08,125.32,96.66Z"/><path class="cls-14" d="M147.46,154.75c-1-2.31-.23-4.91.2-7.4-.81-3.86-.6-9.39-.48-16.14.21-13-.28-11.58.16-15.82,1.16-11.07,4.3-18.63,3.78-18.82s-2.53,4.24-4.44,9.5a96.54,96.54,0,0,0-4.63,19.85c.59-2,1.17-4.11,1.76-6.16l.37,33.22a37,37,0,0,0,2,3.5c2.52,4,4,4.68,5.13,7a15.84,15.84,0,0,0-2-5.91A18.83,18.83,0,0,1,147.46,154.75Z"/><path class="cls-15" d="M267,171.92a72.86,72.86,0,0,1-11.69,22.67c-9,12.4-19.08,18.81-25.27,22.68-11.53,7.21-21.55,10.18-29.07,12.34-6.67,1.92-13.71,2.72-20.52,3.85-12.52,2.08-25,4.35-37.7,4.67-13.5.33-27-1.32-40.28-3.52-15.81-2.6-23.78-3.93-27.49-5-7.51-2.16-17.53-5.13-29.06-12.34C39.68,213.4,29.63,207,20.6,194.59A73.08,73.08,0,0,1,8.91,171.92a67.69,67.69,0,0,1-2.88-18c-.16,8.48-.15,16.51,2.88,26.48A73.16,73.16,0,0,0,20.6,203.09c9,12.39,19.08,18.8,25.28,22.67C57.41,233,67.43,235.94,74.94,238.1c3.71,1.07,11.68,2.4,27.49,5,13.32,2.19,26.78,3.84,40.28,3.51,12.7-.31,25.18-2.58,37.7-4.67,6.81-1.13,13.85-1.92,20.52-3.85,7.52-2.16,17.54-5.13,29.07-12.34,6.19-3.87,16.24-10.28,25.27-22.67A72.94,72.94,0,0,0,267,180.41c3-10,3.05-18,2.88-26.48A67.69,67.69,0,0,1,267,171.92Z"/><path class="cls-16" d="M156.55,157a14.65,14.65,0,0,0-2.8,4.66c-.49,1.13-1.34,3.1-.82,3.5.76.59,3.4-2.9,5.26-2.16.87.34,1.28,1.5,1.48,2.66.53,3.07,4,7.25,5.84,9.7a38.07,38.07,0,0,0,18.65,13.28,47.82,47.82,0,0,0,17.92,2.17,45.55,45.55,0,0,0,32.37-16.14A27.76,27.76,0,0,0,239,167c.69-1.81,1-5.31,3.15-6a10.64,10.64,0,0,1,2.79.16c3.5.41,4.2.78,4.44.5.48-.55-1.22-3.36-10.19-12.82-9.4,0-19.22.28-29.43.83-10.47.57-18.26,1.85-35.34,3-4.63.31-8.46.53-11.05.67A12.58,12.58,0,0,0,156.55,157Z"/><path class="cls-17" d="M162,158.19,174.46,157a20.77,20.77,0,0,0,3.13,5.5,21.15,21.15,0,0,0,9.53,6.66,24.42,24.42,0,0,0,13.64.66A22.09,22.09,0,0,0,210.3,166,21.56,21.56,0,0,0,218,154.19l14.3-1.16,3.46,4.82a29.84,29.84,0,0,1-3.46,8,30.92,30.92,0,0,1-9.2,9.32,40.34,40.34,0,0,1-12.49,5.66c-4.36,1.31-10.3,3-18.09,2.17C177.82,181.4,167.1,172,162,158.19Z"/><path class="cls-18" d="M216.46,172.76c1.92,1,4.54-1.66,5.67-3a4.08,4.08,0,0,0,.75-1.18c.55-1.64-1.56-3.63-2.51-4.77-3.21-3.81-8.62-8.57-14-7.15a11.67,11.67,0,0,0,2.41,2.4,30.48,30.48,0,0,1,2.58,2.63,20.14,20.14,0,0,1,3.72,6.38C215.44,169.21,215.29,172.15,216.46,172.76Z"/><path class="cls-16" d="M119.8,157a14.61,14.61,0,0,1,2.79,4.66c.49,1.13,1.34,3.1.82,3.5-.75.59-3.4-2.9-5.26-2.16-.87.34-1.27,1.5-1.48,2.66-.53,3.07-4,7.25-5.84,9.7a38,38,0,0,1-18.65,13.28,47.78,47.78,0,0,1-17.92,2.17,45.55,45.55,0,0,1-32.37-16.14A28,28,0,0,1,37.3,167c-.68-1.81-1-5.31-3.14-6a10.71,10.71,0,0,0-2.8.16c-3.49.41-4.2.78-4.44.5-.47-.55,1.23-3.36,10.2-12.82,9.4,0,19.22.28,29.42.83,10.48.57,18.26,1.85,35.34,3,4.63.31,8.47.53,11.05.67A12.64,12.64,0,0,1,119.8,157Z"/><path class="cls-17" d="M114.37,158.19,101.88,157a20.41,20.41,0,0,1-3.12,5.5,21.16,21.16,0,0,1-9.54,6.66,24.42,24.42,0,0,1-13.64.66A22,22,0,0,1,66.05,166a21.59,21.59,0,0,1-7.73-11.82L44,153l-3.45,4.82a29.44,29.44,0,0,0,3.45,8,30.92,30.92,0,0,0,9.2,9.32,40.48,40.48,0,0,0,12.5,5.66c4.36,1.31,10.29,3,18.08,2.17C98.53,181.4,109.25,172,114.37,158.19Z"/><path class="cls-18" d="M59.88,172.76c-1.92,1-4.53-1.66-5.66-3a3.69,3.69,0,0,1-.75-1.18C52.91,167,55,165,56,163.85c3.2-3.81,8.61-8.57,14-7.15a11.2,11.2,0,0,1-2.41,2.4A30.37,30.37,0,0,0,65,161.73a20.16,20.16,0,0,0-3.73,6.38C60.91,169.21,61.05,172.15,59.88,172.76Z"/><path class="cls-16" d="M102.39,216.43c1.23.55,10.13-12.94,11.07-14a46.26,46.26,0,0,1,15.94-12c5-2.19,10.74-3.51,16.2-2.46a16.85,16.85,0,0,1,8.14,4.14c.85.75,5.59,6.92,6.23,6.6.24-.11.27-.43.26-.69-.46-14.53-19.73-14.25-29.48-11.31-.29.08-.58.18-.87.27-7.11,2.36-13.16,7.26-17.84,13.09C111,201.36,100.85,215.37,102.39,216.43Z"/><path class="cls-16" d="M139.64,186.35c0-1.51,0-3,0-4.54a31.47,31.47,0,0,0,4.31-2.72,24.59,24.59,0,0,0,2.28-2l.31-.34s-.3.34-.31.34.12-.3.31-.34c.39-.08.62,1,1.23,1.13s1.39-.75,2.1-1.63a7.36,7.36,0,0,0,1.6-2.87c.23-.84.57-2.07,0-2.62s-1.49-.18-2.71.12c-1.78.44-3.63.45-5.43.75a36,36,0,0,1-8.63.38c-3.37-.26-5.1-.39-7.39-1.25-1.69-.64-3-1.42-3.58-.88s0,2.25.38,2.91a12.57,12.57,0,0,0,2.07,2.47c.6.64,1.25,2.31,2.24,2.37.62,0,.85-.68,1.48-.75.94-.12,1.6,1.35,2.46,2.37a8.14,8.14,0,0,0,4.87,2.58l.11,4.74,1,.43Z"/><path class="cls-19" d="M148.74,170.84c-1.78.44-3.63.45-5.43.75a36,36,0,0,1-8.63.38c-3.37-.26-5.1-.39-7.39-1.25-1.5-.57-2.71-1.24-3.36-1,.21.37.47.79.77,1.26a18,18,0,0,0,5.63,5.16c1.92,1.23,3.82,2.93,6.1,3.37s4.13-.37,6-1.51c2.12-1.29,4.16-2.7,6.17-4.15.5-.36,1-.67,1.56-1s2.16-1.24,1.28-2.11C150.81,170.08,149.46,170.67,148.74,170.84Z"/><path class="cls-2" d="M127.32,176.73a200.86,200.86,0,0,0-72.07,29.68,179.53,179.53,0,0,0-17.1,13c-1.22,1.05.56,2.81,1.77,1.76,19.31-16.59,42.24-28.8,66.47-36.48A208.41,208.41,0,0,1,128,179.14c1.58-.32.91-2.73-.66-2.41Z"/><path class="cls-2" d="M127.34,178.38A203.23,203.23,0,0,0,67.54,229a182.4,182.4,0,0,0-12.31,17.55c-.84,1.37,1.32,2.63,2.16,1.26a192.27,192.27,0,0,1,52.43-55.36,209.39,209.39,0,0,1,18.79-11.89,1.25,1.25,0,0,0-1.27-2.16Z"/><path class="cls-2" d="M127.49,177.54A221.29,221.29,0,0,0,86.37,196a216.22,216.22,0,0,0-36.22,26.34,205.24,205.24,0,0,0-17.47,17.8c-1.05,1.21.71,3,1.77,1.77a205.71,205.71,0,0,1,32.06-29.8A217.12,217.12,0,0,1,128.15,180c1.52-.51.87-2.92-.66-2.41Z"/><path class="cls-2" d="M146.66,179.14a199.18,199.18,0,0,1,71.12,29.2,176.1,176.1,0,0,1,16.94,12.84c1.21,1,3-.71,1.77-1.76a193.08,193.08,0,0,0-67.17-37,208.26,208.26,0,0,0-22-5.69c-1.57-.32-2.24,2.09-.66,2.41Z"/><path class="cls-2" d="M146,180.54a201.4,201.4,0,0,1,59.05,49.89,178.41,178.41,0,0,1,12.17,17.36c.84,1.37,3,.12,2.16-1.26a195.28,195.28,0,0,0-53-56,212.57,212.57,0,0,0-19.12-12.13,1.25,1.25,0,0,0-1.27,2.16Z"/><path class="cls-2" d="M146.48,180a218.34,218.34,0,0,1,40.71,18.35,213.09,213.09,0,0,1,35.68,26A204.74,204.74,0,0,1,240.19,242c1.06,1.22,2.82-.56,1.77-1.77a208.43,208.43,0,0,0-32.41-30.07A217.62,217.62,0,0,0,170.83,187a222.18,222.18,0,0,0-23.68-9.41c-1.53-.51-2.19,1.9-.67,2.41Z"/></g></g></svg>